TexturaLibera.sfdir
StartChar: quotedbl
Encoding: 34 34 2
Width: 500
Flags: W
HStem: 379.038 266.924
LayerCount: 2
Back
SplineSet
325 600 m 29
 375 550 l 5
 375 500 l 29
 300 425 l 1053
125 600 m 25
 175 550 l 1
 175 500 l 25
 100 425 l 1049
EndSplineSet
Fore
SplineSet
279.038085938 575.251953125 m 1
 349.749023438 645.961914062 l 1
 420.961914062 574.749023438 l 1
 420.961914062 524.749023438 l 1
 275.250976562 379.038085938 l 1
 254.038085938 400.250976562 l 1
 329.038085938 475.251953125 l 1
 329.038085938 525.251953125 l 1
 279.038085938 575.251953125 l 1
79.0380859375 575.250976562 m 1
 149.749023438 645.961914062 l 1
 220.961914062 574.749023438 l 1
 220.961914062 524.749023438 l 1
 75.251953125 379.038085938 l 1
 54.0380859375 400.251953125 l 1
 129.038085938 475.250976562 l 1
 129.038085938 525.250976562 l 1
 79.0380859375 575.250976562 l 1
EndSplineSet
EndChar
StartChar: dollar
Encoding: 36 36 4
Width: 600
Flags: W
HStem: -195.962 21G<255.252 295.252> -45.9619 21G<5.25098 45.251 265.251 395.251> 4.03809 91.9238<92.2231 251.089> 504.038 91.9238<348.911 507.647> 625.962 20G<204.749 334.749 554.748 594.749>
VStem: 54.0381 91.9238<381.72 475.251> 254.038 91.9238<-125.251 675.251> 454.038 91.9238<124.749 218.281>
CounterMasks: 1 07
LayerCount: 2
Back
SplineSet
300 700 m 25
 300 -150 l 1049
550 600 m 17
 550 600 510 550 475 550 c 24
 366 550 200 600 200 600 c 9
 100 500 l 1
 100 340 l 1
 500 260 l 1
 500 100 l 5
 400 0 l 17
 400 0 234 50 125 50 c 24
 90 50 50 0 50.1 0 c 1025
EndSplineSet
Fore
SplineSet
324.749023438 745.961914062 m 1
 345.961914062 724.748046875 l 1
 345.961914062 -125.250976562 l 1
 275.251953125 -195.961914062 l 1
 254.038085938 -174.748046875 l 1
 254.038085938 675.250976562 l 1
 324.749023438 745.961914062 l 1
574.749023438 645.961914062 m 1
 595.961914062 624.749023438 l 1
 595.961914062 624.749023438 590.653320312 618.11328125 582.212890625 609.677734375 c 0
 511.501953125 538.966796875 l 0
 496.771484375 524.245117188 472.500976562 504.038085938 450.250976562 504.038085938 c 0
 341.250976562 504.038085938 175.250976562 554.038085938 175.250976562 554.038085938 c 0
 174.959960938 554.125976562 149.126953125 527.913085938 145.961914062 524.748046875 c 1
 145.961914062 381.719726562 l 1
 524.749023438 305.961914062 l 1
 545.961914062 284.749023438 l 1
 545.961914062 124.749023438 l 1
 375.250976562 -45.9619140625 l 1
 375.250976562 -45.9619140625 209.250976562 4.0380859375 100.251953125 4.0380859375 c 0
 84.1943359375 4.0380859375 67.0556640625 -6.6435546875 53.6572265625 -17.5556640625 c 1
 25.2509765625 -45.9619140625 l 1
 4.0380859375 -24.7490234375 l 1
 4.1533203125 -24.60546875 8.6376953125 -18.927734375 17.0517578125 -10.416015625 c 1
 17.0517578125 -10.416015625 17.4541015625 -10.0107421875 17.787109375 -9.677734375 c 0
 88.498046875 61.033203125 l 0
 103.228515625 75.755859375 127.499023438 95.9619140625 149.749023438 95.9619140625 c 0
 258.749023438 95.9619140625 424.749023438 45.9619140625 424.749023438 45.9619140625 c 1
 454.038085938 75.2509765625 l 1
 454.038085938 218.28125 l 1
 75.2509765625 294.038085938 l 1
 54.0380859375 315.250976562 l 1
 54.0380859375 475.250976562 l 1
 224.749023438 645.961914062 l 1
 224.749023438 645.961914062 390.749023438 595.961914062 499.749023438 595.961914062 c 0
 515.545898438 595.961914062 531.883789062 605.779296875 546.342773438 617.556640625 c 1
 574.749023438 645.961914062 l 1
EndSplineSet
EndChar
StartChar: ampersand
Encoding: 38 38 6
Width: 500
Flags: W
HStem: -45.9619 21G<134.851 195.251 305.251 345.251> 304.038 91.9238<224.749 375.251> 625.962 20G<204.749 264.749>
VStem: 54.0381 91.9238<85.4336 225.251 435.355 475.251> 254.038 91.9238<74.749 514.645>
LayerCount: 2
Back
SplineSet
200 350 m 29
 400 350 l 1053
450 100 m 1
 350 0 l 1
 300 50 l 1
 300 550 l 9
 200 600 l 1
 100 500 l 17
 100 400 l 5
 200 350 l 5
 100 250 l 29
 99 50 l 25
 200 0 l 25
 300 100 l 1041
EndSplineSet
Fore
SplineSet
154.038085938 325.251953125 m 1
 224.749023438 395.961914062 l 1
 424.749023438 395.961914062 l 1
 445.961914062 374.749023438 l 1
 375.250976562 304.038085938 l 1
 175.251953125 304.038085938 l 1
 154.038085938 325.251953125 l 1
254.038085938 32.8251953125 m 1
 175.250976562 -45.9619140625 l 1
 74.251953125 4.0380859375 l 1
 53.0380859375 25.251953125 l 1
 54.0380859375 225.250976562 l 1
 146.966796875 318.180664062 l 1
 75.251953125 354.038085938 l 1
 54.0380859375 375.250976562 l 1
 54.0380859375 475.250976562 l 1
 224.749023438 645.961914062 l 1
 324.749023438 595.961914062 l 1
 345.961914062 574.749023438 l 1
 345.961914062 74.7490234375 l 1
 374.749023438 45.9619140625 l 1
 474.749023438 145.961914062 l 1
 495.961914062 124.749023438 l 1
 325.250976562 -45.9619140625 l 1
 254.038085938 25.2509765625 l 1
 254.038085938 32.8251953125 l 1
254.038085938 75.2509765625 m 1
 254.038085938 514.64453125 l 1
 175.250976562 554.038085938 l 0
 175.09375 554.1171875 149.081054688 527.8671875 145.961914062 524.748046875 c 1
 145.961914062 435.35546875 l 1
 224.749023438 395.961914062 l 1
 245.961914062 374.749023438 l 1
 145.961914062 274.749023438 l 1
 145.015625 85.43359375 l 1
 224.748046875 45.9619140625 l 0
 224.909179688 45.8818359375 250.91796875 72.1318359375 254.038085938 75.2509765625 c 1
EndSplineSet
EndChar
StartChar: parenleft
Encoding: 40 40 8
Width: 250
Flags: W
HStem: -195.962 21G<166.954 195.251>
VStem: 4.03809 91.9238<118.308 433.812>
LayerCount: 2
Back
SplineSet
200 700 m 21
 200 700 50 575 50 275 c 4
 50 -25 200 -150 200.1 -150 c 1037
EndSplineSet
Fore
SplineSet
245.961914062 724.749023438 m 1
 228.250976562 707.038085938 l 1
 188.563476562 663.141601562 95.9619140625 535.462890625 95.9619140625 299.749023438 c 0
 95.9619140625 63.9658203125 188.8046875 -63.896484375 228.250976562 -107.540039062 c 1
 245.961914062 -125.250976562 l 1
 175.250976562 -195.961914062 l 1
 175.250976562 -195.961914062 172.194335938 -193.4140625 166.954101562 -188.174804688 c 0
 145.740234375 -166.9609375 l 0
 114.268554688 -135.494140625 4.0380859375 -6.9228515625 4.0380859375 250.250976562 c 0
 4.0380859375 507.393554688 114.2421875 635.965820312 145.729492188 667.453125 c 0
 216.439453125 738.163085938 l 0
 221.6875 743.411132812 224.749023438 745.961914062 224.749023438 745.961914062 c 1
 245.961914062 724.749023438 l 1
EndSplineSet
EndChar
StartChar: parenright
Encoding: 41 41 9
Width: 250
Flags: W
HStem: -195.962 21G<5.25098 33.5605>
VStem: 154.038 91.9238<116.181 431.544>
LayerCount: 2
Back
SplineSet
50 700 m 17
 50 700 200 575 200 275 c 0
 200 -25 50 -150 50.1 -150 c 1033
EndSplineSet
Fore
SplineSet
4.0380859375 675.250976562 m 1
 74.7490234375 745.961914062 l 1
 74.7490234375 745.961914062 77.8056640625 743.415039062 83.046875 738.174804688 c 0
 104.379882812 716.840820312 l 1
 136.153320312 685.008789062 245.961914062 556.532226562 245.961914062 299.749023438 c 0
 245.961914062 42.6064453125 135.7578125 -85.9658203125 104.270507812 -117.452148438 c 0
 33.560546875 -188.163085938 l 0
 28.3125 -193.411132812 25.2509765625 -195.961914062 25.2509765625 -195.961914062 c 1
 4.0380859375 -174.749023438 l 1
 21.7509765625 -157.036132812 l 1
 61.408203125 -113.09765625 154.038085938 14.486328125 154.038085938 250.250976562 c 0
 154.038085938 485.940429688 61.5244140625 613.533203125 21.75 657.540039062 c 1
 4.0380859375 675.250976562 l 1
EndSplineSet
EndChar
StartChar: plus
Encoding: 43 43 11
Width: 600
Flags: W
HStem: 254.038 91.9238<124.749 475.251> 525.962 20G<304.749 344.749>
VStem: 254.038 91.9238<124.749 475.251>
LayerCount: 2
Back
SplineSet
300 500 m 29
 300 100 l 1053
100 300 m 29
 500 300 l 1053
EndSplineSet
Fore
SplineSet
324.749023438 545.961914062 m 1
 345.961914062 524.749023438 l 1
 345.961914062 124.749023438 l 1
 275.250976562 54.0380859375 l 1
 254.038085938 75.2509765625 l 1
 254.038085938 475.250976562 l 1
 324.749023438 545.961914062 l 1
54.0380859375 275.250976562 m 1
 124.749023438 345.961914062 l 1
 524.749023438 345.961914062 l 1
 545.961914062 324.749023438 l 1
 475.250976562 254.038085938 l 1
 75.2509765625 254.038085938 l 1
 54.0380859375 275.250976562 l 1
EndSplineSet
EndChar
StartChar: comma
Encoding: 44 44 12
Width: 300
Flags: W
HStem: -170.962 266.924
VStem: 79.0381 166.924
LayerCount: 2
Back
SplineSet
150 50 m 25
 200 0 l 1
 200 -50 l 25
 125 -125 l 1053
EndSplineSet
Fore
SplineSet
104.038085938 25.2509765625 m 1
 174.748046875 95.9619140625 l 1
 245.961914062 24.748046875 l 1
 245.961914062 -25.2509765625 l 1
 100.250976562 -170.961914062 l 1
 79.0380859375 -149.749023438 l 1
 154.038085938 -74.748046875 l 1
 154.038085938 -24.7490234375 l 1
 104.038085938 25.2509765625 l 1
EndSplineSet
EndChar
StartChar: period
Encoding: 46 46 14
Width: 300
Flags: W
HStem: -46 142
VStem: 79 142
LayerCount: 2
Back
SplineSet
125 50 m 29
 175 0 l 1053
EndSplineSet
Fore
SplineSet
79 25 m 1
 150 96 l 1
 221 25 l 1
 150 -46 l 1
 79 25 l 1
EndSplineSet
EndChar
StartChar: slash
Encoding: 47 47 15
Width: 500
Flags: W
HStem: -195.962 21G<5.25098 45.251>
LayerCount: 2
Back
SplineSet
50 -150 m 29
 450 700 l 1053
EndSplineSet
Fore
SplineSet
25.2509765625 -195.961914062 m 1
 4.0380859375 -174.749023438 l 1
 404.038085938 675.250976562 l 1
 474.749023438 745.961914062 l 1
 495.961914062 724.749023438 l 1
 95.9619140625 -125.250976562 l 1
 25.2509765625 -195.961914062 l 1
EndSplineSet
EndChar
StartChar: zero
Encoding: 48 48 16
Width: 400
Flags: W
HStem: -45.9619 21G<135.251 195.251> 425.962 20G<204.748 264.748>
VStem: 54.0381 91.9238<85.3555 275.251> 254.038 91.9238<124.749 314.645>
LayerCount: 2
Back
SplineSet
200 400 m 1
 100 300 l 1
 100 50 l 25
 200 0 l 1
 300 100 l 1
 300 350 l 25
 200 400 l 1
EndSplineSet
Fore
SplineSet
54.0380859375 275.250976562 m 1
 224.748046875 445.961914062 l 1
 324.748046875 395.961914062 l 1
 345.961914062 374.749023438 l 1
 345.961914062 124.749023438 l 1
 175.250976562 -45.9619140625 l 1
 75.251953125 4.0380859375 l 1
 54.0380859375 25.2509765625 l 1
 54.0380859375 275.250976562 l 1
175.250976562 354.038085938 m 1
 145.961914062 324.749023438 l 1
 145.961914062 85.35546875 l 1
 224.748046875 45.9619140625 l 0
 224.90625 45.8828125 250.918945312 72.1328125 254.038085938 75.2509765625 c 1
 254.038085938 314.64453125 l 1
 175.250976562 354.038085938 l 1
EndSplineSet
EndChar
StartChar: one
Encoding: 49 49 17
Width: 400
Flags: W
HStem: -45.9619 21G<160.251 220.251> 425.962 20G<179.748 219.748>
VStem: 79.0381 241.924
LayerCount: 2
Back
SplineSet
125 50 m 25
 225 0 l 1
 275 50 l 1049
225 350 m 25
 175 400 l 25
 125 350 l 1049
200 375 m 9
 200 25 l 1025
EndSplineSet
Fore
SplineSet
79.0380859375 25.251953125 m 1
 149.749023438 95.9619140625 l 1
 249.748046875 45.9619140625 l 0
 250.006835938 45.83203125 294.469726562 90.68359375 299.749023438 95.9619140625 c 1
 320.961914062 74.7490234375 l 1
 200.250976562 -45.9619140625 l 1
 100.251953125 4.0380859375 l 1
 79.0380859375 25.251953125 l 1
270.961914062 374.748046875 m 1
 200.250976562 304.038085938 l 1
 150.250976562 354.038085938 l 0
 100.250976562 304.038085938 l 1
 79.0380859375 325.250976562 l 1
 199.748046875 445.961914062 l 1
 270.961914062 374.748046875 l 1
224.748046875 420.961914062 m 1
 245.961914062 399.748046875 l 1
 245.961914062 49.7490234375 l 1
 175.250976562 -20.9619140625 l 1
 154.038085938 0.2509765625 l 1
 154.038085938 350.250976562 l 1
 224.748046875 420.961914062 l 1
EndSplineSet
EndChar
StartChar: two
Encoding: 50 50 18
Width: 400
Flags: W
HStem: -45.9619 21G<55.2519 135.251 280.251 320.251> 4.03809 91.9238<174.857 285.885> 425.962 20G<154.749 264.748>
VStem: 54.0381 316.924
LayerCount: 2
Back
SplineSet
100 350 m 1
 150 400 l 1
 200 400 l 1
 300 350 l 1
 300 275 l 1
 100 75 l 25
 100 0 l 1
 100 0 163 50 250 50 c 3
 285 50 325 0 325.2 0 c 1025
EndSplineSet
Fore
SplineSet
75.2509765625 304.038085938 m 1
 54.0380859375 325.250976562 l 1
 174.749023438 445.961914062 l 1
 224.748046875 445.961914062 l 1
 324.748046875 395.961914062 l 1
 345.961914062 374.749023438 l 1
 345.961914062 299.748046875 l 1
 145.961914062 99.7490234375 l 1
 145.961914062 59.89453125 l 1
 171.94140625 74.9345703125 218.100585938 95.9619140625 274.749023438 95.9619140625 c 0
 297.021484375 95.9619140625 321.319335938 75.7138671875 336.044921875 60.98828125 c 0
 357.2578125 39.775390625 l 0
 365.672851562 31.3603515625 370.961914062 24.7490234375 370.961914062 24.7490234375 c 1
 300.250976562 -45.9619140625 l 1
 279.038085938 -24.7490234375 l 1
 278.958984375 -24.650390625 278.068359375 -23.5205078125 275.729492188 -20.8349609375 c 1
 261.93359375 -8.8623046875 242.548828125 4.0380859375 225.250976562 4.0380859375 c 0
 138.250976562 4.0380859375 75.2509765625 -45.9619140625 75.2509765625 -45.9619140625 c 1
 54.0380859375 -24.748046875 l 1
 54.0380859375 50.251953125 l 1
 254.038085938 250.250976562 l 1
 254.038085938 314.64453125 l 1
 175.250976562 354.038085938 l 1
 125.251953125 354.038085938 l 1
 75.2509765625 304.038085938 l 1
EndSplineSet
EndChar
StartChar: three
Encoding: 51 51 19
Width: 400
Flags: W
HStem: -196 92<117 186.259> 426 20G<155 255> 426 20G<155 255>
VStem: 229 92<275 318> 254 92<-125 106.5>
LayerCount: 2
Back
SplineSet
100 350 m 1
 150 400 l 1
 200 400 l 1
 275 350 l 1
 275 250 l 1
 175 150 l 1049
75 -200 m 25
 75 -200 115 -150 150 -150 c 27
 194 -150 250 -200 250 -200 c 25
 300 -150 l 1
 300 100 l 9
 225 175 l 1053
EndSplineSet
Fore
SplineSet
50 -246 m 1xc8
 29 -225 l 1
 29 -225 35 -218 43 -210 c 2
 113 -139 l 2
 128 -124 153 -104 175 -104 c 0
 202 -104 234 -124 254 -138 c 1
 254 75 l 2xc8
 254 103 216 113 200 129 c 2
 188 142 l 1
 150 104 l 1
 129 125 l 1
 229 225 l 1
 229 318 l 1
 175 354 l 1
 125 354 l 1
 75 304 l 1
 54 325 l 1
 175 446 l 1
 225 446 l 1
 300 396 l 1
 321 375 l 1
 321 275 l 1xd0
 258 212 l 1
 346 125 l 1
 346 -125 l 1
 225 -246 l 1
 225 -246 169 -196 125 -196 c 0
 109 -196 93 -206 79 -218 c 2
 50 -246 l 1xc8
EndSplineSet
Substitution2: "Subscript forms-1" three.inferior
Substitution2: "Superscript forms-1" three.superior
EndChar
StartChar: four
Encoding: 52 52 20
Width: 400
Flags: W
HStem: -195.962 21G<255.252 295.252> -45.9619 21G<55.2519 79.5801 320.962 345.251> -20.9619 91.9238<114.974 229.038> 329.038 91.9238<183.89 267.475> 425.962 20G<179.748 251.749 280.873 319.749>
VStem: 54.0381 91.9238<62.6826 275.251> 229.038 91.9238<-100.251 -44.7402 69.208 333.627>
LayerCount: 2
Back
SplineSet
250 -100 m 25
 300 -150 l 1049
275 -125 m 1
 275 400 l 1
 275 400 257 375 240 375 c 27
 213 375 175 400 175 400 c 1
 100 300 l 1
 100 0 l 1
 100 0 122 25 150 25 c 3
 268 25 350 0 350.2 0 c 1025
EndSplineSet
Fore
SplineSet
204.038085938 -124.748046875 m 1
 274.749023438 -54.0380859375 l 1
 345.961914062 -125.250976562 l 1
 275.251953125 -195.961914062 l 1
 204.038085938 -124.748046875 l 1
320.961914062 58.111328125 m 1
 326.993164062 57.0234375 332.625976562 55.9326171875 337.689453125 54.89453125 c 0
 361.38671875 50.03515625 374.749023438 45.9619140625 374.749023438 45.9619140625 c 1
 395.961914062 24.7490234375 l 1
 325.250976562 -45.9619140625 l 1
 325.250976562 -45.9619140625 323.870117188 -45.537109375 320.961914062 -44.740234375 c 2
 320.961914062 -100.250976562 l 1
 250.250976562 -170.961914062 l 1
 229.038085938 -149.748046875 l 1
 229.038085938 -27.3798828125 l 1
 199.485351562 -23.7158203125 164.223632812 -20.9619140625 125.251953125 -20.9619140625 c 0
 104.6953125 -20.9619140625 87.412109375 -34.400390625 79.580078125 -41.6337890625 c 1
 75.2509765625 -45.9619140625 l 1
 54.0380859375 -24.748046875 l 1
 54.0380859375 275.250976562 l 1
 129.038085938 375.250976562 l 1
 199.748046875 445.961914062 l 1
 199.748046875 445.961914062 237.748046875 420.961914062 264.749023438 420.961914062 c 0
 270.200195312 420.961914062 275.516601562 423.3828125 280.873046875 427.086914062 c 1
 299.749023438 445.961914062 l 1
 320.961914062 424.749023438 l 1
 320.961914062 58.111328125 l 1
145.961914062 62.6826171875 m 1
 154.059570312 67.2265625 164.025390625 70.9619140625 174.749023438 70.9619140625 c 0
 193.802734375 70.9619140625 212.010742188 70.3046875 229.038085938 69.2080078125 c 1
 229.038085938 333.626953125 l 1
 224.6015625 330.879882812 219.932617188 329.038085938 215.251953125 329.038085938 c 0
 198.0078125 329.038085938 175.126953125 339.833984375 162.490234375 346.787109375 c 1
 145.961914062 324.749023438 l 1
 145.961914062 62.6826171875 l 1
EndSplineSet
EndChar
StartChar: five
Encoding: 53 53 21
Width: 400
Flags: W
HStem: -195.962 91.9238<92.2378 160.768> 304.038 91.9238<177.994 259.962> 425.962 20G<104.749 174.749 316.077 344.749>
VStem: 54.0381 91.9238<181.568 317.941> 254.038 91.9238<-75.252 50.251>
LayerCount: 2
Back
SplineSet
300 400 m 17
 300 400 253 350 225 350 c 0
 181 350 100 400 100 400 c 1
 100 125 l 1
 200 175 l 1
 300 75 l 1
 300 -100 l 17
 200 -200 l 1
 200 -200 160 -150 125 -150 c 24
 90 -150 50.099609375 -200 50.499609375 -200 c 1025
EndSplineSet
Fore
SplineSet
324.749023438 445.961914062 m 1
 345.961914062 424.749023438 l 1
 345.961914062 424.749023438 344.467773438 423.159179688 341.853515625 420.546875 c 0
 271.142578125 349.8359375 l 0
 259.095703125 337.797851562 223.258789062 304.038085938 200.250976562 304.038085938 c 0
 185.217773438 304.038085938 164.34375 310.424804688 145.961914062 317.94140625 c 1
 145.961914062 181.568359375 l 1
 224.749023438 220.961914062 l 1
 345.961914062 99.7490234375 l 1
 345.961914062 -75.251953125 l 1
 175.250976562 -245.961914062 l 1
 154.038085938 -224.749023438 l 1
 154.038085938 -224.749023438 152.854492188 -223.274414062 150.73046875 -220.834960938 c 1
 136.375976562 -208.37890625 117.69140625 -195.961914062 100.250976562 -195.961914062 c 0
 84.224609375 -195.961914062 66.8125 -206.859375 54.0068359375 -217.306640625 c 1
 25.3515625 -245.961914062 l 1
 4.1376953125 -224.748046875 l 1
 4.1376953125 -224.748046875 9.4326171875 -218.11328125 17.8564453125 -209.676757812 c 0
 88.5673828125 -138.966796875 l 0
 103.268554688 -124.245117188 127.499023438 -104.038085938 149.749023438 -104.038085938 c 0
 171.786132812 -104.038085938 195.8046875 -123.859375 210.57421875 -138.541992188 c 0
 210.786132812 -138.754882812 210.90234375 -138.870117188 211.115234375 -139.081054688 c 1
 211.115234375 -139.081054688 210.326171875 -138.29296875 211.044921875 -139.01171875 c 0
 225.41015625 -153.376953125 l 1
 254.038085938 -124.749023438 l 1
 254.038085938 50.2509765625 l 1
 175.250976562 129.038085938 l 1
 75.2509765625 79.0380859375 l 1
 54.0380859375 100.250976562 l 1
 54.0380859375 375.250976562 l 1
 124.749023438 445.961914062 l 1
 124.749023438 445.961914062 205.749023438 395.961914062 249.748046875 395.961914062 c 0
 270.176757812 395.961914062 300.305664062 422.1875 316.077148438 437.291015625 c 1
 324.749023438 445.961914062 l 1
EndSplineSet
EndChar
StartChar: six
Encoding: 54 54 22
Width: 400
Flags: W
HStem: -45.9619 21G<155.251 195.251> 425.962 20G<204.748 244.748> 425.962 20G<204.748 244.748> 529.038 91.9238<180.047 285.193> 625.962 20G<179.749 259.749 320.422 344.749>
VStem: 54.0381 91.9238<124.748 324.748 367.175 500.251> 254.038 91.9238<124.749 275.251>
LayerCount: 2
Back
SplineSet
100 300 m 25
 200 400 l 25
 300 300 l 25
 300 100 l 25
 200 0 l 25
 100 100 l 1
 100 525 l 1
 175 600 l 25
 175 600 213 575 250 575 c 3
 278 575 300 600 300.2 600 c 1049
EndSplineSet
Fore
SplineSet
145.961914062 367.174804688 m 1xde
 224.748046875 445.961914062 l 1
 345.961914062 324.748046875 l 1
 345.961914062 124.749023438 l 1
 175.250976562 -45.9619140625 l 1
 54.0380859375 75.2509765625 l 1
 54.0380859375 500.250976562 l 1
 199.749023438 645.961914062 l 1
 199.749023438 645.961914062 237.749023438 620.961914062 274.749023438 620.961914062 c 0
 295.637695312 620.961914062 313.2734375 635.033203125 320.421875 641.634765625 c 1
 324.749023438 645.961914062 l 1
 345.961914062 624.749023438 l 1
 345.901367188 624.6796875 345.5390625 624.250976562 344.23828125 622.932617188 c 1
 344.23828125 622.932617188 344.059570312 622.751953125 343.8984375 622.591796875 c 0
 273.1875 551.880859375 l 0
 267.09765625 545.813476562 248.1875 529.038085938 225.250976562 529.038085938 c 0
 188.250976562 529.038085938 150.250976562 554.038085938 150.250976562 554.038085938 c 1
 145.961914062 549.748046875 l 1
 145.961914062 367.174804688 l 1xde
145.961914062 324.748046875 m 1
 145.961914062 124.748046875 l 1
 224.748046875 45.9619140625 l 1
 254.038085938 75.2509765625 l 1
 254.038085938 275.250976562 l 1
 175.250976562 354.038085938 l 1
 145.961914062 324.748046875 l 1
EndSplineSet
EndChar
StartChar: seven
Encoding: 55 55 23
Width: 400
Flags: W
HStem: -195.962 21G<180.252 220.252> 104.038 91.9238<131.097 221.749> 104.038 66.9238<258.185 300.351> 304.038 91.9238<149.736 277.545> 425.962 20G<79.749 159.749 324.749 394.749> 425.962 20G<79.749 159.749 324.749 394.749>
VStem: 154.038 91.9238<-100.251 72.367>
LayerCount: 2
Back
SplineSet
175 -100 m 25
 225 -150 l 1049
75 400 m 1
 75 400 136.795691715 350 225 350 c 3
 279 350 350 400 350 400 c 1
 350 400 200 276 200 0 c 3
 200 -32 200 -125 200.4 -125 c 1025
100 125 m 25
 100 125 147 150 175 150 c 24
 219 150 206 125 250 125 c 24
 278 125 325 150 325.499609375 150 c 1049
EndSplineSet
Fore
SplineSet
129.038085938 -124.749023438 m 1x92
 199.749023438 -54.0380859375 l 1
 270.961914062 -125.250976562 l 1
 200.251953125 -195.961914062 l 1
 129.038085938 -124.749023438 l 1x92
29.0380859375 375.250976562 m 1
 99.7490234375 445.961914062 l 1
 99.7490234375 445.961914062 161.544921875 395.961914062 249.748046875 395.961914062 c 0
 303.749023438 395.961914062 374.749023438 445.961914062 374.749023438 445.961914062 c 1x9a
 395.961914062 424.749023438 l 1
 374.546875 403.333984375 l 1
 332.640625 356.580078125 245.961914062 234.790039062 245.961914062 24.748046875 c 0
 245.961914062 -100.250976562 l 1
 175.250976562 -170.961914062 l 1
 154.038085938 -149.749023438 l 1
 154.038085938 -24.7490234375 l 0
 154.038085938 142.094726562 208.791015625 253.305664062 252.1484375 315.245117188 c 1
 234.943359375 308.749023438 216.73828125 304.038085938 200.250976562 304.038085938 c 0
 112.046875 304.038085938 50.251953125 354.038085938 50.251953125 354.038085938 c 1
 29.0380859375 375.250976562 l 1
54.0380859375 100.250976562 m 1
 124.748046875 170.961914062 l 1xb2
 124.748046875 170.961914062 171.749023438 195.961914062 199.749023438 195.961914062 c 0xd2
 243.749023438 195.961914062 230.749023438 170.961914062 274.749023438 170.961914062 c 0xb2
 302.748046875 170.961914062 349.749023438 195.961914062 349.848632812 195.961914062 c 1xd2
 371.061523438 174.749023438 l 1
 300.350585938 104.038085938 l 1xb2
 300.250976562 104.038085938 253.250976562 79.0380859375 225.250976562 79.0380859375 c 0
 181.251953125 79.0380859375 194.251953125 104.038085938 150.250976562 104.038085938 c 0xd2
 122.250976562 104.038085938 75.2509765625 79.0380859375 75.2509765625 79.0380859375 c 1
 54.0380859375 100.250976562 l 1
EndSplineSet
EndChar
StartChar: eight
Encoding: 56 56 24
Width: 400
Flags: W
HStem: -46 21G<155 195> 626 20G<205 245>
VStem: 54 92<85.195 200 410 475> 254 92<125 240 450 514.805>
LayerCount: 2
Back
SplineSet
200 600 m 25
 100 500 l 25
 100 375 l 29
 200 325 l 29
 300 425 l 29
 300 500 l 25
 200 600 l 25
200 325 m 29
 100 225 l 29
 100 100 l 25
 200 0 l 25
 300 100 l 25
 300 275 l 29
 200 325 l 29
EndSplineSet
Fore
SplineSet
175 279 m 1
 146 250 l 1
 146 125 l 2
 146 83 202 69 225 46 c 1
 254 75 l 1
 254 240 l 1
 175 279 l 1
54 475 m 1
 225 646 l 1
 346 525 l 1
 346 450 l 1
 253 357 l 1
 325 321 l 1
 346 300 l 1
 346 125 l 1
 175 -46 l 1
 54 75 l 1
 54 200 l 1
 147 293 l 1
 75 329 l 1
 54 350 l 1
 54 475 l 1
175 554 m 1
 146 525 l 1
 146 410 l 1
 225 371 l 1
 225 371 251 397 254 400 c 2
 254 475 l 2
 254 517 198 531 175 554 c 1
EndSplineSet
EndChar
StartChar: nine
Encoding: 57 57 25
Width: 400
Flags: W
HStem: -195.962 91.9238<117.223 186.295> -45.9619 21G<155.251 195.251> 425.962 20G<204.748 244.748> 425.962 20G<204.748 244.748>
VStem: 54.0381 91.9238<124.748 275.251> 254.038 91.9238<-125.251 32.8252 75.251 275.251>
LayerCount: 2
Back
SplineSet
300 100 m 1
 200 0 l 1
 100 100 l 25
 100 300 l 25
 200 400 l 25
 300 300 l 1
 300 -150 l 9
 250 -200 l 25
 250 -200 194 -150 150 -150 c 27
 115 -150 75 -200 75.4 -200 c 1049
EndSplineSet
Fore
SplineSet
254.038085938 75.2509765625 m 1xcc
 254.038085938 275.250976562 l 1
 175.250976562 354.038085938 l 1
 145.961914062 324.749023438 l 1
 145.961914062 124.748046875 l 1
 224.748046875 45.9619140625 l 1
 254.038085938 75.2509765625 l 1xcc
254.038085938 32.8251953125 m 1
 175.250976562 -45.9619140625 l 1
 54.0380859375 75.2509765625 l 1
 54.0380859375 275.250976562 l 1
 224.748046875 445.961914062 l 1xec
 345.961914062 324.748046875 l 1
 345.961914062 -125.250976562 l 1
 225.250976562 -245.961914062 l 1
 225.250976562 -245.961914062 169.250976562 -195.961914062 125.250976562 -195.961914062 c 0
 109.194335938 -195.961914062 92.0556640625 -206.643554688 78.6572265625 -217.556640625 c 1
 50.2509765625 -245.961914062 l 1
 29.0380859375 -224.749023438 l 1
 29.1533203125 -224.60546875 33.63671875 -218.928710938 42.05078125 -210.416015625 c 1
 42.05078125 -210.416015625 42.4541015625 -210.010742188 42.787109375 -209.677734375 c 0
 113.498046875 -138.966796875 l 0
 128.227539062 -124.245117188 152.499023438 -104.038085938 174.749023438 -104.038085938 c 0
 202.049804688 -104.038085938 233.296875 -122.854492188 254.038085938 -137.734375 c 1
 254.038085938 32.8251953125 l 1
EndSplineSet
EndChar
StartChar: colon
Encoding: 58 58 26
Width: 300
Flags: W
HStem: -45.9619 21G<130.252 170.252>
VStem: 79.0381 141.924
LayerCount: 2
Back
SplineSet
125 350 m 29
 175 300 l 1053
125 50 m 29
 175 0 l 1053
EndSplineSet
Fore
SplineSet
79.0380859375 325.250976562 m 1
 149.749023438 395.961914062 l 1
 220.961914062 324.749023438 l 1
 150.250976562 254.038085938 l 1
 79.0380859375 325.250976562 l 1
79.0380859375 25.251953125 m 1
 149.749023438 95.9619140625 l 1
 220.961914062 24.7490234375 l 1
 150.251953125 -45.9619140625 l 1
 79.0380859375 25.251953125 l 1
EndSplineSet
EndChar
StartChar: semicolon
Encoding: 59 59 27
Width: 300
Flags: W
VStem: 54 167
LayerCount: 2
Back
SplineSet
125 50 m 29
 175 0 l 5
 175 -50 l 29
 100 -125 l 1053
125 350 m 29
 175 300 l 1053
EndSplineSet
Fore
SplineSet
79 325 m 1
 150 396 l 1
 221 325 l 1
 150 254 l 1
 79 325 l 1
79 25 m 1
 150 96 l 1
 221 25 l 1
 221 -25 l 1
 75 -171 l 1
 54 -150 l 1
 129 -75 l 1
 129 -25 l 1
 79 25 l 1
EndSplineSet
EndChar
StartChar: less
Encoding: 60 60 28
Width: 600
Flags: W
HStem: 526 20G<485 545>
LayerCount: 2
Back
SplineSet
500 500 m 25
 100 300 l 25
 500 100 l 1049
EndSplineSet
Fore
SplineSet
546 525 m 1
 475 454 l 1
 192 312 l 1
 525 146 l 1
 546 125 l 1
 475 54 l 1
 75 254 l 1
 54 275 l 1
 125 346 l 1
 525 546 l 1
 546 525 l 1
EndSplineSet
EndChar
StartChar: equal
Encoding: 61 61 29
Width: 600
Flags: W
HStem: 154 92<125 475> 354 92<125 475>
LayerCount: 2
Back
SplineSet
100 200 m 25
 500 200 l 1049
100 400 m 25
 500 400 l 1049
EndSplineSet
Fore
SplineSet
54 175 m 1
 125 246 l 1
 525 246 l 1
 546 225 l 1
 475 154 l 1
 75 154 l 1
 54 175 l 1
54 375 m 1
 125 446 l 1
 525 446 l 1
 546 425 l 1
 475 354 l 1
 75 354 l 1
 54 375 l 1
EndSplineSet
EndChar
StartChar: question
Encoding: 63 63 31
Width: 400
Flags: W
HStem: -45.9619 21G<180.251 220.251> 454.038 21G<55.251 95.251> 625.962 20G<204.749 264.749>
VStem: 254.038 91.9238<424.749 514.645>
LayerCount: 2
Back
SplineSet
175 50 m 29
 225 0 l 1053
100 500 m 29
 200 600 l 29
 300 550 l 29
 300 400 l 29
 200 350 l 29
 200 200 l 1053
EndSplineSet
Fore
SplineSet
129.038085938 25.2509765625 m 1
 199.748046875 95.9619140625 l 1
 270.961914062 24.748046875 l 1
 200.250976562 -45.9619140625 l 1
 129.038085938 25.2509765625 l 1
75.2509765625 454.038085938 m 1
 54.0380859375 475.250976562 l 1
 224.749023438 645.961914062 l 1
 324.749023438 595.961914062 l 1
 345.961914062 574.749023438 l 1
 345.961914062 424.749023438 l 1
 275.250976562 354.038085938 l 1
 245.961914062 339.393554688 l 1
 245.961914062 324.749023438 l 1
 175.250976562 154.038085938 l 1
 154.038085938 275.250976562 l 1
 154.038085938 325.251953125 l 1
 224.749023438 395.961914062 l 1
 254.038085938 410.606445312 l 1
 254.038085938 514.64453125 l 1
 175.250976562 554.038085938 l 1
 75.2509765625 454.038085938 l 1
EndSplineSet
EndChar
StartChar: at
Encoding: 64 64 32
Width: 800
Flags: W
HStem: -195.962 91.9238<321.586 492.762> 450.962 20G<404.749 444.749 504.749 544.749> 554.038 91.9238<357.777 522.922>
VStem: 54.0381 91.9238<110.388 329.933> 254.038 91.9238<93.042 300.251> 454.038 91.9238<74.749 82.8252 125.252 352.285> 654.038 91.9238<259.951 411.271>
LayerCount: 2
Back
SplineSet
650 -50 m 1
 650 -50 550 -150 400 -150 c 11
 213 -150 100 38 100 225 c 27
 100 425 250 600 450 600 c 31
 595 600 700 470 700 325 c 27
 700 216 575 75 575 75 c 26
 525 25 l 1
 500 50 l 1
 500 425 l 1
 500 425 478 385 450 385 c 0
 422 385 400 425 400 425 c 9
 300 325 l 1
 300 100 l 17
 375 25 l 1
 500 150 l 1049
EndSplineSet
Fore
SplineSet
454.038085938 82.8251953125 m 1
 350.250976562 -20.9619140625 l 1
 254.038085938 75.2509765625 l 1
 254.038085938 300.250976562 l 1
 424.749023438 470.961914062 l 1
 445.961914062 449.749023438 l 1
 445.961914062 449.749023438 448.764648438 444.666015625 453.536132812 438.2421875 c 1
 459.541015625 434.215820312 467.206054688 430.961914062 474.749023438 430.961914062 c 0
 479.125 430.961914062 483.193359375 431.884765625 487.373046875 433.586914062 c 1
 524.749023438 470.961914062 l 1
 545.961914062 449.749023438 l 1
 545.961914062 74.7490234375 l 1
 547.7578125 72.9541015625 l 1
 582.458007812 117.032226562 654.038085938 217.79296875 654.038085938 300.250976562 c 0
 654.038085938 373.587890625 627.348632812 442.793945312 581.965820312 493.763671875 c 1
 540.529296875 530.647460938 486.001953125 554.038085938 425.250976562 554.038085938 c 0
 349.423828125 554.038085938 280.755859375 528.864257812 224.795898438 486.758789062 c 1
 175.321289062 421.41015625 145.961914062 338.009765625 145.961914062 249.749023438 c 0
 145.961914062 143.697265625 182.34375 37.2548828125 247.901367188 -34.9208984375 c 1
 294.8828125 -77.4453125 354.814453125 -104.038085938 424.748046875 -104.038085938 c 0
 574.749023438 -104.038085938 674.748046875 -4.0380859375 674.748046875 -4.0380859375 c 1
 695.961914062 -25.251953125 l 1
 625.250976562 -95.9619140625 l 0
 625.250976562 -95.9619140625 525.250976562 -195.961914062 375.250976562 -195.961914062 c 0
 299.811523438 -195.961914062 236.415039062 -165.365234375 187.622070312 -116.580078125 c 0
 166.409179688 -95.3671875 l 0
 165.716796875 -94.6748046875 166.484375 -95.4423828125 166.484375 -95.4423828125 c 1
 166.272460938 -95.23046875 166.177734375 -95.134765625 165.965820312 -94.9228515625 c 0
 94.0908203125 -22.765625 54.0380859375 88.919921875 54.0380859375 200.250976562 c 0
 54.0380859375 306.440429688 96.3232421875 405.58203125 165.926757812 475.224609375 c 0
 236.637695312 545.934570312 l 0
 236.80859375 546.10546875 237.021484375 546.319335938 237.021484375 546.319335938 c 1
 298.697265625 607.782226562 381.19140625 645.961914062 474.748046875 645.961914062 c 0
 541.03125 645.961914062 598.955078125 618.796875 642.311523438 575.452148438 c 0
 663.525390625 554.239257812 l 0
 664.20703125 553.557617188 663.461914062 554.303710938 663.461914062 554.303710938 c 1
 663.672851562 554.090820312 663.760742188 554.002929688 663.97265625 553.791015625 c 0
 715.1953125 502.33203125 745.961914062 428.23828125 745.961914062 349.748046875 c 0
 745.961914062 240.749023438 620.961914062 99.748046875 620.961914062 99.748046875 c 1
 500.251953125 -20.9619140625 l 1
 454.038085938 25.251953125 l 1
 454.038085938 82.8251953125 l 1
454.038085938 352.28515625 m 1
 445.916015625 344.916015625 436.11328125 339.038085938 425.250976562 339.038085938 c 0
 412.952148438 339.038085938 401.810546875 346.755859375 393.182617188 355.411132812 c 0
 372.403320312 376.190429688 l 1
 345.961914062 349.749023438 l 1
 345.961914062 124.749023438 l 0
 345.961914062 96.3095703125 384.14453125 86.5654296875 399.749023438 70.9619140625 c 0
 454.038085938 125.251953125 l 2
 454.038085938 352.28515625 l 1
EndSplineSet
EndChar
StartChar: A
Encoding: 65 65 33
Width: 700
Flags: W
HStem: -46 21G<5 45 230 270 555 595> 4 92<109 218.06> 525 4G<180 220 339 362> 554 92<267.5 340.589> 554 63<267 296.608>
VStem: 279 92<75 225> 504 92<51.437 275 296 525>
LayerCount: 2
Back
SplineSet
250 250 m 25
 250 250 306 300 350 300 c 27
 421 300 500 250 500.3 250 c 1025
250 550 m 1
 250 550 283.987304688 600 324 600 c 3
 360.013671875 600 378 575 400 575 c 3
 428 575 450 600 450.399609375 600 c 1025
400 550 m 1
 176 75 l 1025
50 0 m 17
 50 0 80.9710205783 50 150 50 c 3
 248.183501669 50 275 0 275 0 c 1
 325 50 l 1
 325 250 l 1
 500 600 l 1
 550 550 l 1
 550 50 l 1
 600 0 l 9
 650 50 l 1049
EndSplineSet
Fore
SplineSet
204 225 m 1xe6
 275 296 l 1
 275 296 331 346 375 346 c 0
 446 346 525 296 525 296 c 1
 546 275 l 1
 475 204 l 1
 475 204 396 254 325 254 c 0
 281 254 225 204 225 204 c 1
 204 225 l 1xe6
200 504 m 1
 179 525 l 1
 179 525 186 535 197 546 c 0
 267 617 l 0
 268 617 l 1xee
 282 631 302 646 324 646 c 0
 360 646 378 621 400 621 c 0
 421 621 439 635 446 642 c 1
 450 646 l 1
 471 625 l 2
 471 625 470 624 469 623 c 0
 399 552 l 0
 393 546 374 529 350 529 c 0
 328 529 310 554 274 554 c 0xf6
 261 554 248 549 237 541 c 1
 200 504 l 1
385 589 m 1
 342 498 l 1
 118 23 l 1
 91 36 l 1
 134 127 l 1
 358 602 l 1
 385 589 l 1
25 -46 m 1
 4 -25 l 1
 4 -25 8 -18 16 -10 c 0
 87 61 l 0
 102 76 131 96 175 96 c 0
 229 96 262 80 279 67 c 1
 279 225 l 1
 454 575 l 1
 525 646 l 1xf6
 596 575 l 1
 596 75 l 0
 596 60 617 54 625 46 c 0
 675 96 l 1
 696 75 l 1
 575 -46 l 1
 504 25 l 1
 504 525 l 1
 499 530 l 1
 371 275 l 1
 371 75 l 1
 250 -46 l 1
 229 -25 l 1
 229 -25 228 -25 228 -24 c 1
 210 -11 177 4 125 4 c 0
 93 4 69 -6 53 -18 c 1
 25 -46 l 1
EndSplineSet
EndChar
StartChar: C
Encoding: 67 67 35
Width: 750
Flags: W
HStem: -45.9619 91.9238<299.628 461.338> 446.038 21G<255.251 295.251> 504.038 91.9238<528.757 577.079> 525.962 20G<429.749 469.749> 554.038 91.9238<422.898 490.6>
VStem: 79.0381 91.9238<198.136 382.917> 285 30<50 600> 379.038 91.9238<124.749 475.252>
LayerCount: 2
Back
SplineSet
300 550 m 5
 300 100 l 1029
425 500 m 5
 425 100 l 1029
300 600 m 5
 300 600 125 480.002777756 125 300 c 7
 125 134 220 0 400 0 c 7
 519 0 651 150 651.2 150 c 1029
300 492 m 5
 300 492 395 600 455 600 c 7
 519 600 492 550 550 550 c 7
 598 550 625 600 625.2 600 c 1029
EndSplineSet
Fore
SplineSet
285 600 m 1xc7
 315 600 l 1
 315 50 l 1
 285 50 l 1
 285 600 l 1xc7
449.749023438 545.961914062 m 1xd7
 470.961914062 524.749023438 l 1
 470.961914062 124.749023438 l 1
 400.251953125 54.0380859375 l 1
 379.038085938 75.251953125 l 1
 379.038085938 475.251953125 l 1
 449.749023438 545.961914062 l 1xd7
345.961914062 624.749023438 m 1
 275.251953125 554.038085938 l 1
 275.251953125 554.038085938 267.475585938 548.662109375 255.969726562 539.235351562 c 1
 212.59375 486.213867188 170.961914062 412.876953125 170.961914062 324.749023438 c 0
 170.961914062 240.040039062 195.893554688 163.498046875 243.89453125 109.120117188 c 1
 288.8359375 69.458984375 349.252929688 45.9619140625 424.749023438 45.9619140625 c 0
 502.477539062 45.9619140625 585.845703125 110.138671875 633.814453125 154.028320312 c 1
 675.749023438 195.961914062 l 1
 696.961914062 174.749023438 l 1
 696.961914062 174.749023438 689.891601562 166.713867188 677.547851562 154.36328125 c 0
 606.836914062 83.6533203125 l 0
 565.846679688 42.640625 466.709960938 -45.9619140625 375.250976562 -45.9619140625 c 0
 293.491210938 -45.9619140625 229.268554688 -18.3154296875 183.520507812 27.41796875 c 0
 162.306640625 48.6318359375 l 0
 107.3359375 103.583984375 79.0380859375 184.651367188 79.0380859375 275.250976562 c 0
 79.0380859375 386.90625 146.372070312 475.47265625 197.506835938 526.633789062 c 0
 268.216796875 597.34375 l 0
 299.518554688 628.661132812 324.749023438 645.961914062 324.749023438 645.961914062 c 1xcf
 345.961914062 624.749023438 l 1
275.250976562 446.038085938 m 1
 254.038085938 467.250976562 l 1
 254.038085938 467.250976562 262.819335938 477.234375 276.728515625 491.129882812 c 0
 347.438476562 561.83984375 l 0
 379.279296875 593.649414062 437.990234375 645.961914062 479.749023438 645.961914062 c 0xcf
 501.450195312 645.961914062 512.688476562 640.213867188 520.325195312 632.614257812 c 0
 541.828125 611.111328125 l 1
 545.28515625 607.588867188 547.743164062 604.091796875 550.250976562 600.42578125 c 1
 556.327148438 597.63671875 564.056640625 595.961914062 574.749023438 595.961914062 c 0xe7
 587.623046875 595.961914062 599.453125 599.899414062 608.4765625 604.689453125 c 1
 649.749023438 645.961914062 l 1xcf
 670.961914062 624.749023438 l 1
 670.928710938 624.686523438 664.971679688 613.473632812 652.78125 601.063476562 c 1
 652.78125 601.063476562 652.421875 600.700195312 652.127929688 600.40625 c 0
 581.416992188 529.696289062 l 0
 568.657226562 516.98046875 549.671875 504.038085938 525.250976562 504.038085938 c 0xe7
 506.977539062 504.038085938 497.376953125 508.826171875 490.265625 515.7734375 c 1
 490.264648438 515.774414062 490.108398438 515.928710938 489.983398438 516.053710938 c 0
 468.770507812 537.267578125 l 0
 465.409179688 540.633789062 462.53125 544.743164062 460.038085938 548.411132812 c 1
 453.139648438 551.751953125 443.635742188 554.038085938 430.251953125 554.038085938 c 0
 397.493164062 554.038085938 354.4453125 521.969726562 321.737304688 492.524414062 c 1
 275.250976562 446.038085938 l 1
EndSplineSet
EndChar
StartChar: D
Encoding: 68 68 36
Width: 700
Flags: W
HStem: -46 21G<5 45.7407 335 495> 4 92<103.406 185 215 354.591> 504 21G<5 45> 554 92<92.5 160.551> 554 63<92 121.608>
VStem: 185 30<96 530> 279 92<175 525> 554 92<126 441>
AnchorPoint: "blwmark" 350 0 basechar 0
AnchorPoint: "abvmark" 400 700 basechar 0
LayerCount: 2
Back
SplineSet
50 550 m 5
 50 550 84 600 124 600 c 7
 160 600 178 575 200 575 c 7
 228 575 250 600 251 600 c 1029
200 550 m 5
 200 75 l 1029
325 150 m 5
 325 550 l 5
 375 600 l 5
 600 475 l 5
 600 101 l 5
 500 0 l 21
 500 0 349 50 150 50 c 7
 81 50 50 0 50 0 c 1037
EndSplineSet
Fore
SplineSet
300 104 m 1xef
 279 125 l 1
 279 525 l 1
 400 646 l 1
 625 521 l 1
 646 500 l 1
 646 126 l 1
 546 25 l 1
 475 -46 l 1
 475 -46 324 4 125 4 c 0
 92 4 69 -8 53 -19 c 2
 25 -46 l 1
 4 -25 l 2
 4 -25 8 -19 16 -11 c 2
 16 -10 l 2
 87 61 l 2
 102 76 131 96 175 96 c 0
 178 96 182 96 185 96 c 2
 185 530 l 2
 182 529 178 529 175 529 c 0
 153 529 135 554 99 554 c 0xf7
 86 554 73 549 62 541 c 2
 25 504 l 1
 4 525 l 1
 4 525 11 535 22 546 c 2
 92 617 l 2
 93 617 l 0xef
 107 631 127 646 149 646 c 0
 185 646 203 621 225 621 c 0
 253 621 275 646 276 646 c 2xf7
 297 625 l 1
 226 554 l 2
 226 554 222 550 215 545 c 1
 215 95 l 1
 387 89 515 49 524 46 c 1
 554 76 l 1
 554 441 l 1
 371 543 l 1
 371 175 l 1
 300 104 l 1xef
EndSplineSet
EndChar
StartChar: F
Encoding: 70 70 38
Width: 700
Flags: W
HStem: -46 21G<5 45 230 270> 4 92<103.818 186.013> 254 92<468.5 532> 304 92<392 452.5> 479 92<461.539 529.108> 504 21G<5 45> 554 92<92.5 160.551> 554 63<92 121.608>
VStem: 187 30<96 530> 279 92<75 303.859 343 525>
LayerCount: 2
Back
SplineSet
50 0 m 17
 50 0 81 50 150 50 c 3
 248 50 275 0 275 0 c 9
 325 50 l 1
 325 550 l 1
 375 600 l 1
 375 600 438 525 500 525 c 27
 555 525 600 600 601.1 600 c 1025
50 550 m 1
 50 550 84 600 124 600 c 3
 160 600 178 575 200 575 c 3
 228 575 250 600 251.1 600 c 1025
200 550 m 1
 202 61 l 1025
350 300 m 1
 350 300 393 350 421 350 c 3
 456 350 465 300 500 300 c 3
 541 300 575 350 576.1 350 c 1049
EndSplineSet
Fore
SplineSet
25 504 m 1xd6c0
 4 525 l 1
 4 525 11 535 22 546 c 2
 92 617 l 2
 93 617 l 0xc5c0
 107 631 127 646 149 646 c 0
 185 646 203 621 225 621 c 0
 246 621 263 635 270 642 c 2
 275 646 l 1
 296 625 l 2
 296 625 295 624 294 623 c 2
 223 552 l 2
 221 550 219 548 215 545 c 2
 217 111 l 1
 217 92 l 1
 247 87 267 76 279 67 c 1
 279 525 l 1
 400 646 l 1xc6c0
 421 625 l 1
 421 625 422 623 424 621 c 0
 448 599 487 571 525 571 c 0xc8c0
 537 571 549 575 559 580 c 2
 625 646 l 1xc2c0
 646 625 l 1
 646 625 633 604 614 585 c 2
 544 514 l 2
 526 496 501 479 475 479 c 0
 435 479 395 511 371 533 c 1
 371 343 l 1
 387 359 l 2
 388 360 l 0
 403 375 428 396 446 396 c 0xd8c0
 459 396 468 389 476 381 c 2
 497 360 l 2
 499 358 502 355 504 353 c 0
 511 348 517 346 525 346 c 0xe0c0
 539 346 552 353 563 360 c 2
 600 396 l 1xd0c0
 621 375 l 1
 621 375 615 365 604 354 c 2
 533 284 l 2
 519 270 498 254 475 254 c 0xe0c0
 462 254 453 261 445 269 c 2
 424 290 l 2
 422 292 419 295 417 297 c 0
 411 301 404 304 396 304 c 0
 388 304 380 301 371 295 c 1
 371 75 l 1
 250 -46 l 1
 229 -25 l 1
 229 -25 228 -25 228 -24 c 0
 210 -11 177 4 125 4 c 0
 93 4 69 -6 53 -18 c 2
 25 -46 l 1
 4 -25 l 1
 4 -25 8 -18 16 -10 c 2
 87 61 l 2
 102 76 131 96 175 96 c 0
 179 96 183 96 187 96 c 2
 185 500 l 1
 185 530 l 2
 182 529 178 529 175 529 c 0
 153 529 135 554 99 554 c 0
 86 554 73 549 62 541 c 2
 25 504 l 1xd6c0
EndSplineSet
EndChar
StartChar: G
Encoding: 71 71 39
Width: 750
Flags: W
HStem: -45.9619 91.9238<299.554 485.752> 318.038 91.9238<542.829 608.429> 446.038 21G<255.251 295.251> 446.038 21G<255.251 295.251> 504.038 91.9238<528.757 577.079> 525.962 20G<429.749 469.749> 554.038 91.9238<422.898 490.6>
VStem: 79.0381 91.9238<196.62 383.042> 285 30<50 600> 379.038 91.9238<124.749 275.251 296.94 475.252> 604.038 91.9238<141.791 307.603>
LayerCount: 2
Back
SplineSet
475 300 m 17
 475 300 521.961914062 364 575 364 c 3
 631.320511361 364 650 306.042444332 650 200 c 3
 650 75 519 0 400 0 c 3
 220 0 125 134 125 300 c 3
 125 480.002777756 300 600 300 600 c 1025
300 550 m 1
 300 100 l 1025
425 500 m 1
 425 100 l 1025
300 492 m 1
 300 492 395 600 455 600 c 3
 519 600 492 550 550 550 c 3
 598 550 625 600 625.2 600 c 1025
EndSplineSet
Fore
SplineSet
450.250976562 254.038085938 m 1xc3e0
 429.038085938 275.250976562 l 1
 429.038085938 275.250976562 436.212890625 285.029296875 448.120117188 296.940429688 c 0
 518.831054688 367.651367188 l 0
 519.141601562 367.961914062 519.530273438 368.34765625 519.532226562 368.350585938 c 1
 538.592773438 387.200195312 567.965820312 409.961914062 599.749023438 409.961914062 c 0
 617.108398438 409.961914062 630.891601562 404.456054688 641.653320312 393.733398438 c 0
 663.135742188 372.250976562 l 1
 687.22265625 347.841796875 695.961914062 297.842773438 695.961914062 224.749023438 c 0
 695.961914062 175.172851562 675.356445312 133.461914062 643.065429688 101.17578125 c 0
 572.354492188 30.46484375 l 0
 523.227539062 -18.6552734375 447.0546875 -45.9619140625 375.250976562 -45.9619140625 c 0
 293.491210938 -45.9619140625 229.268554688 -18.3154296875 183.520507812 27.41796875 c 0
 162.306640625 48.6318359375 l 0
 161.772460938 49.166015625 162.338867188 48.6005859375 162.086914062 48.8525390625 c 0
 161.875976562 49.064453125 162.086914062 48.8525390625 161.875 49.064453125 c 0
 107.188476562 104.009765625 79.0380859375 184.889648438 79.0380859375 275.250976562 c 0
 79.0380859375 386.90625 146.372070312 475.47265625 197.506835938 526.633789062 c 0
 268.216796875 597.34375 l 0
 268.487304688 597.614257812 268.823242188 597.950195312 268.823242188 597.950195312 c 1
 300.174804688 629.180664062 324.663085938 645.903320312 324.749023438 645.961914062 c 1
 345.961914062 624.749023438 l 1
 275.251953125 554.038085938 l 1
 275.237304688 554.028320312 267.841796875 548.9609375 255.969726562 539.235351562 c 1
 213.336914062 487.122070312 170.961914062 413.205078125 170.961914062 324.749023438 c 0
 170.961914062 239.934570312 195.513671875 163.927734375 243.89453125 109.120117188 c 1
 288.40234375 69.8408203125 349.350585938 45.9619140625 424.749023438 45.9619140625 c 0
 478.861328125 45.9619140625 535.62109375 61.556640625 581.037109375 90.1064453125 c 1
 595.390625 114.702148438 604.038085938 143.428710938 604.038085938 175.250976562 c 0
 604.038085938 237.731445312 597.5703125 283.47265625 580.708984375 310.588867188 c 1
 572.212890625 315.4140625 561.9453125 318.038085938 550.251953125 318.038085938 c 0
 528.407226562 318.038085938 507.91015625 307.404296875 490.497070312 294.284179688 c 1
 450.250976562 254.038085938 l 1xc3e0
285 600 m 1
 315 600 l 1
 315 50 l 1
 285 50 l 1
 285 600 l 1
449.749023438 545.961914062 m 1xc5e0
 470.961914062 524.749023438 l 1
 470.961914062 124.749023438 l 1
 400.251953125 54.0380859375 l 1
 379.038085938 75.251953125 l 1
 379.038085938 475.251953125 l 1
 449.749023438 545.961914062 l 1xc5e0
275.250976562 446.038085938 m 1xe3e0
 254.038085938 467.250976562 l 1
 254.038085938 467.250976562 262.819335938 477.234375 276.728515625 491.129882812 c 0
 347.438476562 561.83984375 l 0
 379.279296875 593.649414062 437.990234375 645.961914062 479.749023438 645.961914062 c 0xe3e0
 501.450195312 645.961914062 512.688476562 640.213867188 520.325195312 632.614257812 c 0
 541.828125 611.111328125 l 1
 545.28515625 607.588867188 547.743164062 604.091796875 550.250976562 600.42578125 c 1
 556.327148438 597.63671875 564.056640625 595.961914062 574.749023438 595.961914062 c 0xc9e0
 587.623046875 595.961914062 599.453125 599.899414062 608.4765625 604.689453125 c 1
 649.749023438 645.961914062 l 1xc3e0
 670.961914062 624.749023438 l 1
 670.928710938 624.686523438 664.971679688 613.473632812 652.78125 601.063476562 c 1
 652.78125 601.063476562 652.421875 600.700195312 652.127929688 600.40625 c 0
 581.416992188 529.696289062 l 0
 568.657226562 516.98046875 549.671875 504.038085938 525.250976562 504.038085938 c 0xc9e0
 506.977539062 504.038085938 497.376953125 508.826171875 490.265625 515.7734375 c 1
 490.264648438 515.774414062 490.108398438 515.928710938 489.983398438 516.053710938 c 0
 468.770507812 537.267578125 l 0
 465.409179688 540.633789062 462.53125 544.743164062 460.038085938 548.411132812 c 1
 453.139648438 551.751953125 443.635742188 554.038085938 430.251953125 554.038085938 c 0
 397.493164062 554.038085938 354.4453125 521.969726562 321.737304688 492.524414062 c 1
 275.250976562 446.038085938 l 1xe3e0
EndSplineSet
EndChar
StartChar: H
Encoding: 72 72 40
Width: 700
Flags: W
HStem: -45.9619 21G<5.35064 45.3516 230.251 270.251 555.251 595.251> 11 84.9619<103.98 185.385> 504.038 21G<5.25098 45.251> 554.038 91.9238<92.6069 160.553>
VStem: 187 30<11 600> 279.038 91.9238<74.749 525.252> 504.038 91.9238<51.1806 300.252>
LayerCount: 2
Back
SplineSet
50 550 m 5
 50 550 83.9875019525 600 124 600 c 7
 160.013671875 600 178 575 200 575 c 7
 228 575 250 600 250.4 600 c 1029
200 550 m 5
 202 61 l 1029
375 250 m 5
 500 375 l 5
 550 325 l 5
 550 50 l 5
 600 0 l 13
 650 50 l 1053
375 600 m 5
 325 550 l 5
 325 50 l 5
 275 0 l 5
 275 0 248.183501669 50 150 50 c 7
 80.9710205783 50 50 0 50.4 0 c 1037
EndSplineSet
Fore
SplineSet
25.2509765625 504.038085938 m 1
 4.0380859375 525.250976562 l 1
 4.0380859375 525.250976562 10.7294921875 535.094726562 21.6689453125 546.046875 c 0
 92.3798828125 616.7578125 l 0
 92.7080078125 617.0859375 93.1181640625 617.493164062 93.1220703125 617.49609375 c 1
 107.284179688 631.4296875 127.005859375 645.961914062 148.749023438 645.961914062 c 0
 184.762695312 645.961914062 202.748046875 620.961914062 224.749023438 620.961914062 c 0
 246.237304688 620.961914062 264.13671875 635.705078125 271.2890625 642.405273438 c 1
 274.8125 645.928710938 l 1
 274.834960938 645.951171875 274.846679688 645.9609375 274.84765625 645.962890625 c 1
 296.061523438 624.749023438 l 2
 295.708984375 624.377929688 295.303710938 623.943359375 294.405273438 623.041992188 c 0
 223.6953125 552.331054688 l 0
 218.077148438 546.696289062 198.783203125 529.038085938 175.250976562 529.038085938 c 0
 153.250976562 529.038085938 135.265625 554.038085938 99.2509765625 554.038085938 c 0
 85.962890625 554.038085938 73.62109375 548.6953125 62.2998046875 541.086914062 c 1
 25.2509765625 504.038085938 l 1
185 600 m 1
 215 600 l 1
 217 111 l 1
 217 11 l 1
 187 11 l 1
 185 500 l 1
 185 600 l 1
350.250976562 204.038085938 m 1
 329.038085938 225.250976562 l 1
 524.749023438 420.961914062 l 1
 595.961914062 349.749023438 l 1
 595.961914062 74.748046875 l 0
 595.961914062 60.0400390625 616.413085938 54.296875 624.748046875 45.9619140625 c 0
 674.749023438 95.9619140625 l 1
 695.961914062 74.7490234375 l 1
 575.250976562 -45.9619140625 l 1
 504.038085938 25.2509765625 l 1
 504.038085938 300.251953125 l 1
 475.251953125 329.038085938 l 1
 350.250976562 204.038085938 l 1
53.048828125 -18.2646484375 m 1
 25.3515625 -45.9619140625 l 1
 4.1376953125 -24.7490234375 l 1
 4.111328125 -24.7490234375 7.6865234375 -18.845703125 15.7509765625 -10.6611328125 c 1
 15.7509765625 -10.6611328125 16.0185546875 -10.3916015625 16.23828125 -10.171875 c 0
 86.94921875 60.5390625 l 0
 101.725585938 75.298828125 130.373046875 95.9619140625 174.748046875 95.9619140625 c 0
 228.392578125 95.9619140625 261.036132812 80.8515625 279.038085938 67.4921875 c 1
 279.038085938 525.251953125 l 1
 399.748046875 645.961914062 l 1
 420.961914062 624.748046875 l 1
 370.961914062 574.749023438 l 1
 370.961914062 74.7490234375 l 1
 250.250976562 -45.9619140625 l 1
 229.038085938 -24.7490234375 l 1
 229.038085938 -24.7490234375 228.716796875 -24.1748046875 228.306640625 -23.5322265625 c 1
 209.548828125 -10.08984375 177.717773438 4.0380859375 125.250976562 4.0380859375 c 0
 93.3662109375 4.0380859375 69.4140625 -6.76171875 53.048828125 -18.2646484375 c 1
EndSplineSet
EndChar
StartChar: I
Encoding: 73 73 41
Width: 450
Flags: W
HStem: -46 21G<5 45 230 270> 4 92<103.28 185.662> 504 21G<5 45> 554 92<92.5 160.551> 554 63<92 121.608>
VStem: 187 30<96 530> 279 92<75 525>
LayerCount: 2
Back
SplineSet
50 550 m 1
 50 550 84 600 124 600 c 3
 160 600 178 575 200 575 c 3
 228 575 250 600 251.1 600 c 1025
200 550 m 1
 202 61 l 1025
375 600 m 1
 325 550 l 1
 325 50 l 1
 275 0 l 17
 275 0 248 50 150 50 c 3
 81 50 50 0 50.1 0 c 1033
EndSplineSet
Fore
SplineSet
400 646 m 1xf6
 421 625 l 1
 371 575 l 1
 371 75 l 1
 250 -46 l 1
 229 -25 l 1
 229 -25 228 -25 228 -24 c 0
 209 -11 177 4 125 4 c 0
 92 4 68 -7 53 -18 c 2
 25 -46 l 1
 4 -25 l 2
 4 -25 8 -19 16 -11 c 2
 16 -10 l 2
 87 61 l 2
 102 76 131 96 175 96 c 0
 179 96 183 96 187 96 c 2
 185 500 l 1
 185 530 l 2
 182 529 178 529 175 529 c 0
 153 529 135 554 99 554 c 0xf6
 86 554 73 549 62 541 c 2
 25 504 l 1
 4 525 l 1
 4 525 11 535 22 546 c 2
 92 617 l 2
 93 617 l 0xee
 107 631 127 646 149 646 c 0
 185 646 203 621 225 621 c 0
 246 621 263 635 270 642 c 2
 275 646 l 1
 296 625 l 2
 296 625 295 624 294 623 c 2
 223 552 l 2
 221 550 219 548 215 545 c 2
 217 111 l 1
 217 92 l 1
 246 87 266 76 279 67 c 1
 279 525 l 1
 400 646 l 1xf6
EndSplineSet
EndChar
StartChar: J
Encoding: 74 74 42
Width: 450
Flags: W
HStem: -189 84.9619<28.7595 129.489> 504.038 21G<5.25098 45.251> 554.038 91.9238<92.6069 160.553>
VStem: 187 30<-189 600> 279.038 91.9238<-50.251 525.252>
LayerCount: 2
Back
SplineSet
50 550 m 1
 50 550 83.9875019525 600 124 600 c 3
 160.013671875 600 178 575 200 575 c 3
 228 575 250 600 250.4 600 c 1025
200 550 m 1
 202 -139 l 1025
375 600 m 1
 325 550 l 1
 325 -75 l 1
 200 -200 l 1
 200 -200 173.18359375 -150 75 -150 c 3
 5.970703125 -150 -25 -200 -24.6 -200 c 1033
EndSplineSet
Fore
SplineSet
25.2509765625 504.038085938 m 1
 4.0380859375 525.250976562 l 1
 4.0380859375 525.250976562 10.7294921875 535.094726562 21.6689453125 546.046875 c 0
 92.3798828125 616.7578125 l 0
 92.7080078125 617.0859375 93.1181640625 617.493164062 93.1220703125 617.49609375 c 1
 107.284179688 631.4296875 127.005859375 645.961914062 148.749023438 645.961914062 c 0
 184.762695312 645.961914062 202.748046875 620.961914062 224.749023438 620.961914062 c 0
 245.637695312 620.961914062 263.2734375 635.034179688 270.420898438 641.633789062 c 1
 274.749023438 645.961914062 l 1
 295.961914062 624.749023438 l 1
 295.901367188 624.6796875 295.5390625 624.250976562 294.23828125 622.932617188 c 1
 294.23828125 622.932617188 294.059570312 622.751953125 293.8984375 622.591796875 c 0
 223.1875 551.880859375 l 0
 217.09765625 545.813476562 198.1875 529.038085938 175.250976562 529.038085938 c 0
 153.250976562 529.038085938 135.265625 554.038085938 99.2509765625 554.038085938 c 0
 85.962890625 554.038085938 73.62109375 548.6953125 62.2998046875 541.086914062 c 1
 25.2509765625 504.038085938 l 1
185 600 m 1
 215 600 l 1
 217 -89 l 0
 217 -189 l 1
 187 -189 l 1
 185 500 l 0
 185 600 l 1
399.748046875 645.961914062 m 1
 420.961914062 624.748046875 l 1
 370.961914062 574.749023438 l 1
 370.961914062 -50.2509765625 l 1
 175.250976562 -245.961914062 l 1
 154.038085938 -224.749023438 l 1
 154.038085938 -224.749023438 153.716796875 -224.173828125 153.306640625 -223.532226562 c 1
 134.549804688 -210.08984375 102.717773438 -195.961914062 50.2509765625 -195.961914062 c 0
 17.69140625 -195.961914062 -6.775390625 -207.481445312 -22.2705078125 -218.483398438 c 1
 -49.7490234375 -245.961914062 l 1
 -70.9619140625 -224.748046875 l 1
 -70.9208984375 -224.682617188 -67.3935546875 -218.8828125 -59.2763671875 -210.66015625 c 1
 -59.2763671875 -210.66015625 -59.0078125 -210.390625 -58.7880859375 -210.170898438 c 0
 11.9228515625 -139.4609375 l 0
 26.7255859375 -124.701171875 55.373046875 -104.038085938 99.7490234375 -104.038085938 c 0
 166.373046875 -104.038085938 200.13671875 -127.060546875 214.95703125 -141.861328125 c 0
 225.94140625 -152.845703125 l 1
 279.038085938 -99.7490234375 l 1
 279.038085938 525.251953125 l 1
 399.748046875 645.961914062 l 1
EndSplineSet
EndChar
StartChar: K
Encoding: 75 75 43
Width: 700
Flags: W
HStem: -46 21G<5 45 230 270 555 595> 4 92<104.087 185.662> 504 21G<5 45 580 620> 554 92<92.5 160.551> 554 63<92 121.608>
VStem: 187 30<96 530> 279 92<75 225 267 525> 479 92<425 525> 504 92<51.437 200>
LayerCount: 2
Back
SplineSet
50 550 m 1
 50 550 84 600 124 600 c 3
 160 600 178 575 200 575 c 3
 228 575 250 600 251.1 600 c 1025
200 550 m 1
 202 61 l 1025
375 250 m 1
 525 400 l 1
 525 550 l 1
 575 600 l 9
 625 550 l 1049
450 325 m 1
 550 225 l 1
 550 50 l 1
 600 0 l 9
 650 50 l 1049
375 600 m 1
 325 550 l 1
 325 50 l 1
 275 0 l 1
 275 0 248 50 150 50 c 3
 81 50 50 0 50.1 0 c 1033
EndSplineSet
Fore
SplineSet
53 -18 m 2xf680
 25 -46 l 1
 4 -25 l 2
 4 -25 8 -18 16 -10 c 2
 87 60 l 2
 102 75 131 96 175 96 c 0
 179 96 183 96 187 96 c 2
 185 500 l 1
 185 530 l 2
 182 529 178 529 175 529 c 0
 153 529 135 554 99 554 c 0xf680
 86 554 73 549 62 541 c 2
 25 504 l 1
 4 525 l 1
 4 525 11 535 22 546 c 2
 92 617 l 2
 93 617 l 0xee80
 107 631 127 646 149 646 c 0
 185 646 203 621 225 621 c 0
 248 621 266 637 272 643 c 2
 275 646 l 2
 296 625 l 1
 296 625 296 625 295 624 c 2
 295 623 l 2
 224 553 l 2
 222 551 219 548 215 545 c 1
 217 111 l 1
 217 92 l 1
 246 87 266 76 279 67 c 1
 279 525 l 1
 400 646 l 1
 421 625 l 1
 371 575 l 1
 371 267 l 1
 479 375 l 1
 479 525 l 1
 600 646 l 1
 671 575 l 1
 600 504 l 1
 571 533 l 1
 571 425 l 1xf7
 496 350 l 1
 596 250 l 1
 596 75 l 2
 596 60 617 54 625 46 c 1
 675 96 l 1
 696 75 l 1
 575 -46 l 1
 504 25 l 1
 504 200 l 1
 425 279 l 1
 371 225 l 1
 371 75 l 1
 250 -46 l 1
 229 -25 l 1
 229 -25 228 -25 228 -24 c 0
 209 -11 177 4 125 4 c 0
 93 4 69 -7 53 -18 c 2xf680
EndSplineSet
EndChar
StartChar: L
Encoding: 76 76 44
Width: 700
Flags: W
HStem: -46 21G<5 45 335 495> 4 92<103.28 187 217 355.727> 504 21G<5 45> 554 92<92.5 160.551> 554 63<92 121.608>
VStem: 187 30<96 530> 279 92<175 525> 504 92<171.701 257.5>
LayerCount: 2
Back
SplineSet
50 550 m 1
 50 550 83.9875019525 600 124 600 c 3
 160.013671875 600 178 575 200 575 c 3
 228 575 250 600 250.5 600 c 1025
200 550 m 1
 202 61 l 1025
325 150 m 1
 325 550 l 1
 375 600 l 1025
600 300 m 1
 600 300 550 261 550 225 c 3
 550 164 600 101 600 101 c 1
 500 0 l 17
 500 0 349.022611781 50 150 50 c 3
 80.9710205783 50 50 0 50.5 0 c 1033
EndSplineSet
Fore
SplineSet
646 325 m 1xf7
 616 295 l 2
 605 281 596 265 596 250 c 0
 596 189 646 126 646 126 c 1
 546 25 l 1
 475 -46 l 1
 475 -46 324 4 125 4 c 0
 92 4 68 -7 53 -18 c 2
 25 -46 l 1
 4 -25 l 2
 4 -25 8 -19 16 -11 c 2
 16 -10 l 2
 87 61 l 2
 102 76 131 96 175 96 c 0
 179 96 183 96 187 96 c 2
 185 500 l 1
 185 530 l 2
 182 529 178 529 175 529 c 0
 153 529 135 554 99 554 c 0xf7
 86 554 73 549 62 541 c 2
 25 504 l 1
 4 525 l 1
 4 525 11 535 22 546 c 2
 92 617 l 2
 93 617 l 0xef
 107 631 127 646 149 646 c 0
 185 646 203 621 225 621 c 0
 246 621 263 635 270 642 c 2
 275 646 l 1
 296 625 l 2
 296 625 295 624 294 623 c 2
 223 552 l 2
 221 550 219 548 215 545 c 2
 217 111 l 1
 217 95 l 1
 388 89 515 49 524 46 c 1
 554 76 l 1
 554 76 504 139 504 200 c 0
 504 222 523 246 538 261 c 2
 609 331 l 2
 618 340 625 346 625 346 c 1
 646 325 l 1xf7
300 104 m 1
 279 125 l 1
 279 525 l 1
 400 646 l 1
 421 625 l 1
 371 575 l 1
 371 175 l 1
 300 104 l 1
EndSplineSet
EndChar
StartChar: M
Encoding: 77 77 45
Width: 900
Flags: W
HStem: -46 21G<5 45 230 270 505 545 730 770> 4 92<103.28 185.662> 504 21G<5 45> 554 92<92.5 160.551> 554 63<92 121.608>
VStem: 187 30<96 530> 279 92<75 525> 454 92<75 490.831> 679 92<75 496.31>
LayerCount: 2
Back
SplineSet
825 50 m 29
 775 0 l 21
 725 50 l 5
 725 475 l 5
 600 600 l 5
 500 500 l 1029
50 550 m 5
 50 550 83.9875019525 600 124 600 c 7
 160.013671875 600 178 575 200 575 c 7
 228 575 250 600 250.5 600 c 1029
200 550 m 1
 202 61 l 1025
600 50 m 29
 550 0 l 21
 500 50 l 5
 500 475 l 5
 375 600 l 5
 325 550 l 5
 325 50 l 5
 275 0 l 5
 275 0 248.183501669 50 150 50 c 7
 80.9710205783 50 50 0 50.5 0 c 1037
EndSplineSet
Fore
SplineSet
625 96 m 1xef80
 646 75 l 1
 525 -46 l 1
 454 25 l 1
 454 450 l 2
 454 494 394 510 371 533 c 1
 371 75 l 1
 250 -46 l 1
 229 -25 l 1
 229 -25 228 -25 228 -24 c 0
 209 -11 177 4 125 4 c 0
 92 4 68 -7 53 -18 c 2
 25 -46 l 1
 4 -25 l 2
 4 -25 8 -19 16 -11 c 2
 16 -10 l 2
 87 61 l 2
 102 76 131 96 175 96 c 0
 179 96 183 96 187 96 c 2
 185 500 l 1
 185 530 l 2
 182 529 178 529 175 529 c 0
 153 529 135 554 99 554 c 0xf780
 86 554 73 549 62 541 c 2
 25 504 l 1
 4 525 l 1
 4 525 11 535 22 546 c 2
 92 617 l 2
 93 617 l 0xef80
 107 631 127 646 149 646 c 0
 185 646 203 621 225 621 c 0
 246 621 263 635 270 642 c 2
 275 646 l 1
 296 625 l 2
 296 625 295 624 294 623 c 2
 223 552 l 2
 221 550 219 548 215 545 c 2
 217 111 l 1
 217 92 l 1
 246 87 266 76 279 67 c 1
 279 525 l 1
 400 646 l 1
 512 533 l 1
 625 646 l 1xf780
 771 500 l 1
 771 75 l 1
 800 46 l 1
 850 96 l 1
 871 75 l 1
 750 -46 l 1
 679 25 l 1
 679 450 l 2
 679 506 605 524 575 554 c 1
 533 512 l 1
 546 500 l 1
 546 75 l 1
 575 46 l 1
 625 96 l 1xef80
EndSplineSet
EndChar
StartChar: N
Encoding: 78 78 46
Width: 700
Flags: W
HStem: -45.9619 21G<5.25098 45.251 230.251 270.251 555.251 595.251> 11 84.9619<103.887 185.488> 504.038 21G<5.25098 45.251> 554.038 91.9238<92.6069 160.553>
VStem: 187 30<11 600> 279.038 91.9238<74.749 525.252> 504.038 91.9238<51.1806 444.19>
LayerCount: 2
Back
SplineSet
50 550 m 5
 50 550 83.9875019525 600 124 600 c 7
 160.013671875 600 178 575 200 575 c 7
 228 575 250 600 250.4 600 c 1029
200 550 m 5
 202 61 l 1029
50 0 m 21
 50 0 80.9710205783 50 150 50 c 7
 248.183501669 50 275 0 275 0 c 5
 325 50 l 5
 325 550 l 5
 375 600 l 5
 550 475 l 5
 550 50 l 5
 600 0 l 13
 650 50 l 1053
EndSplineSet
Fore
SplineSet
25.2509765625 504.038085938 m 1
 4.0380859375 525.250976562 l 1
 4.0380859375 525.250976562 10.7294921875 535.094726562 21.6689453125 546.046875 c 0
 92.3798828125 616.7578125 l 0
 92.7080078125 617.0859375 93.1181640625 617.493164062 93.1220703125 617.49609375 c 1
 107.284179688 631.4296875 127.005859375 645.961914062 148.749023438 645.961914062 c 0
 184.762695312 645.961914062 202.748046875 620.961914062 224.749023438 620.961914062 c 0
 245.637695312 620.961914062 263.2734375 635.034179688 270.420898438 641.633789062 c 1
 274.749023438 645.961914062 l 1
 295.961914062 624.749023438 l 1
 295.901367188 624.6796875 295.5390625 624.250976562 294.23828125 622.932617188 c 1
 294.23828125 622.932617188 294.059570312 622.751953125 293.8984375 622.591796875 c 0
 223.1875 551.880859375 l 0
 217.09765625 545.813476562 198.1875 529.038085938 175.250976562 529.038085938 c 0
 153.250976562 529.038085938 135.265625 554.038085938 99.2509765625 554.038085938 c 0
 85.962890625 554.038085938 73.62109375 548.6953125 62.2998046875 541.086914062 c 1
 25.2509765625 504.038085938 l 1
185 600 m 1
 215 600 l 1
 217 111 l 1
 217 11 l 1
 187 11 l 1
 185 500 l 1
 185 600 l 1
25.2509765625 -45.9619140625 m 1
 4.0380859375 -24.7490234375 l 1
 4.0380859375 -24.7490234375 7.98828125 -18.37109375 16.2119140625 -10.171875 c 0
 86.9228515625 60.5390625 l 0
 101.725585938 75.298828125 130.373046875 95.9619140625 174.748046875 95.9619140625 c 0
 228.43359375 95.9619140625 261.541992188 80.4775390625 279.038085938 67.4921875 c 1
 279.038085938 525.251953125 l 1
 399.748046875 645.961914062 l 1
 574.748046875 520.961914062 l 1
 595.961914062 499.749023438 l 1
 595.961914062 74.748046875 l 0
 595.961914062 60.0400390625 616.413085938 54.296875 624.748046875 45.9619140625 c 0
 674.749023438 95.9619140625 l 1
 695.961914062 74.7490234375 l 1
 575.250976562 -45.9619140625 l 1
 504.038085938 25.2509765625 l 1
 504.038085938 444.190429688 l 1
 370.961914062 539.244140625 l 1
 370.961914062 74.7490234375 l 1
 250.250976562 -45.9619140625 l 1
 229.038085938 -24.7490234375 l 1
 229.038085938 -24.7490234375 228.764648438 -24.248046875 228.306640625 -23.5322265625 c 1
 210.096679688 -10.4833984375 177.720703125 4.0380859375 125.250976562 4.0380859375 c 0
 93.033203125 4.0380859375 69.1376953125 -6.8330078125 52.7294921875 -18.4833984375 c 1
 25.2509765625 -45.9619140625 l 1
EndSplineSet
EndChar
StartChar: O
Encoding: 79 79 47
Width: 800
Flags: W
HStem: -45.9619 91.9238<299.628 458.699> 446.038 21G<255.251 295.251> 554.038 91.9238<406.684 512.119> 575.962 20G<431.749 471.749>
VStem: 79.0381 91.9238<198.136 382.917> 285 30<50 600> 379.038 91.9238<124.749 525.252> 607.038 91.9238<215.249 428.323>
LayerCount: 2
Back
SplineSet
300 550 m 1
 300 100 l 1025
427 550 m 1
 425 100 l 1025
300 600 m 5
 300 600 125 480.002777756 125 300 c 7
 125 134 220 0 400 0 c 7
 519 0 653 142 653 300 c 7
 653 512.084888665 561.072265625 600 450 600 c 7
 362.977014531 600 300 492 300.4 492 c 1029
EndSplineSet
Fore
SplineSet
285 600 m 1xcf
 315 600 l 1
 315 50 l 1
 285 50 l 1
 285 600 l 1xcf
451.749023438 595.961914062 m 1xdf
 472.961914062 574.749023438 l 1
 470.961914062 124.749023438 l 1
 400.251953125 54.0380859375 l 1
 379.038085938 75.251953125 l 1
 381.038085938 525.251953125 l 1
 451.749023438 595.961914062 l 1xdf
345.961914062 624.749023438 m 1
 275.251953125 554.038085938 l 1
 275.251953125 554.038085938 267.475585938 548.662109375 255.969726562 539.235351562 c 1
 212.59375 486.213867188 170.961914062 412.876953125 170.961914062 324.749023438 c 0
 170.961914062 240.040039062 195.893554688 163.498046875 243.89453125 109.120117188 c 1
 288.8359375 69.458984375 349.252929688 45.9619140625 424.749023438 45.9619140625 c 0
 464.5859375 45.9619140625 506.259765625 62.0810546875 543.4140625 88.7607421875 c 1
 581.6953125 140.909179688 607.038085938 206.610351562 607.038085938 275.250976562 c 0
 607.038085938 387.74609375 580.779296875 465.803710938 540.263671875 513.39453125 c 1
 507.135742188 541.3671875 467.842773438 554.038085938 425.250976562 554.038085938 c 0
 399.408203125 554.038085938 375.079101562 544.016601562 355.62109375 531.45703125 c 1
 349.2734375 522.444335938 345.986328125 516.791992188 345.961914062 516.749023438 c 1
 275.250976562 446.038085938 l 1
 254.038085938 467.250976562 l 1
 254.038085938 467.250976562 270.258789062 495.068359375 297.610351562 522.467773438 c 0
 368.321289062 593.177734375 l 0
 394.864257812 619.766601562 431.890625 645.961914062 474.748046875 645.961914062 c 0
 522.079101562 645.961914062 565.93359375 629.998046875 600.6796875 595.265625 c 0
 621.892578125 574.052734375 l 0
 668.686523438 527.27734375 698.961914062 446.459960938 698.961914062 324.749023438 c 0
 698.961914062 237.930664062 658.502929688 155.943359375 602.305664062 99.69140625 c 0
 531.594726562 28.98046875 l 0
 485.518554688 -17.140625 428.86328125 -45.9619140625 375.250976562 -45.9619140625 c 0
 293.491210938 -45.9619140625 229.268554688 -18.3154296875 183.520507812 27.41796875 c 0
 162.306640625 48.6318359375 l 0
 107.3359375 103.583984375 79.0380859375 184.651367188 79.0380859375 275.250976562 c 0
 79.0380859375 386.90625 146.372070312 475.47265625 197.506835938 526.633789062 c 0
 268.216796875 597.34375 l 0
 299.518554688 628.661132812 324.749023438 645.961914062 324.749023438 645.961914062 c 1xef
 345.961914062 624.749023438 l 1
EndSplineSet
EndChar
StartChar: P
Encoding: 80 80 48
Width: 700
Flags: W
HStem: -45.9619 21G<5.25098 45.251 230.251 270.251> 4.03809 91.9238<103.759 185.385> 504.038 21G<5.25098 45.251> 554.038 91.9238<92.6069 160.553>
VStem: 187 30<11 600> 279.038 91.9238<74.749 240.708 345.843 525.252> 554.038 91.9238<374.748 440.823>
LayerCount: 2
Back
SplineSet
250 250 m 25
 250 250 306 300 350 300 c 27
 421 300 500 250 500 250 c 1
 600 350 l 1
 600 475 l 1
 375 600 l 1
 325 550 l 1
 325 50 l 1
 275 0 l 1
 275 0 248.183501669 50 150 50 c 3
 80.9710205783 50 50 0 50.2 0 c 1033
50 550 m 1
 50 550 83.9875019525 600 124 600 c 3
 160.013671875 600 178 575 200 575 c 3
 228 575 250 600 250.2 600 c 1025
200 550 m 1
 202 61 l 1025
EndSplineSet
Fore
SplineSet
370.961914062 248.176757812 m 1
 370.961914062 74.7490234375 l 1
 250.250976562 -45.9619140625 l 1
 229.038085938 -24.7490234375 l 1
 229.038085938 -24.7490234375 228.716796875 -24.1748046875 228.306640625 -23.5322265625 c 1
 209.548828125 -10.08984375 177.717773438 4.0380859375 125.250976562 4.0380859375 c 0
 92.69140625 4.0380859375 68.2236328125 -7.482421875 52.7294921875 -18.4833984375 c 1
 25.2509765625 -45.9619140625 l 1
 4.0380859375 -24.7490234375 l 1
 4.0791015625 -24.6826171875 7.6064453125 -18.8828125 15.7236328125 -10.6611328125 c 1
 15.7236328125 -10.6611328125 15.9921875 -10.3916015625 16.2119140625 -10.171875 c 0
 86.9228515625 60.5390625 l 0
 101.725585938 75.298828125 130.373046875 95.9619140625 174.748046875 95.9619140625 c 0
 228.392578125 95.9619140625 261.036132812 80.8515625 279.038085938 67.4921875 c 1
 279.038085938 240.708007812 l 1
 274.915039062 238.615234375 270.803710938 236.350585938 267.013671875 234.120117188 c 0
 243.330078125 220.1796875 225.251953125 204.038085938 225.251953125 204.038085938 c 1
 204.038085938 225.251953125 l 1
 274.749023438 295.961914062 l 1
 274.749023438 295.961914062 276.28125 297.329101562 279.038085938 299.614257812 c 2
 279.038085938 525.251953125 l 1
 399.748046875 645.961914062 l 1
 624.749023438 520.961914062 l 1
 645.961914062 499.749023438 l 1
 645.961914062 374.748046875 l 1
 475.250976562 204.038085938 l 1
 475.250976562 204.038085938 426.380859375 234.973632812 370.961914062 248.176757812 c 1
370.961914062 345.842773438 m 2
 372.232421875 345.920898438 373.499023438 345.961914062 374.749023438 345.961914062 c 0
 377.719726562 345.961914062 380.704101562 345.874023438 383.696289062 345.706054688 c 0
 452.221679688 341.865234375 524.749023438 295.961914062 524.749023438 295.961914062 c 0
 524.846679688 295.899414062 550.934570312 322.147460938 554.038085938 325.250976562 c 1
 554.038085938 440.823242188 l 1
 370.961914062 542.53125 l 1
 370.961914062 345.842773438 l 2
25.2509765625 504.038085938 m 1
 4.0380859375 525.250976562 l 1
 4.0380859375 525.250976562 10.7294921875 535.094726562 21.6689453125 546.046875 c 0
 92.3798828125 616.7578125 l 0
 92.7080078125 617.0859375 93.1181640625 617.493164062 93.1220703125 617.49609375 c 1
 107.284179688 631.4296875 127.005859375 645.961914062 148.749023438 645.961914062 c 0
 184.762695312 645.961914062 202.748046875 620.961914062 224.749023438 620.961914062 c 0
 245.637695312 620.961914062 263.2734375 635.034179688 270.420898438 641.633789062 c 1
 274.749023438 645.961914062 l 1
 295.961914062 624.749023438 l 1
 295.901367188 624.6796875 295.5390625 624.250976562 294.23828125 622.932617188 c 1
 294.23828125 622.932617188 294.059570312 622.751953125 293.8984375 622.591796875 c 0
 223.1875 551.880859375 l 0
 217.09765625 545.813476562 198.1875 529.038085938 175.250976562 529.038085938 c 0
 153.250976562 529.038085938 135.265625 554.038085938 99.2509765625 554.038085938 c 0
 85.962890625 554.038085938 73.62109375 548.6953125 62.2998046875 541.086914062 c 1
 25.2509765625 504.038085938 l 1
185 600 m 1
 215 600 l 1
 217 111 l 1
 217 11 l 1
 187 11 l 1
 185 500 l 1
 185 600 l 1
EndSplineSet
EndChar
StartChar: Q
Encoding: 81 81 49
Width: 800
Flags: W
HStem: -45.9619 91.9238<299.628 458.699 646.413 716.951> -20.9619 91.9238<567.318 643.587> 446.038 21G<255.451 295.451> 446.038 21G<255.451 295.451> 554.038 91.9238<406.805 512.119> 575.962 20G<431.749 471.749>
VStem: 79.0381 91.9238<198.136 382.917> 285 30<50 600> 379.038 91.9238<124.749 525.252> 607.038 91.9238<215.249 428.323>
LayerCount: 2
Back
SplineSet
550 0 m 25
 550 0 565 25 600 25 c 27
 635 25 655 0 690 0 c 27
 718 0 750 50 750.2 50 c 1049
300 550 m 1
 300 100 l 1025
427 550 m 1
 425 100 l 1025
300 600 m 1
 300 600 125 480.002777756 125 300 c 3
 125 134 220 0 400 0 c 3
 519 0 653 142 653 300 c 3
 653 512.084888665 561.072265625 600 450 600 c 3
 362.977014531 600 300 492 300.4 492 c 1025
EndSplineSet
Fore
SplineSet
525.251953125 -45.9619140625 m 1x83c0
 504.038085938 -24.748046875 l 1
 504.038085938 -24.748046875 506.069335938 -21.3642578125 510.37890625 -17.0859375 c 1
 581.08984375 53.625 l 1
 588.494140625 60.974609375 602.625976562 70.9619140625 624.748046875 70.9619140625 c 0x43c0
 659.749023438 70.9619140625 679.749023438 45.9619140625 714.748046875 45.9619140625 c 0
 719.154296875 45.9619140625 723.828125 47.35546875 728.021484375 49.234375 c 1
 774.749023438 95.9619140625 l 1
 795.961914062 74.7490234375 l 1
 795.961914062 74.7490234375 785.9609375 59.1220703125 772.248046875 45.3408203125 c 0
 701.537109375 -25.3701171875 l 0
 690.721679688 -36.240234375 677.59765625 -45.9619140625 665.250976562 -45.9619140625 c 0x83c0
 630.250976562 -45.9619140625 610.250976562 -20.9619140625 575.250976562 -20.9619140625 c 0x43c0
 559.385742188 -20.9619140625 547.748046875 -26.0234375 539.452148438 -31.76171875 c 1
 525.251953125 -45.9619140625 l 1x83c0
285 600 m 1
 315 600 l 1
 315 50 l 1
 285 50 l 1
 285 600 l 1
451.749023438 595.961914062 m 1x07c0
 472.961914062 574.749023438 l 1
 470.961914062 124.749023438 l 1
 400.251953125 54.0380859375 l 1
 379.038085938 75.251953125 l 1
 381.038085938 525.251953125 l 1
 451.749023438 595.961914062 l 1x07c0
345.961914062 624.749023438 m 1
 275.251953125 554.038085938 l 1
 275.251953125 554.038085938 267.475585938 548.662109375 255.969726562 539.235351562 c 1
 212.59375 486.213867188 170.961914062 412.876953125 170.961914062 324.749023438 c 0
 170.961914062 240.040039062 195.893554688 163.498046875 243.89453125 109.120117188 c 1
 288.8359375 69.458984375 349.252929688 45.9619140625 424.749023438 45.9619140625 c 0
 464.5859375 45.9619140625 506.259765625 62.0810546875 543.4140625 88.7607421875 c 1
 581.6953125 140.909179688 607.038085938 206.610351562 607.038085938 275.250976562 c 0
 607.038085938 387.74609375 580.779296875 465.803710938 540.263671875 513.39453125 c 1
 507.135742188 541.3671875 467.842773438 554.038085938 425.250976562 554.038085938 c 0
 399.481445312 554.038085938 375.248046875 544.092773438 355.782226562 531.557617188 c 1
 349.286132812 522.287109375 346.104492188 516.749023438 346.162109375 516.749023438 c 2
 275.451171875 446.038085938 l 1
 254.23828125 467.250976562 l 1
 254.135742188 467.250976562 270.401367188 495.23046875 297.873046875 522.706054688 c 0
 368.583984375 593.416992188 l 0
 395.0859375 619.923828125 432.018554688 645.961914062 474.748046875 645.961914062 c 0
 522.079101562 645.961914062 565.93359375 629.998046875 600.6796875 595.265625 c 0
 621.892578125 574.052734375 l 0
 668.686523438 527.27734375 698.961914062 446.459960938 698.961914062 324.749023438 c 0
 698.961914062 237.930664062 658.502929688 155.943359375 602.305664062 99.69140625 c 0
 531.594726562 28.98046875 l 0
 485.518554688 -17.140625 428.86328125 -45.9619140625 375.250976562 -45.9619140625 c 0
 293.491210938 -45.9619140625 229.268554688 -18.3154296875 183.520507812 27.41796875 c 0
 162.306640625 48.6318359375 l 0
 107.3359375 103.583984375 79.0380859375 184.651367188 79.0380859375 275.250976562 c 0
 79.0380859375 386.90625 146.372070312 475.47265625 197.506835938 526.633789062 c 0
 268.216796875 597.34375 l 0
 299.518554688 628.661132812 324.749023438 645.961914062 324.749023438 645.961914062 c 1xabc0
 345.961914062 624.749023438 l 1
EndSplineSet
EndChar
StartChar: R
Encoding: 82 82 50
Width: 700
Flags: W
HStem: -46 21G<5 45 230 270 555 595> 4 92<103 184> 504 21G<5 45> 554 92<92 160> 554 63<92 121>
VStem: 185 30<96 530> 279 92<75 525> 504 92<51 300>
LayerCount: 2
Back
SplineSet
50 550 m 5
 50 550 84 600 124 600 c 7
 160 600 178 575 200 575 c 7
 228 575 250 600 251 600 c 1029
200 550 m 5
 200 75 l 1029
450 325 m 5
 600 475 l 5
 375 600 l 5
 325 550 l 5
 325 50 l 5
 275 0 l 5
 275 0 248 50 150 50 c 7
 81 50 50 0 50 0 c 1037
500 375 m 5
 550 325 l 5
 550 50 l 5
 600 0 l 13
 650 50 l 1053
EndSplineSet
Fore
SplineSet
425 279 m 1xf7
 404 300 l 1
 548 444 l 1
 371 543 l 1
 371 75 l 1
 250 -46 l 1
 229 -25 l 1
 229 -25 228 -25 228 -24 c 0
 209 -10 177 4 125 4 c 0
 92 4 69 -8 53 -19 c 2
 25 -46 l 1
 4 -25 l 2
 4 -25 8 -19 16 -11 c 2
 16 -10 l 2
 87 61 l 2
 102 76 131 96 175 96 c 0
 179 96 182 96 185 96 c 2
 185 530 l 2
 182 529 178 529 175 529 c 0
 153 529 135 554 99 554 c 0xf7
 86 554 73 549 62 541 c 2
 25 504 l 1
 4 525 l 1
 4 525 11 535 22 546 c 2
 92 617 l 2
 93 617 l 0xef
 107 631 127 646 149 646 c 0
 185 646 203 621 225 621 c 0
 253 621 275 646 276 646 c 2xf7
 297 625 l 1
 226 554 l 2xef
 226 554 222 550 215 545 c 1
 215 93 l 1
 245 88 266 77 279 67 c 1
 279 525 l 1
 400 646 l 1
 625 521 l 1
 646 500 l 1
 546 400 l 1
 596 350 l 1
 596 75 l 2
 596 60 617 54 625 46 c 1
 675 96 l 1
 696 75 l 1
 575 -46 l 1
 504 25 l 1
 504 300 l 1
 475 329 l 1
 425 279 l 1xf7
EndSplineSet
EndChar
StartChar: S
Encoding: 83 83 51
Width: 700
Flags: W
HStem: -45.9619 21G<5.25098 85.251 355.252 495.252> 4.03809 91.9238<130.769 332.118> 504.038 91.9238<339.69 515.79> 550.962 20G<554.655 594.749> 625.962 20G<204.749 324.749 564.749 644.749>
VStem: 554.038 91.9238<124.749 221.675>
LayerCount: 2
Back
SplineSet
550 525 m 29
 123 100 l 1053
450 169 m 5
 100 290 l 13
 150 375 l 1053
600 600 m 5
 600 600 514.327148438 550 450 550 c 7
 379 550 200 600 200 600 c 5
 100 500 l 5
 100 440 l 5
 600 260 l 5
 600 100 l 5
 500 0 l 5
 500 0 270 50 200 50 c 7
 127 50 50 0 50.4 0 c 1029
EndSplineSet
Fore
SplineSet
595.961914062 549.749023438 m 1xdc
 525.250976562 479.038085938 l 0
 98.2509765625 54.0380859375 l 1
 77.0380859375 75.2509765625 l 1
 147.749023438 145.961914062 l 0
 574.749023438 570.961914062 l 1
 595.961914062 549.749023438 l 1xdc
495.961914062 193.749023438 m 1
 425.250976562 123.038085938 l 1
 75.2509765625 244.038085938 l 1
 54.0380859375 265.250976562 l 1
 104.038085938 350.251953125 l 1
 174.749023438 420.961914062 l 1
 195.961914062 399.749023438 l 1
 152.747070312 326.282226562 l 1
 474.749023438 214.961914062 l 1
 495.961914062 193.749023438 l 1
645.961914062 624.749023438 m 1
 575.250976562 554.038085938 l 1
 575.250976562 554.038085938 489.578125 504.038085938 425.250976562 504.038085938 c 0
 354.250976562 504.038085938 175.250976562 554.038085938 175.250976562 554.038085938 c 0
 174.94140625 554.125 149.134765625 527.920898438 145.961914062 524.748046875 c 1
 145.961914062 478.325195312 l 1
 624.749023438 305.961914062 l 1
 645.961914062 284.749023438 l 1
 645.961914062 124.749023438 l 1
 475.251953125 -45.9619140625 l 1
 475.251953125 -45.9619140625 245.250976562 4.0380859375 175.250976562 4.0380859375 c 0
 102.251953125 4.0380859375 25.2509765625 -45.9619140625 25.2509765625 -45.9619140625 c 1
 4.0380859375 -24.7490234375 l 1
 74.7490234375 45.9619140625 l 1
 74.7490234375 45.9619140625 151.749023438 95.9619140625 224.749023438 95.9619140625 c 0
 294.749023438 95.9619140625 524.749023438 45.9619140625 524.749023438 45.9619140625 c 1
 554.038085938 75.2509765625 l 1
 554.038085938 221.674804688 l 1
 75.2509765625 394.038085938 l 1
 54.0380859375 415.250976562 l 1
 54.0380859375 475.250976562 l 1
 224.749023438 645.961914062 l 1
 224.749023438 645.961914062 403.749023438 595.961914062 474.748046875 595.961914062 c 0xec
 539.076171875 595.961914062 624.749023438 645.961914062 624.749023438 645.961914062 c 1
 645.961914062 624.749023438 l 1
EndSplineSet
EndChar
StartChar: T
Encoding: 84 84 52
Width: 700
Flags: W
HStem: -45.9619 91.9238<264.657 409.61> 454.038 91.9238<398.434 469.035> 480 20G<252.288 294.749 404.749 444.749> 554.038 91.9238<212.149 283.376>
VStem: 79.0381 91.9238<151.408 305.647> 260 30<50 500> 354.038 91.9238<124.749 425.252>
LayerCount: 2
Back
SplineSet
275 450 m 1
 275 100 l 1049
400 450 m 1
 400 100 l 1049
250 450 m 1
 250 450 125 356 125 250 c 3
 125 84 214 0 350 0 c 3
 469 0 601 150 601.4 150 c 1049
100 500 m 17
 100 500 180 600 250 600 c 27
 330 600 348 500 428 500 c 19
 505 500 575.099609375 600 575.399609375 600 c 1033
EndSplineSet
Fore
SplineSet
260 500 m 1xbe
 290 500 l 1
 290 50 l 1
 260 50 l 1
 260 500 l 1xbe
424.749023438 495.961914062 m 1
 445.961914062 474.749023438 l 1
 445.961914062 124.749023438 l 1
 375.250976562 54.0380859375 l 1
 354.038085938 75.251953125 l 1
 354.038085938 425.251953125 l 1
 424.749023438 495.961914062 l 1
295.961914062 474.749023438 m 1
 225.250976562 404.038085938 l 1
 225.250976562 404.038085938 224.70703125 403.624023438 224.280273438 403.29296875 c 1
 195.752929688 366.98046875 170.961914062 322.377929688 170.961914062 274.749023438 c 0
 170.961914062 196.313476562 191.194335938 135.715820312 226.2265625 94.474609375 c 1
 264.534179688 62.0283203125 314.911132812 45.9619140625 374.749023438 45.9619140625 c 0
 452.98828125 45.9619140625 537.052734375 111.083007812 584.706054688 154.819335938 c 1
 625.845703125 195.958984375 l 1
 626.563476562 196.654296875 625.442382812 195.962890625 625.848632812 195.961914062 c 1
 647.061523438 174.748046875 l 2
 646.663085938 174.321289062 640.216796875 167.015625 628.114257812 154.884765625 c 1
 556.8828125 83.65234375 l 0
 515.846679688 42.640625 416.709960938 -45.9619140625 325.250976562 -45.9619140625 c 0
 259.543945312 -45.9619140625 204.806640625 -26.353515625 165.778320312 12.63671875 c 0
 144.565429688 33.8505859375 l 0
 102.813476562 75.5615234375 79.0380859375 139.453125 79.0380859375 225.250976562 c 0
 79.0380859375 292.112304688 128.771484375 354.200195312 165.498046875 390.93359375 c 0
 236.208984375 461.64453125 l 0
 257.70703125 483.146484375 274.749023438 495.961914062 274.749023438 495.961914062 c 1
 295.961914062 474.749023438 l 1
75.2509765625 454.038085938 m 1xde
 54.0380859375 475.250976562 l 1
 54.0380859375 475.250976562 64.5791015625 488.426757812 81.3564453125 505.213867188 c 0
 152.06640625 575.924804688 l 0
 152.396484375 576.254882812 152.809570312 576.666015625 152.811523438 576.66796875 c 1
 182.80859375 606.497070312 230.643554688 645.961914062 274.749023438 645.961914062 c 0
 310.344726562 645.961914062 333.666015625 626.1640625 355.635742188 604.186523438 c 0
 376.848632812 582.973632812 l 0
 377.76953125 582.051757812 379.47265625 580.333984375 379.889648438 579.912109375 c 1
 399.827148438 561.108398438 421.392578125 545.961914062 452.749023438 545.961914062 c 0
 479.83984375 545.961914062 506.252929688 558.599609375 528.322265625 574.115234375 c 1
 528.602539062 574.498046875 529.137695312 575.250976562 529.137695312 575.250976562 c 1
 599.848632812 645.961914062 l 1
 621.061523438 624.749023438 l 1
 621.061523438 624.749023438 607.747070312 605.755859375 586.350585938 584.32421875 c 0
 515.639648438 513.61328125 l 0
 487.940429688 485.869140625 446.694335938 454.038085938 403.250976562 454.038085938 c 0
 367.896484375 454.038085938 344.651367188 473.568359375 322.811523438 495.3671875 c 0
 322.599609375 495.579101562 l 0
 322.390625 495.788085938 322.856445312 495.321289062 322.365234375 495.813476562 c 0
 301.151367188 517.02734375 l 0
 300.16015625 518.018554688 298.965820312 519.22265625 298.111328125 520.088867188 c 1
 278.599609375 538.489257812 256.4921875 554.038085938 225.250976562 554.038085938 c 0
 193.560546875 554.038085938 160.3671875 533.96484375 132.0546875 510.840820312 c 1
 75.2509765625 454.038085938 l 1xde
EndSplineSet
EndChar
StartChar: U
Encoding: 85 85 53
Width: 700
Flags: W
HStem: -45.9619 21G<580.251 620.251> 529.038 21G<5.25098 45.251 289.238 387.166 580.252 620.252> 554.038 91.9238<92.6069 249.947> 575 0.961914G<251.619 294.749 404.748 444.748> 650.962 20G<579.749 619.749>
VStem: 79.0381 91.9238<151.408 369.193> 260 30<0 575> 354.038 91.9238<124.749 525.251> 554.038 91.9238<49.748 84.001 95.9619 195.942 195.962 575.251>
LayerCount: 2
Back
SplineSet
400 550 m 1
 400 100 l 1025
575 50 m 25
 625 0 l 25
 675 50 l 1049
575 625 m 25
 625 575 l 1049
600 600 m 9
 600 25 l 1049
250 550 m 1
 250 550 125 466.333076528 125 250 c 3
 125 84 214 0 350 0 c 3
 469 0 601 150 601.2 150 c 1049
50 550 m 1
 50 550 83.9875019525 600 124 600 c 3
 204.024996095 600 227.973839199 575 400 575 c 3
 428 575 450 600 450.200195312 600 c 1025
275 525 m 1
 275 50 l 1025
EndSplineSet
Fore
SplineSet
424.748046875 595.961914062 m 1xcf80
 445.961914062 574.748046875 l 1
 445.961914062 124.749023438 l 1
 375.250976562 54.0380859375 l 1
 354.038085938 75.251953125 l 1
 354.038085938 525.250976562 l 1
 424.748046875 595.961914062 l 1xcf80
529.038085938 25.2509765625 m 1
 599.748046875 95.9619140625 l 1
 649.748046875 45.9619140625 l 0
 699.749023438 95.9619140625 l 1
 720.961914062 74.7490234375 l 1
 600.250976562 -45.9619140625 l 1
 529.038085938 25.2509765625 l 1
529.038085938 600.251953125 m 1
 599.749023438 670.961914062 l 1
 670.961914062 599.749023438 l 1
 600.251953125 529.038085938 l 1
 529.038085938 600.251953125 l 1
624.749023438 645.961914062 m 1xef80
 645.961914062 624.749023438 l 1
 645.961914062 49.748046875 l 1
 575.250976562 -20.9619140625 l 1
 554.038085938 0.2509765625 l 1
 554.038085938 575.250976562 l 1
 624.749023438 645.961914062 l 1xef80
295.961914062 574.749023438 m 1
 249.297851562 528.084960938 l 1
 213.631835938 482.30078125 170.961914062 401.278320312 170.961914062 274.749023438 c 0
 170.961914062 196.313476562 191.194335938 135.715820312 226.2265625 94.474609375 c 1
 264.534179688 62.0283203125 314.911132812 45.9619140625 374.749023438 45.9619140625 c 0
 453.500976562 45.9619140625 538.241210938 112.014648438 585.606445312 155.622070312 c 1
 625.927734375 195.942382812 l 1
 625.943359375 195.958007812 l 1
 626.681640625 196.581054688 625.541992188 195.961914062 625.94921875 195.961914062 c 1
 647.162109375 174.749023438 l 2
 646.291015625 173.817382812 640.092773438 166.84765625 628.504882812 155.229492188 c 1
 627.987304688 154.711914062 l 0
 557.276367188 84.0009765625 l 0
 516.41015625 43.14453125 416.969726562 -45.9619140625 325.250976562 -45.9619140625 c 0
 259.543945312 -45.9619140625 204.806640625 -26.353515625 165.778320312 12.63671875 c 0
 144.565429688 33.8505859375 l 0
 102.813476562 75.5615234375 79.0380859375 139.453125 79.0380859375 225.250976562 c 0
 79.0380859375 381.12890625 143.827148438 468.017578125 180.326171875 504.698242188 c 1
 180.327148438 504.698242188 180.528320312 504.901367188 180.690429688 505.063476562 c 0
 251.401367188 575.7734375 l 0
 265.209960938 589.577148438 274.749023438 595.961914062 274.749023438 595.961914062 c 1
 295.961914062 574.749023438 l 1
25.2509765625 504.038085938 m 1
 4.0380859375 525.250976562 l 1
 4.0380859375 525.250976562 10.7294921875 535.094726562 21.6689453125 546.046875 c 0
 92.3798828125 616.7578125 l 0
 92.7080078125 617.0859375 93.1181640625 617.493164062 93.1220703125 617.49609375 c 1
 107.284179688 631.4296875 127.005859375 645.961914062 148.749023438 645.961914062 c 0
 228.7734375 645.961914062 252.72265625 620.961914062 424.749023438 620.961914062 c 0
 447.415039062 620.961914062 466.198242188 637.444335938 472.310546875 643.333984375 c 1
 474.805664062 645.830078125 l 0
 474.850585938 645.874023438 474.887695312 645.91015625 474.889648438 645.912109375 c 1
 474.9453125 645.963867188 474.943359375 645.961914062 474.94921875 645.961914062 c 1
 496.162109375 624.748046875 l 2
 494.944335938 623.502929688 495.600585938 624.184570312 494.9609375 623.538085938 c 1
 494.9609375 623.538085938 494.814453125 623.389648438 494.673828125 623.25 c 0
 423.963867188 552.5390625 l 0
 418.564453125 547.145507812 399.081054688 529.038085938 375.250976562 529.038085938 c 0
 203.224609375 529.038085938 179.276367188 554.038085938 99.2509765625 554.038085938 c 0
 85.962890625 554.038085938 73.62109375 548.6953125 62.2998046875 541.086914062 c 1
 25.2509765625 504.038085938 l 1
260 575 m 1xdf80
 290 575 l 1
 290 -0 l 1
 260 -0 l 1
 260 575 l 1xdf80
EndSplineSet
EndChar
StartChar: V
Encoding: 86 86 54
Width: 700
Flags: W
HStem: -45.9619 21G<5.45209 45.4512 339.971 370.251> 11 84.9619<103.796 279.273> 504.038 21G<5.25098 45.251> 529.038 91.9238<172.704 236.082> 554.038 91.9238<92.6069 160.553>
VStem: 187 30<11 600> 279.038 91.9238<174.749 525.252> 454.038 91.9238<442.349 501.562> 529.038 91.9238<225.749 380.722>
LayerCount: 2
Back
SplineSet
50 550 m 5
 50 550 83.9875019525 600 124 600 c 7
 160.013671875 600 178 575 200 575 c 7
 228 575 250 600 250.4 600 c 1029
200 550 m 5
 202 61 l 1029
325 150 m 5
 325 550 l 5
 375 600 l 1029
50.2 0 m 21
 50 0 80.9710205783 50 150 50 c 7
 349.022611781 50 375 0 375 0 c 5
 575 201 l 5
 575 415 l 5
 575 415 500 419 500 475 c 7
 500 530 600 600 600.2 600 c 1029
EndSplineSet
Fore
SplineSet
25.2509765625 504.038085938 m 1xee
 4.0380859375 525.250976562 l 1
 4.0380859375 525.250976562 10.7294921875 535.094726562 21.6689453125 546.046875 c 0
 92.3798828125 616.7578125 l 0
 92.7080078125 617.0859375 93.1181640625 617.493164062 93.1220703125 617.49609375 c 1
 107.284179688 631.4296875 127.005859375 645.961914062 148.749023438 645.961914062 c 0xee
 184.762695312 645.961914062 202.748046875 620.961914062 224.749023438 620.961914062 c 0xf6
 247.415039062 620.961914062 266.201171875 637.446289062 272.306640625 643.330078125 c 1
 274.806640625 645.830078125 l 0
 274.850585938 645.875 274.887695312 645.911132812 274.889648438 645.912109375 c 1
 274.9453125 645.96484375 274.943359375 645.961914062 274.94921875 645.961914062 c 1xee
 296.162109375 624.749023438 l 2
 294.9453125 623.502929688 295.6015625 624.185546875 294.9609375 623.538085938 c 1
 294.9609375 623.538085938 294.814453125 623.390625 294.674804688 623.250976562 c 0
 223.963867188 552.540039062 l 0
 218.565429688 547.145507812 199.081054688 529.038085938 175.250976562 529.038085938 c 0xf6
 153.250976562 529.038085938 135.265625 554.038085938 99.2509765625 554.038085938 c 0
 85.962890625 554.038085938 73.62109375 548.6953125 62.2998046875 541.086914062 c 1
 25.2509765625 504.038085938 l 1xee
185 600 m 1
 215 600 l 1
 217 111 l 1
 217 11 l 1
 187 11 l 1
 185 500 l 1
 185 600 l 1
300.250976562 104.038085938 m 1
 279.038085938 125.251953125 l 1
 279.038085938 525.251953125 l 1
 399.748046875 645.961914062 l 1
 420.961914062 624.748046875 l 1
 370.961914062 574.749023438 l 1
 370.961914062 174.749023438 l 1
 300.250976562 104.038085938 l 1
53.3623046875 -18.05078125 m 1
 25.451171875 -45.9619140625 l 1
 4.23828125 -24.748046875 l 1
 4.236328125 -24.748046875 4.23828125 -24.7421875 4.23828125 -24.7421875 c 1
 4.37890625 -24.404296875 8.2490234375 -18.2158203125 16.1494140625 -10.2880859375 c 0
 86.859375 60.4228515625 l 0
 87.0771484375 60.640625 87.349609375 60.912109375 87.3515625 60.9140625 c 1
 102.563476562 75.9365234375 130.901367188 95.9619140625 174.748046875 95.9619140625 c 0
 335.1640625 95.9619140625 383.158203125 63.478515625 395.7421875 50.8759765625 c 0
 400.025390625 46.59375 l 1
 529.038085938 176.250976562 l 1
 529.038085938 372.586914062 l 1xee80
 516.750976562 375.708984375 500.930664062 381.80859375 489.798828125 392.97265625 c 0
 468.5859375 414.185546875 l 0
 460.010742188 422.78515625 454.038085938 434.447265625 454.038085938 450.250976562 c 0
 454.038085938 476.536132812 476.877929688 506.248046875 500.727539062 530.106445312 c 0
 571.4375 600.817382812 l 0
 571.83984375 601.219726562 572.338867188 601.715820312 572.338867188 601.715820312 c 1
 598.6640625 627.801757812 624.612304688 645.866210938 624.749023438 645.961914062 c 1
 645.961914062 624.749023438 l 1
 575.250976562 554.038085938 l 1
 575.139648438 553.959960938 570.951171875 551.044921875 563.415039062 545.209960938 c 1
 553.609375 530.868164062 545.961914062 514.55078125 545.961914062 499.748046875 c 0xef
 545.961914062 490.102539062 548.155273438 482.081054688 551.856445312 475.220703125 c 1
 573.14453125 462.552734375 599.749023438 460.961914062 599.749023438 460.961914062 c 1
 620.961914062 439.749023438 l 1
 620.961914062 225.749023438 l 1xee80
 420.961914062 24.7490234375 l 0
 350.250976562 -45.9619140625 l 1
 339.970703125 -35.681640625 l 1
 320.706054688 -21.296875 266.404296875 4.0380859375 125.250976562 4.0380859375 c 0
 93.517578125 4.0380859375 69.7001953125 -6.6171875 53.3623046875 -18.05078125 c 1
EndSplineSet
EndChar
StartChar: W
Encoding: 87 87 55
Width: 1000
Flags: W
HStem: -46 21G<5 45 340 370 630 670> 4 92<103.818 187 217 300.801> 504 21G<5 45> 554 92<92.5 160.551> 554 63<92 121.608>
VStem: 187 30<96 530> 279 92<175 525> 454 92<442 501.203> 529 92<226 380.941> 754 92<442 501.201> 829 92<226 380.371>
LayerCount: 2
Back
SplineSet
900 600 m 5
 900 600 800 530 800 475 c 7
 800 419 875 415 875 415 c 5
 875 201 l 5
 675 0 l 5
 550 150 l 1053
50 550 m 5
 50 550 83.9875019525 600 124 600 c 7
 160.013671875 600 178 575 200 575 c 7
 228 575 250 600 250.5 600 c 1029
200 550 m 1
 202 61 l 1025
325 150 m 5
 325 550 l 5
 375 600 l 1029
50.2 0 m 21
 50 0 80.9710205783 50 150 50 c 7
 349.022611781 50 375 0 375 0 c 5
 575 201 l 5
 575 415 l 5
 575 415 500 419 500 475 c 7
 500 530 600 600 600.3 600 c 1029
EndSplineSet
Fore
SplineSet
53 -18 m 2xee20
 25 -46 l 1
 4 -25 l 2
 4 -25 8 -18 16 -10 c 2
 87 60 l 2
 87 61 l 0
 102 76 131 96 175 96 c 0
 179 96 183 96 187 96 c 2
 185 500 l 1
 185 530 l 2
 182 529 178 529 175 529 c 0
 153 529 135 554 99 554 c 0xf620
 86 554 73 549 62 541 c 2
 25 504 l 1
 4 525 l 1
 4 525 11 535 22 546 c 2
 92 617 l 2
 93 617 l 0xee20
 107 631 127 646 149 646 c 0
 185 646 203 621 225 621 c 0
 248 621 266 637 272 643 c 2
 275 646 l 2
 296 625 l 1
 296 625 296 625 295 624 c 2
 295 623 l 2
 224 553 l 2
 222 551 219 548 215 545 c 1
 217 111 l 1
 217 95 l 1
 344 90 385 62 396 51 c 2
 400 47 l 1
 529 176 l 1
 529 373 l 1xf6a0
 517 376 501 382 490 393 c 2
 469 414 l 2
 460 423 454 434 454 450 c 0
 454 476 477 506 501 530 c 2
 571 601 l 2
 572 602 l 2
 598 628 625 646 625 646 c 2xf7
 646 625 l 1
 575 554 l 2
 575 554 571 551 563 545 c 0
 553 531 546 515 546 500 c 0xef
 546 490 548 482 552 475 c 1
 573 462 600 461 600 461 c 1
 621 440 l 1
 621 226 l 1
 583 188 l 1
 596 175 l 1
 702 48 l 1
 829 176 l 1
 829 373 l 1xeea0
 817 376 801 381 790 392 c 0
 790 393 l 2
 769 414 l 2
 760 423 754 434 754 450 c 0
 754 476 777 506 801 530 c 2
 871 601 l 2
 897 627 925 646 925 646 c 1xf640
 946 625 l 1
 875 554 l 1
 875 554 870 550 863 545 c 0
 852 530 846 515 846 500 c 0xee40
 846 490 849 481 852 475 c 0
 874 462 900 461 900 461 c 2
 921 440 l 1
 921 226 l 1
 721 25 l 1
 650 -46 l 1
 629 -25 l 1
 512 116 l 1
 421 25 l 1
 350 -46 l 1
 340 -36 l 2
 321 -22 266 4 125 4 c 0
 93 4 69 -7 53 -18 c 2xee20
300 104 m 1
 279 125 l 1
 279 525 l 1
 400 646 l 1
 421 625 l 1
 371 575 l 1
 371 175 l 1
 300 104 l 1
EndSplineSet
EndChar
StartChar: X
Encoding: 88 88 56
Width: 600
Flags: W
HStem: -45.9619 21G<55.251 95.251 455.251 495.252> 254.038 91.9238<298.905 435.689> 279.038 91.9238<164.312 264.249> 504.038 21G<30.251 70.251 480.251 520.251> 625.962 20G<129.749 169.749 479.749 519.749>
LayerCount: 2
Back
SplineSet
100 275 m 25
 100 275 156 325 200 325 c 27
 279 325 321 300 400 300 c 27
 444 300 500 350 500 350 c 1049
550 50 m 25
 500 0 l 17
 125 600 l 9
 75 550 l 1049
50 50 m 25
 100 0 l 17
 475 600 l 9
 525 550 l 1049
EndSplineSet
Fore
SplineSet
54.0380859375 250.250976562 m 1xb8
 124.749023438 320.961914062 l 1
 124.749023438 320.961914062 180.749023438 370.961914062 224.749023438 370.961914062 c 0xb8
 303.749023438 370.961914062 345.749023438 345.961914062 424.749023438 345.961914062 c 0
 468.749023438 345.961914062 524.749023438 395.961914062 524.749023438 395.961914062 c 1
 545.961914062 374.749023438 l 1
 475.251953125 304.038085938 l 1
 475.251953125 304.038085938 419.251953125 254.038085938 375.250976562 254.038085938 c 0xd8
 296.250976562 254.038085938 254.251953125 279.038085938 175.251953125 279.038085938 c 0
 131.250976562 279.038085938 75.2509765625 229.038085938 75.2509765625 229.038085938 c 1
 54.0380859375 250.250976562 l 1xb8
574.749023438 95.9619140625 m 1
 595.961914062 74.748046875 l 1
 475.251953125 -45.9619140625 l 1
 454.038085938 -24.7490234375 l 1
 95.35546875 549.142578125 l 1
 50.2509765625 504.038085938 l 1
 29.0380859375 525.250976562 l 1
 149.749023438 645.961914062 l 1
 170.961914062 624.749023438 l 1
 529.64453125 50.857421875 l 1
 574.749023438 95.9619140625 l 1
4.0380859375 25.2509765625 m 1
 74.7490234375 95.9619140625 l 1
 108.430664062 62.2802734375 l 1
 429.038085938 575.250976562 l 1
 499.749023438 645.961914062 l 1
 570.961914062 574.749023438 l 1
 500.250976562 504.038085938 l 1
 466.569335938 537.719726562 l 1
 145.961914062 24.7490234375 l 1
 75.2509765625 -45.9619140625 l 1
 4.0380859375 25.2509765625 l 1
EndSplineSet
EndChar
StartChar: Y
Encoding: 89 89 57
Width: 700
Flags: W
HStem: -195.962 21G<5.45117 45.4512> -45.9619 91.9238<241.315 375.251> 504.038 21G<5.25098 45.251> 529.038 91.9238<172.704 236.082> 554.038 91.9238<92.6069 160.553>
VStem: 187 30<61 600> 279.038 91.9238<174.749 525.252> 554.038 91.9238<275.749 525.251>
LayerCount: 2
Back
SplineSet
50 550 m 1
 50 550 83.9875019525 600 124 600 c 3
 160.013671875 600 178 575 200 575 c 3
 228 575 250 600 250.2 600 c 1025
200 550 m 1
 202 11 l 1025
325 150 m 1
 325 550 l 1
 375 600 l 1025
550 600 m 1
 600 550 l 1
 600 251 l 1
 400 0 l 1
 400 0 361 0 325 0 c 3
 156 0 50 -150 50.2001953125 -150 c 1025
EndSplineSet
Fore
SplineSet
25.2509765625 504.038085938 m 1xef
 4.0380859375 525.250976562 l 1
 4.0380859375 525.250976562 10.7294921875 535.094726562 21.6689453125 546.046875 c 0
 92.3798828125 616.7578125 l 0
 92.7080078125 617.0859375 93.1181640625 617.493164062 93.1220703125 617.49609375 c 1
 107.284179688 631.4296875 127.005859375 645.961914062 148.749023438 645.961914062 c 0xef
 184.762695312 645.961914062 202.748046875 620.961914062 224.749023438 620.961914062 c 0xf7
 247.415039062 620.961914062 266.201171875 637.446289062 272.306640625 643.330078125 c 1
 274.806640625 645.830078125 l 0
 274.850585938 645.875 274.887695312 645.911132812 274.889648438 645.912109375 c 1
 274.9453125 645.96484375 274.943359375 645.961914062 274.94921875 645.961914062 c 1xef
 296.162109375 624.749023438 l 2
 294.9453125 623.502929688 295.6015625 624.185546875 294.9609375 623.538085938 c 1
 294.9609375 623.538085938 294.814453125 623.390625 294.674804688 623.250976562 c 0
 223.963867188 552.540039062 l 0
 218.565429688 547.145507812 199.081054688 529.038085938 175.250976562 529.038085938 c 0xf7
 153.250976562 529.038085938 135.265625 554.038085938 99.2509765625 554.038085938 c 0
 85.962890625 554.038085938 73.62109375 548.6953125 62.2998046875 541.086914062 c 1
 25.2509765625 504.038085938 l 1xef
185 600 m 1
 215 600 l 1
 217 61 l 1
 217 -39 l 1
 187 -39 l 1
 185 500 l 1
 185 600 l 1
300.250976562 104.038085938 m 1
 279.038085938 125.251953125 l 1
 279.038085938 525.251953125 l 1
 399.748046875 645.961914062 l 1
 420.961914062 624.748046875 l 1
 370.961914062 574.749023438 l 1
 370.961914062 174.749023438 l 1
 300.250976562 104.038085938 l 1
504.038085938 575.250976562 m 1
 574.749023438 645.961914062 l 1
 645.961914062 574.749023438 l 1
 645.961914062 275.749023438 l 1
 445.961914062 24.7490234375 l 1
 375.250976562 -45.9619140625 l 1
 300.250976562 -45.9619140625 l 0
 215.513671875 -45.9619140625 146.779296875 -83.6962890625 99.1806640625 -121.135742188 c 1
 97.1728515625 -123.768554688 96.142578125 -125.250976562 96.162109375 -125.250976562 c 2
 25.451171875 -195.961914062 l 1
 4.23828125 -174.749023438 l 1
 4.1787109375 -174.749023438 16.2626953125 -157.508789062 39.45703125 -134.228515625 c 1
 39.45703125 -134.228515625 39.759765625 -133.924804688 40.00390625 -133.680664062 c 0
 110.71484375 -62.9697265625 l 0
 155.168945312 -18.560546875 238.909179688 45.9619140625 349.749023438 45.9619140625 c 0
 410.380859375 45.9619140625 l 1
 554.038085938 226.250976562 l 1
 554.038085938 525.250976562 l 1
 504.038085938 575.250976562 l 1
EndSplineSet
EndChar
StartChar: Z
Encoding: 90 90 58
Width: 700
Flags: W
HStem: -45.9609 20.999G<5.4502 26.1538 370.251 520.251> 4.03809 91.9238<122.674 416.377> 254.038 91.9238<371.848 485.689> 279.038 91.9238<214.311 300.929> 504.038 91.9238<237.546 528.359> 625.962 20G<104.749 264.749 564.749 644.749>
LayerCount: 2
Back
SplineSet
150 275 m 29
 150 275 206 325 250 325 c 31
 329 325 371 300 450 300 c 31
 494 300 550 350 550.2 350 c 1053
625 100 m 1
 525 0 l 1
 525 0 448 50 200 50 c 3
 127 50 50 0 50.2001953125 0 c 1
 600 600 l 1
 600 600 514.327148438 550 450 550 c 3
 239.807231333 550 100 600 100.2 600 c 1025
EndSplineSet
Fore
SplineSet
104.038085938 250.250976562 m 1xdc
 174.749023438 320.961914062 l 1
 174.749023438 320.961914062 230.749023438 370.961914062 274.748046875 370.961914062 c 0xdc
 353.749023438 370.961914062 395.749023438 345.961914062 474.749023438 345.961914062 c 0
 518.748046875 345.961914062 574.749023438 395.961914062 574.749023438 395.961914062 c 1
 595.961914062 374.749023438 l 1
 525.251953125 304.038085938 l 1
 525.251953125 304.038085938 469.250976562 254.038085938 425.250976562 254.038085938 c 0xec
 346.250976562 254.038085938 304.251953125 279.038085938 225.250976562 279.038085938 c 0
 181.250976562 279.038085938 125.250976562 229.038085938 125.250976562 229.038085938 c 1
 104.038085938 250.250976562 l 1xdc
4.2548828125 -24.7314453125 m 2
 504.430664062 521.114257812 l 1
 478.034179688 511.407226562 450.56640625 504.038085938 425.250976562 504.038085938 c 0
 215.05859375 504.038085938 75.2509765625 554.038085938 75.2509765625 554.038085938 c 1
 54.0380859375 575.250976562 l 1
 124.749023438 645.961914062 l 1
 124.749023438 645.961914062 264.556640625 595.961914062 474.748046875 595.961914062 c 0
 539.076171875 595.961914062 624.749023438 645.961914062 624.749023438 645.961914062 c 1
 645.961914062 624.749023438 l 1
 147.75390625 81.05078125 l 1
 171.387695312 89.3681640625 198.530273438 95.9619140625 224.749023438 95.9619140625 c 0
 472.749023438 95.9619140625 549.749023438 45.9619140625 549.749023438 45.9619140625 c 1
 649.749023438 145.961914062 l 1
 670.961914062 124.749023438 l 1
 500.250976562 -45.9619140625 l 1
 500.250976562 -45.9619140625 423.251953125 4.0380859375 175.250976562 4.0380859375 c 0
 103.022460938 4.0380859375 26.857421875 -44.9267578125 25.4501953125 -45.9609375 c 2
 4.23828125 -24.7490234375 l 1
 3.83203125 -24.7490234375 -1.04296875 -30.1572265625 4.2548828125 -24.7314453125 c 2
EndSplineSet
EndChar
StartChar: bracketleft
Encoding: 91 91 59
Width: 300
Flags: W
HStem: -195.962 91.9238<145.962 225.251> 654.038 91.9238<145.962 225.251>
VStem: 54.0381 91.9238<-104.038 654.038>
LayerCount: 2
Back
SplineSet
250 700 m 25
 100 700 l 25
 100 -150 l 25
 250 -150 l 1033
EndSplineSet
Fore
SplineSet
295.961914062 724.748046875 m 1
 225.250976562 654.038085938 l 1
 145.961914062 654.038085938 l 1
 145.961914062 -104.038085938 l 1
 274.749023438 -104.038085938 l 1
 295.961914062 -125.250976562 l 1
 225.250976562 -195.961914062 l 1
 75.2509765625 -195.961914062 l 1
 54.0380859375 -174.749023438 l 1
 54.0380859375 675.250976562 l 1
 124.749023438 745.961914062 l 1
 274.748046875 745.961914062 l 1
 295.961914062 724.748046875 l 1
EndSplineSet
EndChar
StartChar: backslash
Encoding: 92 92 60
Width: 500
Flags: W
HStem: -195.962 21G<405.251 445.251>
LayerCount: 2
Back
SplineSet
450 -150 m 29
 50 700 l 1049
EndSplineSet
Fore
SplineSet
425.250976562 -195.961914062 m 1
 404.038085938 -174.749023438 l 1
 4.0380859375 675.250976562 l 1
 74.7490234375 745.961914062 l 1
 95.9619140625 724.749023438 l 1
 495.961914062 -125.251953125 l 1
 425.250976562 -195.961914062 l 1
EndSplineSet
EndChar
StartChar: bracketright
Encoding: 93 93 61
Width: 300
Flags: W
HStem: -196 92<75 154> 654 92<75 154>
VStem: 154 92<-104 654>
LayerCount: 2
Back
SplineSet
50 700 m 25
 200 700 l 29
 200 -150 l 29
 50 -150 l 1033
EndSplineSet
Fore
SplineSet
4 675 m 1
 75 746 l 1
 225 746 l 1
 246 725 l 1
 246 -125 l 1
 175 -196 l 1
 25 -196 l 1
 4 -175 l 1
 75 -104 l 1
 154 -104 l 1
 154 654 l 1
 25 654 l 1
 4 675 l 1
EndSplineSet
EndChar
StartChar: asciicircum
Encoding: 94 94 62
Width: 600
Flags: W
HStem: 625.962 20G<304.749 344.749>
LayerCount: 2
Back
SplineSet
100 300 m 25
 300 600 l 25
 500 300 l 1053
EndSplineSet
Fore
SplineSet
75.2509765625 254.038085938 m 1
 54.0380859375 275.250976562 l 1
 254.038085938 575.250976562 l 1
 324.749023438 645.961914062 l 1
 345.961914062 624.749023438 l 1
 545.961914062 324.749023438 l 1
 475.250976562 254.038085938 l 1
 454.038085938 275.250976562 l 1
 283.500976562 531.057617188 l 1
 145.961914062 324.749023438 l 1
 75.2509765625 254.038085938 l 1
EndSplineSet
EndChar
StartChar: underscore
Encoding: 95 95 63
Width: 700
Flags: W
HStem: -196 92<125 575>
LayerCount: 2
Back
SplineSet
100 -150 m 25
 600 -150 l 1053
EndSplineSet
Fore
SplineSet
54 -175 m 1
 125 -104 l 1
 625 -104 l 1
 646 -125 l 1
 575 -196 l 1
 75 -196 l 1
 54 -175 l 1
EndSplineSet
EndChar
StartChar: grave
Encoding: 96 96 64
Width: 400
Flags: W
HStem: 504.038 241.924
VStem: 104.038 241.924
LayerCount: 2
Back
SplineSet
150 700 m 17
 150 600 300 550 300 550 c 1049
EndSplineSet
Fore
SplineSet
174.749023438 745.961914062 m 1
 195.961914062 724.749023438 l 1
 195.961914062 696.766601562 208.376953125 671.76953125 224.94921875 652.162109375 c 1
 269.1171875 614.326171875 324.514648438 596.040039062 324.749023438 595.961914062 c 1
 345.961914062 574.749023438 l 1
 275.250976562 504.038085938 l 1
 275.250976562 504.038085938 208.584960938 526.260742188 164.140625 570.705078125 c 0
 142.926757812 591.91796875 l 0
 120.705078125 614.140625 104.038085938 641.91796875 104.038085938 675.250976562 c 1
 174.749023438 745.961914062 l 1
EndSplineSet
EndChar
StartChar: a
Encoding: 97 97 65
Width: 400
Flags: W
HStem: 425.962 20G<204.748 244.748 304.749 344.749>
VStem: 54.0381 91.9238<68.0424 275.251> 254.038 91.9238<49.749 57.8252 100.251 327.284>
LayerCount: 2
Back
SplineSet
375 50 m 25
 325 0 l 1
 300 25 l 1
 300 400 l 1
 300 400 278 360 250 360 c 0
 222 360 200 400 200 400 c 9
 100 300 l 1
 100 75 l 17
 175 0 l 1
 300 125 l 1049
EndSplineSet
Fore
SplineSet
254.038085938 57.8251953125 m 1
 150.251953125 -45.9619140625 l 1
 54.0380859375 50.251953125 l 1
 54.0380859375 275.250976562 l 1
 224.748046875 445.961914062 l 1
 245.961914062 424.748046875 l 1
 245.961914062 424.748046875 248.764648438 419.665039062 253.53515625 413.243164062 c 1
 259.541992188 409.21484375 267.206054688 405.961914062 274.749023438 405.961914062 c 0
 279.125 405.961914062 283.193359375 406.883789062 287.373046875 408.5859375 c 1
 324.749023438 445.961914062 l 1
 345.961914062 424.749023438 l 1
 345.961914062 49.7490234375 l 1
 349.749023438 45.9619140625 l 1
 399.749023438 95.9619140625 l 1
 420.961914062 74.7490234375 l 1
 300.250976562 -45.9619140625 l 1
 254.038085938 0.2509765625 l 1
 254.038085938 57.8251953125 l 1
254.038085938 327.284179688 m 1
 245.916015625 319.915039062 236.11328125 314.038085938 225.250976562 314.038085938 c 0
 212.952148438 314.038085938 201.810546875 321.755859375 193.182617188 330.411132812 c 0
 172.403320312 351.190429688 l 1
 145.961914062 324.749023438 l 1
 145.961914062 99.7490234375 l 0
 145.961914062 71.3095703125 184.145507812 61.56640625 199.749023438 45.9619140625 c 0
 254.038085938 100.250976562 l 2
 254.038085938 327.284179688 l 1
EndSplineSet
EndChar
StartChar: b
Encoding: 98 98 66
Width: 400
Flags: W
HStem: 425.962 20G<204.748 244.748> 529.038 21G<80.251 120.251> 650.962 20G<79.749 119.749>
VStem: 54.0381 91.9238<84.8899 324.748 367.175 575.251> 254.038 91.9238<124.749 315.109>
LayerCount: 2
Back
SplineSet
75 625 m 29
 125 575 l 1053
100 600 m 13
 100 100 l 29
 200 0 l 29
 300 100 l 29
 300 300 l 29
 200 400 l 5
 100 300 l 1053
EndSplineSet
Fore
SplineSet
29.0380859375 600.250976562 m 1
 99.7490234375 670.961914062 l 1
 170.961914062 599.749023438 l 1
 100.250976562 529.038085938 l 1
 29.0380859375 600.250976562 l 1
145.961914062 367.174804688 m 1
 224.748046875 445.961914062 l 1
 345.961914062 324.748046875 l 1
 345.961914062 124.749023438 l 1
 175.250976562 -45.9619140625 l 1
 54.0380859375 75.2509765625 l 1
 54.0380859375 575.250976562 l 1
 124.749023438 645.961914062 l 1
 145.961914062 624.749023438 l 1
 145.961914062 367.174804688 l 1
145.961914062 324.748046875 m 1
 145.961914062 124.748046875 l 0
 145.961914062 82.5341796875 201.87890625 68.8310546875 224.748046875 45.9619140625 c 0
 254.038085938 75.2509765625 l 1
 254.038085938 275.250976562 l 0
 254.038085938 317.46484375 198.12109375 331.16796875 175.250976562 354.038085938 c 0
 145.961914062 324.748046875 l 1
EndSplineSet
EndChar
StartChar: c
Encoding: 99 99 67
Width: 350
Flags: W
HStem: -46 21G<155 195> 426 20G<205 245> 426 20G<205 245>
VStem: 54 92<85 275>
LayerCount: 2
Back
SplineSet
300 300 m 9
 200 400 l 25
 100 300 l 25
 100 100 l 25
 200 0 l 25
 300 100 l 1041
EndSplineSet
Fore
SplineSet
346 325 m 1xd0
 275 254 l 1
 175 354 l 1
 146 325 l 1
 146 125 l 2
 146 83 202 69 225 46 c 1
 325 146 l 1
 346 125 l 1
 175 -46 l 1
 54 75 l 1
 54 275 l 1
 225 446 l 1
 346 325 l 1xd0
EndSplineSet
EndChar
StartChar: d
Encoding: 100 100 68
Width: 400
Flags: W
HStem: 425.962 20G<204.748 244.748> 504.038 91.9238<150.016 232.464>
VStem: 54.0381 91.9238<84.8899 275.251 569.24 626.947> 254.038 91.9238<124.749 275.251 416.672 480.888>
LayerCount: 2
Back
SplineSet
300 300 m 1
 200 400 l 25
 100 300 l 1
 100 100 l 25
 200 0 l 25
 300 100 l 1
 300 450 l 10
 300 505 244 550 200 550 c 0
 156 550 100 556 100 600 c 27
 100 628 140 650 140.3 650 c 1049
EndSplineSet
Fore
SplineSet
254.038085938 416.671875 m 1
 254.038085938 425.250976562 l 0
 254.038085938 445.959960938 245.547851562 466.114257812 233.572265625 481.618164062 c 1
 215.309570312 495.774414062 194.360351562 504.038085938 175.250976562 504.038085938 c 0
 143.2734375 504.038085938 104.95703125 507.208007812 86.4052734375 525.830078125 c 0
 65.1923828125 547.04296875 l 0
 58.21875 554.043945312 54.0380859375 563.229492188 54.0380859375 575.250976562 c 0
 54.0380859375 587.561523438 61.76953125 598.711914062 70.4345703125 607.342773438 c 0
 141.145507812 678.053710938 l 0
 152.189453125 689.053710938 164.749023438 695.961914062 164.749023438 695.961914062 c 1
 185.961914062 674.749023438 l 1
 148.5859375 637.372070312 l 1
 147.415039062 634.498046875 145.961914062 629.145507812 145.961914062 624.749023438 c 0
 145.961914062 618.543945312 147.002929688 613.333984375 149.075195312 608.3984375 c 1
 168.993164062 598.23828125 199.20703125 595.961914062 224.749023438 595.961914062 c 0
 247.935546875 595.961914062 274.454101562 583.46484375 294.354492188 563.594726562 c 0
 315.568359375 542.380859375 l 0
 333.431640625 524.543945312 345.961914062 500.765625 345.961914062 474.749023438 c 0
 345.961914062 124.749023438 l 1
 175.250976562 -45.9619140625 l 1
 54.0380859375 75.2509765625 l 1
 54.0380859375 275.250976562 l 1
 224.748046875 445.961914062 l 1
 254.038085938 416.671875 l 1
254.038085938 275.250976562 m 1
 175.250976562 354.038085938 l 0
 145.961914062 324.749023438 l 1
 145.961914062 124.748046875 l 0
 145.961914062 82.5341796875 201.87890625 68.8310546875 224.748046875 45.9619140625 c 0
 254.038085938 75.2509765625 l 1
 254.038085938 275.250976562 l 1
EndSplineSet
EndChar
StartChar: e
Encoding: 101 101 69
Width: 400
Flags: W
HStem: 425.962 20G<204.748 244.748>
VStem: 54.0381 91.9238<167.175 275.251>
LayerCount: 2
Back
SplineSet
300 100 m 13
 200 0 l 29
 100 100 l 29
 100 300 l 29
 200 400 l 29
 300 300 l 5
 100 100 l 1053
EndSplineSet
Fore
SplineSet
145.961914062 124.748046875 m 1
 224.748046875 45.9619140625 l 1
 324.749023438 145.961914062 l 1
 345.961914062 124.749023438 l 1
 175.250976562 -45.9619140625 l 1
 54.0380859375 75.2509765625 l 1
 54.0380859375 275.250976562 l 1
 224.748046875 445.961914062 l 1
 345.961914062 324.748046875 l 1
 145.961914062 124.748046875 l 1
145.961914062 167.174804688 m 1
 254.038085938 275.250976562 l 1
 175.250976562 354.038085938 l 1
 145.961914062 324.749023438 l 1
 145.961914062 167.174804688 l 1
EndSplineSet
EndChar
StartChar: f
Encoding: 102 102 70
Width: 300
Flags: W
HStem: -246 92<29.4436 68.3467> -196 92<-82.5 -9.5> 354 92<75 79 171 225> 554 92<263.5 335.5>
VStem: 79 92<-125 354 446 525>
LayerCount: 2
Back
SplineSet
-125 -200 m 17
 -125 -200 -88 -150 -50 -150 c 8
 -19 -150 18 -200 50 -200 c 24
 78 -200 125 -150 125 -150 c 1
 125 550 l 1
 225 650 l 17
 225 650 256 600 300 600 c 24
 328 600 375 650 376.4 650 c 1033
50 400 m 25
 250 400 l 1049
EndSplineSet
Fore
SplineSet
4 375 m 1xb8
 75 446 l 1
 79 446 l 1
 79 525 l 1
 250 696 l 1
 271 675 l 1
 271 675 274 670 279 664 c 0
 291 654 307 646 325 646 c 0
 346 646 376 673 391 687 c 2
 400 696 l 1
 421 675 l 2
 421 675 420 674 417 671 c 2
 346 600 l 2
 334 588 298 554 275 554 c 0
 252 554 232 568 219 581 c 0
 218 582 l 2
 198 602 l 1
 171 575 l 1
 171 446 l 1
 275 446 l 1
 296 425 l 1
 225 354 l 1
 171 354 l 1
 171 -125 l 2
 171 -125 170 -126 167 -129 c 2
 96 -200 l 2
 84 -212 48 -246 25 -246 c 0xb8
 -7 -246 -44 -196 -75 -196 c 0x78
 -90 -196 -105 -204 -117 -213 c 2
 -150 -246 l 1xb8
 -171 -225 l 1
 -171 -225 -165 -217 -155 -207 c 2
 -84 -136 l 2
 -84 -135 l 0
 -69 -120 -47 -104 -25 -104 c 0x78
 6 -104 43 -154 75 -154 c 0
 76 -154 78 -154 79 -154 c 2
 79 354 l 1
 25 354 l 1
 4 375 l 1xb8
EndSplineSet
EndChar
StartChar: g
Encoding: 103 103 71
Width: 400
Flags: W
HStem: -246 92<204.444 243.347> -196 92<92.5 165.5> -46 21G<155 195> 426 20G<205 245 304.459 345> 426 20G<205 245 304.459 345>
VStem: 54 92<85.195 275> 254 92<-125 33 75 327>
AnchorPoint: "abvmark" 225 500 basechar 0
LayerCount: 2
Back
SplineSet
50 -200 m 17
 50 -200 87 -150 125 -150 c 8
 156 -150 193 -200 225 -200 c 24
 253 -200 300 -150 300 -150 c 9
 300 400 l 1
 300 400 278 360 250 360 c 24
 222 360 200 400 200 400 c 1
 100 300 l 25
 100 100 l 25
 200 0 l 25
 300 100 l 1041
EndSplineSet
Fore
SplineSet
254 75 m 1x26
 254 327 l 1
 246 320 236 314 225 314 c 0
 213 314 202 321 193 330 c 2
 172 351 l 1
 146 325 l 1
 146 125 l 2
 146 83 202 69 225 46 c 1
 254 75 l 1x26
254 33 m 1
 175 -46 l 1
 54 75 l 1
 54 275 l 1
 225 446 l 1
 246 425 l 1
 246 425 249 419 254 413 c 0
 260 409 267 406 275 406 c 0
 279 406 283 407 287 409 c 2
 325 446 l 1
 346 425 l 1
 346 -125 l 2
 346 -125 345 -126 342 -129 c 2
 271 -200 l 2
 259 -212 223 -246 200 -246 c 0xb6
 168 -246 131 -196 100 -196 c 0x66
 85 -196 70 -204 58 -213 c 2
 25 -246 l 1xa6
 4 -225 l 1
 4 -225 10 -217 20 -207 c 2
 90 -136 l 2
 91 -135 l 0
 106 -120 128 -104 150 -104 c 0x66
 181 -104 218 -154 250 -154 c 0
 251 -154 253 -154 254 -154 c 2xa6
 254 33 l 1
EndSplineSet
EndChar
StartChar: h
Encoding: 104 104 72
Width: 400
Flags: W
HStem: 425.962 20G<229.749 269.749> 529.038 21G<80.251 120.251> 650.962 20G<79.749 119.749>
VStem: 54.0381 91.9238<49.749 575.251> 254.038 91.9238<49.749 331.958>
LayerCount: 2
Back
SplineSet
275 50 m 29
 325 0 l 1053
75 50 m 29
 125 0 l 1053
75 625 m 29
 125 575 l 1053
100 600 m 13
 100 25 l 1053
300 25 m 29
 300 325 l 29
 225 400 l 5
 100 275 l 1053
EndSplineSet
Fore
SplineSet
229.038085938 25.2509765625 m 1
 299.749023438 95.9619140625 l 1
 370.961914062 24.7490234375 l 1
 300.250976562 -45.9619140625 l 1
 229.038085938 25.2509765625 l 1
29.0380859375 25.2509765625 m 1
 99.7490234375 95.9619140625 l 1
 170.961914062 24.7490234375 l 1
 100.251953125 -45.9619140625 l 1
 29.0380859375 25.2509765625 l 1
29.0380859375 600.250976562 m 1
 99.7490234375 670.961914062 l 1
 170.961914062 599.749023438 l 1
 100.250976562 529.038085938 l 1
 29.0380859375 600.250976562 l 1
124.749023438 645.961914062 m 1
 145.961914062 624.749023438 l 1
 145.961914062 49.7490234375 l 1
 75.2509765625 -20.9619140625 l 1
 54.0380859375 0.251953125 l 1
 54.0380859375 575.250976562 l 1
 124.749023438 645.961914062 l 1
275.250976562 -20.9619140625 m 1
 254.038085938 0.2509765625 l 1
 254.038085938 300.250976562 l 0
 254.038085938 328.690429688 215.854492188 338.43359375 200.250976562 354.038085938 c 0
 75.2509765625 229.038085938 l 1
 54.0380859375 250.250976562 l 1
 249.749023438 445.961914062 l 1
 345.961914062 349.749023438 l 1
 345.961914062 49.7490234375 l 1
 275.250976562 -20.9619140625 l 1
EndSplineSet
EndChar
StartChar: i
Encoding: 105 105 73
Width: 200
Flags: W
HStem: -46 21G<80 120> 426 20G<80 120> 426 20G<80 120> 504 21G<55 95>
VStem: 54 92<50 350>
AnchorPoint: "blwmark" 100 0 basechar 0
LayerCount: 2
Back
SplineSet
100 650 m 25
 150 600 l 25
 100 550 l 1049
75 50 m 25
 125 0 l 25
 175 50 l 1049
125 350 m 25
 75 400 l 25
 25 350 l 1049
100 375 m 9
 100 25 l 1025
EndSplineSet
Fore
SplineSet
146 400 m 1xd8
 171 375 l 1
 146 350 l 1
 146 50 l 1
 150 46 l 1
 200 96 l 1
 221 75 l 1
 100 -46 l 1
 29 25 l 1
 54 50 l 1
 54 350 l 1
 50 354 l 1
 0 304 l 1
 -21 325 l 1
 100 446 l 1
 125 421 l 1
 146 400 l 1xd8
54 625 m 1
 125 696 l 1
 196 625 l 1
 75 504 l 1
 54 525 l 1
 104 575 l 1
 54 625 l 1
EndSplineSet
Substitution2: "Dotless forms-1" dotlessi
EndChar
StartChar: j
Encoding: 106 106 74
Width: 200
Flags: W
HStem: -195.962 21G<5.25098 45.251> 425.962 20G<79.749 119.749> 504.038 21G<55.251 95.251>
VStem: 54.0381 91.9238<-75.251 350.252>
LayerCount: 2
Back
SplineSet
100 650 m 25
 150 600 l 25
 100 550 l 1049
125 350 m 25
 75 400 l 25
 25 350 l 1049
100 375 m 1
 100 -100 l 9
 50 -150 l 1053
EndSplineSet
Fore
SplineSet
54.0380859375 625.250976562 m 1
 124.749023438 695.961914062 l 1
 195.961914062 624.749023438 l 1
 75.2509765625 504.038085938 l 1
 54.0380859375 525.250976562 l 1
 104.038085938 575.250976562 l 1
 54.0380859375 625.250976562 l 1
170.961914062 374.749023438 m 1
 100.250976562 304.038085938 l 1
 50.251953125 354.038085938 l 0
 0.2509765625 304.038085938 l 1
 -20.9619140625 325.250976562 l 1
 99.7490234375 445.961914062 l 1
 170.961914062 374.749023438 l 1
124.749023438 420.961914062 m 1
 145.961914062 399.749023438 l 1
 145.961914062 -75.2509765625 l 1
 25.2509765625 -195.961914062 l 1
 4.0380859375 -174.749023438 l 1
 54.0380859375 -124.749023438 l 1
 54.0380859375 350.251953125 l 1
 124.749023438 420.961914062 l 1
EndSplineSet
EndChar
StartChar: k
Encoding: 107 107 75
Width: 400
Flags: W
HStem: 450.962 20G<279.749 344.749> 529.038 21G<80.251 120.251> 650.962 20G<79.749 119.749>
VStem: 54.0381 91.9238<49.749 575.251> 254.038 91.9238<49.749 169.948 374.749 375.251>
LayerCount: 2
Back
SplineSet
275 425 m 25
 325 375 l 1049
75 625 m 25
 125 575 l 1049
75 625 m 25
 125 575 l 1049
100 200 m 1
 300 350 l 9
 300 400 l 1049
200 275 m 1
 300 200 l 1
 300 25 l 1025
275 50 m 25
 325 0 l 1049
75 50 m 25
 125 0 l 1049
75 625 m 25
 125 575 l 1049
100 600 m 9
 100 25 l 1049
EndSplineSet
Fore
SplineSet
229.038085938 400.250976562 m 1
 299.749023438 470.961914062 l 1
 370.961914062 399.749023438 l 1
 300.250976562 329.038085938 l 1
 229.038085938 400.250976562 l 1
29.0380859375 600.250976562 m 1
 99.7490234375 670.961914062 l 1
 170.961914062 599.749023438 l 1
 100.250976562 529.038085938 l 1
 29.0380859375 600.250976562 l 1
29.0380859375 600.250976562 m 1
 99.7490234375 670.961914062 l 1
 170.961914062 599.749023438 l 1
 100.250976562 529.038085938 l 1
 29.0380859375 600.250976562 l 1
54.0380859375 175.250976562 m 1
 124.749023438 245.961914062 l 1
 254.038085938 342.928710938 l 1
 254.038085938 375.250976562 l 1
 324.749023438 445.961914062 l 1
 345.961914062 424.749023438 l 1
 345.961914062 374.749023438 l 1
 275.250976562 304.038085938 l 1
 75.2509765625 154.038085938 l 1
 54.0380859375 175.250976562 l 1
154.038085938 250.250976562 m 1
 224.749023438 320.961914062 l 1
 324.749023438 245.961914062 l 1
 345.961914062 224.749023438 l 1
 345.961914062 49.7490234375 l 1
 275.250976562 -20.9619140625 l 1
 254.038085938 0.2509765625 l 1
 254.038085938 169.948242188 l 1
 175.251953125 229.038085938 l 1
 154.038085938 250.250976562 l 1
229.038085938 25.2509765625 m 1
 299.749023438 95.9619140625 l 1
 370.961914062 24.7490234375 l 1
 300.250976562 -45.9619140625 l 1
 229.038085938 25.2509765625 l 1
29.0380859375 25.2509765625 m 1
 99.7490234375 95.9619140625 l 1
 170.961914062 24.7490234375 l 1
 100.251953125 -45.9619140625 l 1
 29.0380859375 25.2509765625 l 1
29.0380859375 600.250976562 m 1
 99.7490234375 670.961914062 l 1
 170.961914062 599.749023438 l 1
 100.250976562 529.038085938 l 1
 29.0380859375 600.250976562 l 1
124.749023438 645.961914062 m 1
 145.961914062 624.749023438 l 1
 145.961914062 49.7490234375 l 1
 75.2509765625 -20.9619140625 l 1
 54.0380859375 0.251953125 l 1
 54.0380859375 575.250976562 l 1
 124.749023438 645.961914062 l 1
EndSplineSet
EndChar
StartChar: l
Encoding: 108 108 76
Width: 200
Flags: W
HStem: -46 21G<80 120> 651 20G<80 120>
VStem: 54 92<50 575>
AnchorPoint: "abvmark" 100 750 basechar 0
LayerCount: 2
Back
SplineSet
75 50 m 25
 125 0 l 25
 175 50 l 1049
75 625 m 25
 125 575 l 1049
100 600 m 9
 100 25 l 1049
EndSplineSet
Fore
SplineSet
29 600 m 1
 100 671 l 1
 125 646 l 1
 146 625 l 1
 171 600 l 1
 146 575 l 1
 146 50 l 1
 150 46 l 1
 200 96 l 1
 221 75 l 1
 100 -46 l 1
 29 25 l 1
 54 50 l 1
 54 575 l 1
 29 600 l 1
EndSplineSet
EndChar
StartChar: m
Encoding: 109 109 77
Width: 600
Flags: W
HStem: 425.962 20G<79.749 119.749 229.749 269.749 429.749 469.749>
VStem: 454.038 91.9238<49.749 331.958>
LayerCount: 2
Back
SplineSet
475 50 m 25
 525 0 l 1049
500 25 m 1
 500 325 l 25
 425 400 l 1
 300 275 l 1049
275 50 m 25
 325 0 l 1049
300 25 m 1
 300 325 l 25
 225 400 l 1
 100 275 l 1049
75 50 m 25
 125 0 l 1049
125 350 m 25
 75 400 l 1049
100 375 m 9
 100 25 l 1025
EndSplineSet
Fore
SplineSet
429.038085938 25.251953125 m 1
 499.749023438 95.9619140625 l 1
 570.961914062 24.7490234375 l 1
 500.250976562 -45.9619140625 l 1
 429.038085938 25.251953125 l 1
475.251953125 -20.9619140625 m 1
 454.038085938 0.251953125 l 1
 454.038085938 300.251953125 l 0
 454.038085938 328.690429688 415.85546875 338.434570312 400.250976562 354.038085938 c 0
 275.250976562 229.038085938 l 1
 254.038085938 250.250976562 l 1
 449.749023438 445.961914062 l 1
 545.961914062 349.749023438 l 1
 545.961914062 49.7490234375 l 1
 475.251953125 -20.9619140625 l 1
229.038085938 25.2509765625 m 1
 299.749023438 95.9619140625 l 1
 370.961914062 24.7490234375 l 1
 300.250976562 -45.9619140625 l 1
 229.038085938 25.2509765625 l 1
275.250976562 -20.9619140625 m 1
 254.038085938 0.2509765625 l 1
 254.038085938 300.250976562 l 0
 254.038085938 328.690429688 215.854492188 338.43359375 200.250976562 354.038085938 c 0
 75.2509765625 229.038085938 l 1
 54.0380859375 250.250976562 l 1
 249.749023438 445.961914062 l 1
 345.961914062 349.749023438 l 1
 345.961914062 49.7490234375 l 1
 275.250976562 -20.9619140625 l 1
29.0380859375 25.2509765625 m 1
 99.7490234375 95.9619140625 l 1
 170.961914062 24.7490234375 l 1
 100.251953125 -45.9619140625 l 1
 29.0380859375 25.2509765625 l 1
170.961914062 374.749023438 m 1
 100.250976562 304.038085938 l 1
 29.0380859375 375.250976562 l 1
 99.7490234375 445.961914062 l 1
 170.961914062 374.749023438 l 1
124.749023438 420.961914062 m 1
 145.961914062 399.749023438 l 1
 145.961914062 49.7490234375 l 1
 75.2509765625 -20.9619140625 l 1
 54.0380859375 0.251953125 l 1
 54.0380859375 350.251953125 l 1
 124.749023438 420.961914062 l 1
EndSplineSet
EndChar
StartChar: n
Encoding: 110 110 78
Width: 400
Flags: W
HStem: 425.962 20G<79.749 119.749 229.749 269.749>
VStem: 254.038 91.9238<49.749 331.958>
LayerCount: 2
Back
SplineSet
275 50 m 25
 325 0 l 1049
300 25 m 1
 300 325 l 25
 225 400 l 1
 100 275 l 1049
75 50 m 25
 125 0 l 1049
125 350 m 25
 75 400 l 1049
100 375 m 9
 100 25 l 1025
EndSplineSet
Fore
SplineSet
229.038085938 25.2509765625 m 1
 299.749023438 95.9619140625 l 1
 370.961914062 24.7490234375 l 1
 300.250976562 -45.9619140625 l 1
 229.038085938 25.2509765625 l 1
275.250976562 -20.9619140625 m 1
 254.038085938 0.2509765625 l 1
 254.038085938 300.250976562 l 0
 254.038085938 328.690429688 215.854492188 338.43359375 200.250976562 354.038085938 c 0
 75.2509765625 229.038085938 l 1
 54.0380859375 250.250976562 l 1
 249.749023438 445.961914062 l 1
 345.961914062 349.749023438 l 1
 345.961914062 49.7490234375 l 1
 275.250976562 -20.9619140625 l 1
29.0380859375 25.2509765625 m 1
 99.7490234375 95.9619140625 l 1
 170.961914062 24.7490234375 l 1
 100.251953125 -45.9619140625 l 1
 29.0380859375 25.2509765625 l 1
170.961914062 374.749023438 m 1
 100.250976562 304.038085938 l 1
 29.0380859375 375.250976562 l 1
 99.7490234375 445.961914062 l 1
 170.961914062 374.749023438 l 1
124.749023438 420.961914062 m 1
 145.961914062 399.749023438 l 1
 145.961914062 49.7490234375 l 1
 75.2509765625 -20.9619140625 l 1
 54.0380859375 0.251953125 l 1
 54.0380859375 350.251953125 l 1
 124.749023438 420.961914062 l 1
EndSplineSet
EndChar
StartChar: o
Encoding: 111 111 79
Width: 400
Flags: W
HStem: 425.962 20G<204.748 244.748>
VStem: 54.0381 91.9238<84.8899 275.251> 254.038 91.9238<124.749 315.109>
LayerCount: 2
Back
SplineSet
200 400 m 25
 100 300 l 25
 100 100 l 25
 200 0 l 25
 300 100 l 25
 300 300 l 25
 200 400 l 25
EndSplineSet
Fore
SplineSet
54.0380859375 275.250976562 m 1
 224.748046875 445.961914062 l 1
 345.961914062 324.748046875 l 1
 345.961914062 124.749023438 l 1
 175.250976562 -45.9619140625 l 1
 54.0380859375 75.2509765625 l 1
 54.0380859375 275.250976562 l 1
175.250976562 354.038085938 m 1
 145.961914062 324.749023438 l 1
 145.961914062 124.748046875 l 0
 145.961914062 82.5341796875 201.87890625 68.8310546875 224.748046875 45.9619140625 c 0
 254.038085938 75.2509765625 l 1
 254.038085938 275.250976562 l 0
 254.038085938 317.46484375 198.12109375 331.16796875 175.250976562 354.038085938 c 1
EndSplineSet
EndChar
StartChar: p
Encoding: 112 112 80
Width: 400
Flags: W
HStem: -195.962 21G<55.251 95.251> 4.03809 91.9238<90.5327 161.114> 425.962 20G<79.749 119.749 204.748 244.748>
VStem: 54.0381 91.9238<-125.251 4.03809 52.5186 304.038> 254.038 91.9238<124.749 315.109>
LayerCount: 2
Back
SplineSet
50 0 m 1
 50 0 96 50 125 50 c 0
 154 50 200 0 200 0 c 9
 300 100 l 1
 300 300 l 25
 200 400 l 1
 100 300 l 1049
75 400 m 25
 125 350 l 1049
100 375 m 1
 100 -150 l 1025
EndSplineSet
Fore
SplineSet
25.2509765625 -45.9619140625 m 1
 4.0380859375 -24.7490234375 l 1
 4.0380859375 -24.7490234375 6.171875 -22.4296875 9.810546875 -18.7890625 c 0
 80.521484375 51.9208984375 l 0
 80.7841796875 52.1845703125 81.11328125 52.5126953125 81.1201171875 52.5185546875 c 1
 95.2490234375 66.5498046875 127.4296875 95.9619140625 149.749023438 95.9619140625 c 0
 172.478515625 95.9619140625 205.651367188 65.24609375 218.93359375 51.962890625 c 0
 224.841796875 46.0556640625 l 1
 254.038085938 75.2509765625 l 1
 254.038085938 275.250976562 l 0
 254.038085938 317.46484375 198.12109375 331.16796875 175.250976562 354.038085938 c 0
 75.2509765625 254.038085938 l 1
 54.0380859375 275.250976562 l 1
 224.748046875 445.961914062 l 1
 345.961914062 324.748046875 l 1
 345.961914062 124.749023438 l 1
 175.250976562 -45.9619140625 l 1
 162.875976562 -33.587890625 l 1
 147.193359375 -18.810546875 119.842773438 4.0380859375 100.251953125 4.0380859375 c 0
 80.8134765625 4.0380859375 54.2041015625 -17.99609375 37.6328125 -33.580078125 c 1
 25.2509765625 -45.9619140625 l 1
29.0380859375 375.250976562 m 1
 99.7490234375 445.961914062 l 1
 170.961914062 374.749023438 l 1
 100.250976562 304.038085938 l 1
 29.0380859375 375.250976562 l 1
124.749023438 420.961914062 m 1
 145.961914062 399.749023438 l 1
 145.961914062 -125.250976562 l 1
 75.2509765625 -195.961914062 l 1
 54.0380859375 -174.749023438 l 1
 54.0380859375 350.251953125 l 1
 124.749023438 420.961914062 l 1
EndSplineSet
EndChar
StartChar: q
Encoding: 113 113 81
Width: 400
Flags: W
HStem: -195.962 21G<255.252 295.252> 425.962 20G<204.748 244.748 304.749 344.749>
VStem: 54.0381 91.9238<124.748 275.251> 254.038 91.9238<-125.251 32.8252 75.252 327.282>
LayerCount: 2
Back
SplineSet
300 100 m 9
 200 0 l 25
 100 100 l 25
 100 300 l 25
 200 400 l 1
 200 400 222 360 250 360 c 24
 278 360 300 400 300 400 c 9
 300 -150 l 1049
EndSplineSet
Fore
SplineSet
254.038085938 75.251953125 m 1
 254.038085938 327.282226562 l 1
 245.948242188 320.077148438 235.872070312 314.038085938 225.250976562 314.038085938 c 0
 213.213867188 314.038085938 202.28515625 321.430664062 193.737304688 329.860351562 c 0
 193.524414062 330.072265625 193.466796875 330.12890625 193.25390625 330.33984375 c 1
 193.25390625 330.33984375 193.823242188 329.768554688 193.182617188 330.411132812 c 0
 172.403320312 351.190429688 l 1
 145.961914062 324.749023438 l 1
 145.961914062 124.748046875 l 1
 224.748046875 45.9619140625 l 1
 254.038085938 75.251953125 l 1
254.038085938 32.8251953125 m 1
 175.250976562 -45.9619140625 l 1
 54.0380859375 75.2509765625 l 1
 54.0380859375 275.250976562 l 1
 224.748046875 445.961914062 l 1
 245.961914062 424.748046875 l 1
 245.961914062 424.748046875 248.9453125 419.422851562 253.53515625 413.243164062 c 1
 260.125 408.82421875 267.071289062 405.961914062 274.749023438 405.961914062 c 0
 279.145507812 405.961914062 284.498046875 407.415039062 287.373046875 408.5859375 c 1
 324.749023438 445.961914062 l 1
 345.961914062 424.749023438 l 1
 345.961914062 -125.250976562 l 1
 275.251953125 -195.961914062 l 1
 254.038085938 -174.748046875 l 1
 254.038085938 32.8251953125 l 1
EndSplineSet
EndChar
StartChar: r
Encoding: 114 114 82
Width: 300
Flags: W
HStem: 425.962 20G<79.749 119.749 204.748 244.748>
VStem: 29.0381 266.924
LayerCount: 2
Back
SplineSet
250 350 m 25
 200 400 l 25
 100 300 l 1049
75 50 m 25
 125 0 l 1049
75 400 m 25
 125 350 l 1049
100 375 m 9
 100 25 l 1025
EndSplineSet
Fore
SplineSet
295.961914062 374.748046875 m 1
 225.250976562 304.038085938 l 1
 175.250976562 354.038085938 l 0
 75.2509765625 254.038085938 l 1
 54.0380859375 275.250976562 l 1
 224.748046875 445.961914062 l 1
 295.961914062 374.748046875 l 1
29.0380859375 25.2509765625 m 1
 99.7490234375 95.9619140625 l 1
 170.961914062 24.7490234375 l 1
 100.251953125 -45.9619140625 l 1
 29.0380859375 25.2509765625 l 1
29.0380859375 375.250976562 m 1
 99.7490234375 445.961914062 l 1
 170.961914062 374.749023438 l 1
 100.250976562 304.038085938 l 1
 29.0380859375 375.250976562 l 1
124.749023438 420.961914062 m 1
 145.961914062 399.749023438 l 1
 145.961914062 49.7490234375 l 1
 75.2509765625 -20.9619140625 l 1
 54.0380859375 0.251953125 l 1
 54.0380859375 350.251953125 l 1
 124.749023438 420.961914062 l 1
EndSplineSet
EndChar
StartChar: s
Encoding: 115 115 83
Width: 400
Flags: W
HStem: 4.03809 91.9238<90.415 161.064> 304.038 91.9238<238.439 309.963> 425.962 20G<204.748 244.748 366.077 394.749>
LayerCount: 2
Back
SplineSet
350 400 m 17
 350 400 303 350 275 350 c 24
 231 350 200 400 200 400 c 9
 100 300 l 1
 100 240 l 1
 300 160 l 1
 300 100 l 1
 200 0 l 17
 200 0 154 50 125 50 c 24
 96 50 50 0 50.5 0 c 1025
EndSplineSet
Fore
SplineSet
374.749023438 445.961914062 m 1
 395.961914062 424.749023438 l 1
 395.961914062 424.749023438 394.467773438 423.159179688 391.853515625 420.546875 c 0
 321.142578125 349.836914062 l 0
 309.095703125 337.797851562 273.258789062 304.038085938 250.250976562 304.038085938 c 0
 226.626953125 304.038085938 206.75 318.451171875 193.407226562 331.80078125 c 0
 173.2109375 351.998046875 l 1
 145.961914062 324.749023438 l 1
 145.961914062 277.4765625 l 1
 324.749023438 205.961914062 l 1
 345.961914062 184.749023438 l 1
 345.961914062 124.749023438 l 1
 175.250976562 -45.9619140625 l 1
 162.875976562 -33.587890625 l 1
 146.637695312 -18.2880859375 120.006835938 4.0380859375 100.251953125 4.0380859375 c 0
 80.578125 4.0380859375 53.16015625 -18.978515625 37.6328125 -33.580078125 c 1
 25.2509765625 -45.9619140625 l 1
 4.0380859375 -24.7490234375 l 1
 4.0380859375 -24.7490234375 6.171875 -22.4296875 9.810546875 -18.7890625 c 0
 80.521484375 51.9208984375 l 0
 93.775390625 65.1806640625 126.995117188 95.9619140625 149.749023438 95.9619140625 c 0
 172.379882812 95.9619140625 204.970703125 65.8828125 218.673828125 52.2236328125 c 1
 218.674804688 52.22265625 218.818359375 52.078125 218.93359375 51.962890625 c 0
 224.841796875 46.0556640625 l 1
 254.038085938 75.2509765625 l 1
 254.038085938 122.5234375 l 1
 75.2509765625 194.038085938 l 1
 54.0380859375 215.250976562 l 1
 54.0380859375 275.250976562 l 1
 224.748046875 445.961914062 l 1
 245.961914062 424.748046875 l 1
 245.998046875 424.689453125 248.641601562 420.393554688 253.840820312 413.954101562 c 1
 265.484375 404.740234375 282.09375 395.961914062 299.749023438 395.961914062 c 0
 320.176757812 395.961914062 350.305664062 422.1875 366.077148438 437.291015625 c 1
 374.749023438 445.961914062 l 1
EndSplineSet
EndChar
StartChar: t
Encoding: 116 116 84
Width: 325
Flags: W
HStem: 354.038 91.9238<74.749 225.251> 575.962 20G<129.749 169.749>
VStem: 79.0381 91.9238<51.181 525.251>
LayerCount: 2
Back
SplineSet
50 400 m 25
 250 400 l 1049
125 550 m 1
 125 50 l 1
 175 0 l 1
 275 100 l 1025
EndSplineSet
Fore
SplineSet
4.0380859375 375.250976562 m 1
 74.7490234375 445.961914062 l 1
 274.748046875 445.961914062 l 1
 295.961914062 424.749023438 l 1
 225.250976562 354.038085938 l 1
 25.2509765625 354.038085938 l 1
 4.0380859375 375.250976562 l 1
149.749023438 595.961914062 m 1
 170.961914062 574.749023438 l 1
 170.961914062 74.7490234375 l 0
 170.961914062 60.0400390625 191.413085938 54.2978515625 199.749023438 45.9619140625 c 0
 299.749023438 145.961914062 l 1
 320.961914062 124.749023438 l 1
 150.251953125 -45.9619140625 l 1
 79.0380859375 25.251953125 l 1
 79.0380859375 525.250976562 l 1
 149.749023438 595.961914062 l 1
EndSplineSet
EndChar
StartChar: u
Encoding: 117 117 85
Width: 400
Flags: W
HStem: 425.962 20G<79.749 119.749 279.749 319.749>
VStem: 54.0381 91.9238<68.0424 350.252> 254.038 91.9238<49.749 350.251>
LayerCount: 2
Back
SplineSet
125 350 m 25
 75 400 l 1049
375 50 m 25
 325 0 l 1
 300 25 l 17
 300 375 l 1025
325 350 m 25
 275 400 l 1049
100 375 m 25
 100 75 l 1
 175 0 l 25
 300 125 l 1049
EndSplineSet
Fore
SplineSet
170.961914062 374.749023438 m 1
 100.250976562 304.038085938 l 1
 29.0380859375 375.250976562 l 1
 99.7490234375 445.961914062 l 1
 170.961914062 374.749023438 l 1
399.749023438 95.9619140625 m 1
 420.961914062 74.7490234375 l 1
 300.250976562 -45.9619140625 l 1
 254.038085938 0.2509765625 l 1
 254.038085938 350.250976562 l 1
 324.749023438 420.961914062 l 1
 345.961914062 399.748046875 l 1
 345.961914062 49.7490234375 l 1
 349.749023438 45.9619140625 l 1
 399.749023438 95.9619140625 l 1
370.961914062 374.749023438 m 1
 300.250976562 304.038085938 l 1
 229.038085938 375.250976562 l 1
 299.749023438 445.961914062 l 1
 370.961914062 374.749023438 l 1
124.749023438 420.961914062 m 1
 145.961914062 399.749023438 l 1
 145.961914062 99.7490234375 l 0
 145.961914062 71.3095703125 184.145507812 61.56640625 199.749023438 45.9619140625 c 0
 324.749023438 170.961914062 l 1
 345.961914062 149.749023438 l 1
 150.251953125 -45.9619140625 l 1
 54.0380859375 50.251953125 l 1
 54.0380859375 350.251953125 l 1
 124.749023438 420.961914062 l 1
EndSplineSet
EndChar
StartChar: v
Encoding: 118 118 86
Width: 400
Flags: W
HStem: 425.962 20G<79.749 119.749 305.012 348.749>
VStem: 54.0381 91.9238<84.8899 350.252> 204.038 91.9238<434.666 503.278> 254.038 91.9238<124.749 350.239>
LayerCount: 2
Back
SplineSet
125 350 m 29
 75 400 l 1053
100 375 m 29
 100 100 l 5
 200 0 l 29
 300 100 l 5
 300 375 l 29
 300 375 250 423 250 472 c 12
 250 514.009765625 304 550 304.5 550 c 1053
EndSplineSet
Fore
SplineSet
170.961914062 374.749023438 m 1xc0
 100.250976562 304.038085938 l 1
 29.0380859375 375.250976562 l 1
 99.7490234375 445.961914062 l 1
 170.961914062 374.749023438 l 1xc0
124.749023438 420.961914062 m 1
 145.961914062 399.749023438 l 1
 145.961914062 124.748046875 l 0
 145.961914062 82.5341796875 201.87890625 68.8310546875 224.748046875 45.9619140625 c 0
 254.038085938 75.2509765625 l 1
 254.038085938 350.239257812 l 1xd0
 253.16015625 351.1171875 l 1
 246.319335938 357.9765625 204.038085938 402.13671875 204.038085938 447.250976562 c 0
 204.038085938 469.952148438 219.806640625 490.895507812 234.30078125 505.3515625 c 0
 305.01171875 576.0625 l 0
 317.340820312 588.358398438 328.749023438 595.961914062 328.749023438 595.961914062 c 1
 349.961914062 574.749023438 l 1
 308.142578125 532.928710938 l 1
 301.484375 522.572265625 295.961914062 509.807617188 295.961914062 496.749023438 c 0xe0
 295.961914062 453.3125 335.145507812 410.774414062 344.184570312 401.526367188 c 1
 345.961914062 399.748046875 l 1
 345.961914062 124.749023438 l 1xd0
 175.250976562 -45.9619140625 l 1
 54.0380859375 75.2509765625 l 1
 54.0380859375 350.251953125 l 1
 124.749023438 420.961914062 l 1
EndSplineSet
EndChar
StartChar: w
Encoding: 119 119 87
Width: 600
Flags: W
HStem: 425.962 20G<79.749 119.749 279.749 319.749 505.012 548.749>
VStem: 54.0381 91.9238<84.8899 350.252> 254.038 91.9238<82.5352 350.251> 404.038 91.9238<434.667 503.278> 454.038 91.9238<124.749 350.24>
LayerCount: 2
Back
SplineSet
325 350 m 25
 275 400 l 1049
300 375 m 25
 300 100 l 1
 400 0 l 25
 500 100 l 1
 500 375 l 25
 500 375 450 423 450 472 c 8
 450 514.009765625 504 550 504.3 550 c 1049
125 350 m 25
 75 400 l 1049
100 375 m 25
 100 100 l 1
 200 0 l 25
 300 100 l 1025
EndSplineSet
Fore
SplineSet
370.961914062 374.749023438 m 1xe0
 300.250976562 304.038085938 l 1
 229.038085938 375.250976562 l 1
 299.749023438 445.961914062 l 1
 370.961914062 374.749023438 l 1xe0
324.749023438 420.961914062 m 1
 345.961914062 399.748046875 l 1
 345.961914062 124.749023438 l 0
 345.961914062 82.53515625 401.87890625 68.83203125 424.749023438 45.9619140625 c 0
 454.038085938 75.2509765625 l 1
 454.038085938 350.240234375 l 1xe8
 453.161132812 351.118164062 l 1
 446.319335938 357.9765625 404.038085938 402.13671875 404.038085938 447.250976562 c 0
 404.038085938 469.952148438 419.806640625 490.895507812 434.301757812 505.3515625 c 0
 505.01171875 576.0625 l 0
 517.340820312 588.359375 528.749023438 595.961914062 528.749023438 595.961914062 c 1
 549.961914062 574.749023438 l 1
 508.142578125 532.9296875 l 1
 501.484375 522.572265625 495.961914062 509.807617188 495.961914062 496.748046875 c 0xf0
 495.961914062 453.3125 535.146484375 410.775390625 544.184570312 401.526367188 c 1
 545.961914062 399.749023438 l 1
 545.961914062 124.749023438 l 1xe8
 375.250976562 -45.9619140625 l 1
 254.038085938 75.2509765625 l 1
 254.038085938 350.250976562 l 1
 324.749023438 420.961914062 l 1
170.961914062 374.749023438 m 1
 100.250976562 304.038085938 l 1
 29.0380859375 375.250976562 l 1
 99.7490234375 445.961914062 l 1
 170.961914062 374.749023438 l 1
124.749023438 420.961914062 m 1
 145.961914062 399.749023438 l 1
 145.961914062 124.748046875 l 0
 145.961914062 82.5341796875 201.87890625 68.8310546875 224.748046875 45.9619140625 c 0
 324.749023438 145.961914062 l 1
 345.961914062 124.749023438 l 1
 175.250976562 -45.9619140625 l 1
 54.0380859375 75.2509765625 l 1
 54.0380859375 350.251953125 l 1
 124.749023438 420.961914062 l 1
EndSplineSet
EndChar
StartChar: x
Encoding: 120 120 88
Width: 400
Flags: W
HStem: 129.038 91.9238<203.251 285.076> 179.038 91.9238<115.037 196.749> 425.962 20G<104.749 144.749 304.749 344.749>
VStem: 154.038 91.9238<124.749 275.252>
LayerCount: 2
Back
SplineSet
75 175 m 25
 75 175 122 225 150 225 c 24
 194 225 206 175 250 175 c 24
 278 175 325 225 325.3 225 c 1049
200 300 m 9
 300 400 l 25
 350 350 l 1049
200 100 m 9
 300 0 l 1
 350 50 l 1049
50 350 m 25
 100 400 l 25
 200 300 l 25
 200 100 l 25
 100 0 l 25
 50 50 l 1049
EndSplineSet
Fore
SplineSet
50.2509765625 129.038085938 m 1xb0
 29.0380859375 150.250976562 l 1
 29.0380859375 150.250976562 30.5322265625 151.840820312 33.146484375 154.452148438 c 0
 103.856445312 225.163085938 l 0
 115.904296875 237.202148438 151.741210938 270.961914062 174.749023438 270.961914062 c 0x70
 218.748046875 270.961914062 230.748046875 220.961914062 274.749023438 220.961914062 c 0xb0
 295.403320312 220.961914062 326.326171875 248.165039062 341.078125 262.291015625 c 1
 349.749023438 270.961914062 l 1x70
 370.961914062 249.749023438 l 1
 370.862304688 249.642578125 369.926757812 248.634765625 367.350585938 246.043945312 c 1
 367.350585938 246.043945312 367.084960938 245.778320312 366.854492188 245.547851562 c 0
 296.143554688 174.836914062 l 0
 284.095703125 162.797851562 248.258789062 129.038085938 225.250976562 129.038085938 c 0xb0
 181.250976562 129.038085938 169.250976562 179.038085938 125.250976562 179.038085938 c 0x70
 104.823242188 179.038085938 74.6943359375 152.8125 58.921875 137.708984375 c 1
 50.2509765625 129.038085938 l 1xb0
175.251953125 254.038085938 m 1
 154.038085938 275.251953125 l 1
 324.749023438 445.961914062 l 1
 395.961914062 374.749023438 l 1
 325.250976562 304.038085938 l 1
 275.250976562 354.038085938 l 1
 175.251953125 254.038085938 l 1
154.038085938 75.2509765625 m 1
 224.749023438 145.961914062 l 1
 324.748046875 45.9619140625 l 0
 374.749023438 95.9619140625 l 1
 395.961914062 74.7490234375 l 1
 275.250976562 -45.9619140625 l 1
 154.038085938 75.2509765625 l 1
25.2509765625 304.038085938 m 1
 4.0380859375 325.250976562 l 1
 124.749023438 445.961914062 l 1
 245.961914062 324.749023438 l 1
 245.961914062 124.749023438 l 1
 75.2509765625 -45.9619140625 l 1
 4.0380859375 25.2509765625 l 1
 74.7490234375 95.9619140625 l 1
 124.749023438 45.9619140625 l 1
 154.038085938 75.2509765625 l 1
 154.038085938 275.251953125 l 1
 75.251953125 354.038085938 l 1
 25.2509765625 304.038085938 l 1
EndSplineSet
EndChar
StartChar: y
Encoding: 121 121 89
Width: 400
Flags: W
HStem: -245.962 91.9238<184.251 250.406> -195.962 91.9238<92.832 165.259> 425.962 20G<79.749 119.749 279.749 319.749>
VStem: 54.0381 91.9238<124.748 350.252> 254.038 91.9238<-147.13 350.251>
LayerCount: 2
Back
SplineSet
125 350 m 25
 75 400 l 1049
325 350 m 25
 275 400 l 1049
50 -200 m 17
 50 -200 87 -150 125 -150 c 8
 156.01953125 -150 193 -200 225 -200 c 24
 253 -200 300 -150 300 -150 c 1
 300 375 l 1025
300 100 m 9
 200 0 l 25
 100 100 l 1
 100 375 l 1049
EndSplineSet
Fore
SplineSet
170.961914062 374.749023438 m 1x38
 100.250976562 304.038085938 l 1
 29.0380859375 375.250976562 l 1
 99.7490234375 445.961914062 l 1
 170.961914062 374.749023438 l 1x38
370.961914062 374.749023438 m 1
 300.250976562 304.038085938 l 1
 229.038085938 375.250976562 l 1
 299.749023438 445.961914062 l 1
 370.961914062 374.749023438 l 1
25.2509765625 -245.961914062 m 1xb8
 4.0380859375 -224.749023438 l 1
 4.0380859375 -224.749023438 10.080078125 -216.583984375 19.7890625 -206.852539062 c 0
 90.5 -136.141601562 l 0
 90.8310546875 -135.810546875 91.244140625 -135.399414062 91.248046875 -135.395507812 c 1
 106.05859375 -120.771484375 127.611328125 -104.038085938 149.749023438 -104.038085938 c 0x78
 180.768554688 -104.038085938 217.748046875 -154.038085938 249.749023438 -154.038085938 c 0
 251.0625 -154.038085938 253.369140625 -153.784179688 254.038085938 -153.68359375 c 1
 254.038085938 350.250976562 l 1
 324.749023438 420.961914062 l 1
 345.961914062 399.748046875 l 1
 345.961914062 -125.250976562 l 1
 345.862304688 -125.357421875 344.926757812 -126.365234375 342.350585938 -128.956054688 c 1
 342.350585938 -128.956054688 342.084960938 -129.221679688 341.854492188 -129.452148438 c 0
 271.143554688 -200.163085938 l 0
 259.095703125 -212.202148438 223.258789062 -245.961914062 200.250976562 -245.961914062 c 0xb8
 168.250976562 -245.961914062 131.271484375 -195.961914062 100.250976562 -195.961914062 c 0x78
 85.4130859375 -195.961914062 70.751953125 -203.568359375 58.3232421875 -212.889648438 c 1
 25.2509765625 -245.961914062 l 1xb8
324.749023438 145.961914062 m 1
 345.961914062 124.749023438 l 1
 175.250976562 -45.9619140625 l 1
 54.0380859375 75.2509765625 l 1
 54.0380859375 350.251953125 l 1
 124.749023438 420.961914062 l 1
 145.961914062 399.749023438 l 1
 145.961914062 124.748046875 l 1
 224.748046875 45.9619140625 l 1
 324.749023438 145.961914062 l 1
EndSplineSet
EndChar
StartChar: z
Encoding: 122 122 90
Width: 400
Flags: W
HStem: -245.962 91.9238<184.251 250.463> -195.962 91.9238<92.6982 165.259> 304.038 91.9238<138.587 210.076> 425.962 20G<104.749 144.749 266.077 294.748>
VStem: 254.038 91.9238<-147.13 68.1807>
LayerCount: 2
Back
SplineSet
100 400 m 17
 100 400 131 350 175 350 c 0
 203 350 250 400 250 400 c 1
 300 350 l 1
 150 200 l 1
 300 100 l 1
 300 -150 l 1
 300 -150 253 -200 225 -200 c 0
 193 -200 156.01953125 -150 125 -150 c 16
 87 -150 50 -200 50.5 -200 c 1033
EndSplineSet
Fore
SplineSet
124.749023438 445.961914062 m 1xb8
 145.961914062 424.749023438 l 1
 145.961914062 424.749023438 148.888671875 420.08984375 153.841796875 413.954101562 c 1
 166.08984375 404.260742188 181.940429688 395.961914062 199.749023438 395.961914062 c 0
 220.403320312 395.961914062 251.326171875 423.165039062 266.077148438 437.291015625 c 1
 274.748046875 445.961914062 l 1
 345.961914062 374.749023438 l 1
 200.204101562 228.991210938 l 1
 324.749023438 145.961914062 l 1
 345.961914062 124.749023438 l 1
 345.961914062 -125.250976562 l 1
 345.961914062 -125.250976562 344.467773438 -126.840820312 341.854492188 -129.452148438 c 0
 271.143554688 -200.163085938 l 0
 259.095703125 -212.202148438 223.258789062 -245.961914062 200.250976562 -245.961914062 c 0xb8
 168.250976562 -245.961914062 131.271484375 -195.961914062 100.250976562 -195.961914062 c 0x78
 85.1455078125 -195.961914062 69.7177734375 -204.34375 58.3232421875 -212.889648438 c 1
 25.2509765625 -245.961914062 l 1xb8
 4.0380859375 -224.749023438 l 1
 4.0380859375 -224.749023438 10.080078125 -216.583984375 19.7890625 -206.852539062 c 0
 90.5 -136.141601562 l 0
 104.81640625 -121.79296875 127.104492188 -104.038085938 149.749023438 -104.038085938 c 0x78
 180.768554688 -104.038085938 217.748046875 -154.038085938 249.749023438 -154.038085938 c 0
 251.176757812 -154.038085938 252.0859375 -153.975585938 254.038085938 -153.68359375 c 1
 254.038085938 68.1806640625 l 1
 125.250976562 154.038085938 l 1
 104.038085938 175.250976562 l 1
 254.038085938 325.250976562 l 1
 225.297851562 353.991210938 l 1
 221.142578125 349.8359375 l 0
 209.095703125 337.797851562 173.258789062 304.038085938 150.251953125 304.038085938 c 0
 126.922851562 304.038085938 107.248046875 318.09375 93.9111328125 331.30078125 c 0
 93.69921875 331.512695312 93.5947265625 331.615234375 93.3818359375 331.826171875 c 1
 93.3818359375 331.826171875 94.109375 331.098632812 93.408203125 331.801757812 c 0
 72.1943359375 353.014648438 l 0
 60.6865234375 364.529296875 54.0380859375 375.250976562 54.0380859375 375.250976562 c 1
 124.749023438 445.961914062 l 1xb8
EndSplineSet
EndChar
StartChar: braceleft
Encoding: 123 123 91
Width: 300
Flags: W
HStem: -195.962 21G<185.251 245.251>
VStem: 104.038 91.9238<-64.6445 164.645 374.749 575.251>
LayerCount: 2
Back
SplineSet
250 700 m 25
 150 600 l 1
 150 350 l 29
 50 250 l 29
 150 200 l 29
 150 -100 l 1
 250 -150 l 1049
EndSplineSet
Fore
SplineSet
274.748046875 745.961914062 m 1
 295.961914062 724.748046875 l 1
 195.961914062 624.749023438 l 1
 195.961914062 374.749023438 l 1
 103.033203125 281.819335938 l 1
 174.749023438 245.961914062 l 1
 195.961914062 224.749023438 l 1
 195.961914062 -64.64453125 l 1
 274.749023438 -104.038085938 l 1
 295.961914062 -125.250976562 l 1
 225.250976562 -195.961914062 l 1
 125.250976562 -145.961914062 l 1
 104.038085938 -124.749023438 l 1
 104.038085938 164.64453125 l 1
 25.2509765625 204.038085938 l 1
 4.0380859375 225.250976562 l 1
 104.038085938 325.250976562 l 1
 104.038085938 575.250976562 l 1
 274.748046875 745.961914062 l 1
EndSplineSet
EndChar
StartChar: bar
Encoding: 124 124 92
Width: 250
Flags: W
HStem: -195.962 21G<80.251 120.251>
VStem: 79.0381 91.9238<-125.251 675.251>
LayerCount: 2
Back
SplineSet
125 -150 m 25
 125 700 l 1053
EndSplineSet
Fore
SplineSet
100.250976562 -195.961914062 m 1
 79.0380859375 -174.749023438 l 1
 79.0380859375 675.250976562 l 1
 149.749023438 745.961914062 l 1
 170.961914062 724.749023438 l 1
 170.961914062 -125.250976562 l 1
 100.250976562 -195.961914062 l 1
EndSplineSet
EndChar
StartChar: asciitilde
Encoding: 126 126 94
Width: 700
Flags: W
HStem: 254.038 91.9238<295.185 535.689> 279.038 91.9238<164.312 404.815>
LayerCount: 2
Back
SplineSet
100 275 m 17
 100 275 156 325 200 325 c 27
 317 325 383 300 500 300 c 27
 544 300 600 350 600.1 350 c 1033
EndSplineSet
Fore
SplineSet
54.0380859375 250.250976562 m 1x40
 124.749023438 320.961914062 l 1
 124.749023438 320.961914062 180.749023438 370.961914062 224.749023438 370.961914062 c 0x40
 341.749023438 370.961914062 407.749023438 345.961914062 524.749023438 345.961914062 c 0
 568.748046875 345.961914062 624.748046875 395.961914062 624.748046875 395.961914062 c 1
 645.961914062 374.748046875 l 1
 575.250976562 304.038085938 l 1
 575.250976562 304.038085938 519.250976562 254.038085938 475.250976562 254.038085938 c 0x80
 358.250976562 254.038085938 292.250976562 279.038085938 175.251953125 279.038085938 c 0
 131.250976562 279.038085938 75.2509765625 229.038085938 75.2509765625 229.038085938 c 1
 54.0380859375 250.250976562 l 1x40
EndSplineSet
EndChar
StartChar: exclamdown
Encoding: 161 161 200
Width: 300
Flags: W
HStem: 426 20G<130 170> 426 20G<130 170>
VStem: 94 112<-124.978 151.336> 104 92<-28.5176 175>
LayerCount: 2
Back
SplineSet
175 350 m 29
 125 400 l 1053
175 -150 m 5
 175 -150 161 -120 160 -100 c 28
 152 17 150 200 150 200 c 5
 150 200 147 17 140 -100 c 28
 138 -139 125 -200 125 -200 c 13
 175 -150 l 5
EndSplineSet
Fore
SplineSet
221 -125 m 1x20
 100 -246 l 1
 79 -225 l 1
 79 -225 92 -164 94 -125 c 0x20
 101 -8 104 175 104 175 c 1
 175 246 l 1
 196 225 l 1x10
 196 225 198 42 206 -75 c 0
 207 -95 221 -125 221 -125 c 1x20
221 375 m 1
 150 304 l 1
 79 375 l 1
 150 446 l 1x80
 221 375 l 1
EndSplineSet
EndChar
StartChar: sterling
Encoding: 163 163 203
Width: 550
Flags: W
HStem: -46 21G<5 45.7407 275 395> 4 91<216 313.377> 254 92<247.17 358> 554 92<249.809 310.906 342.357 360.906> 554 67<342.357 376>
VStem: 154 92<125 261 360.744 549.328>
LayerCount: 2
Back
SplineSet
401 600 m 1
 400 600 378 575 350 575 c 3
 328 575 310 600 274 600 c 3
 234 600 200 550 200 550 c 1
 200 100 l 1025
500 101 m 1
 400 0 l 17
 400 0 349 50 150 50 c 3
 81 50 50 0 50 0 c 1033
100 275 m 17
 100 275 140 325 175 325 c 27
 234 325 266 300 325 300 c 27
 360 300 400 350 400 350 c 1033
EndSplineSet
Fore
SplineSet
75 229 m 1xec
 54 250 l 1
 54 250 60 257 68 265 c 2
 138 336 l 2
 142 340 148 345 154 350 c 1
 154 525 l 1
 154 525 161 535 172 546 c 2
 242 617 l 2
 256 631 277 646 299 646 c 0xf4
 335 646 353 621 375 621 c 0xec
 403 621 425 646 426 646 c 2xf4
 447 625 l 1
 376 554 l 2
 375 554 353 529 325 529 c 0
 303 529 285 554 249 554 c 0
 246 554 l 1
 246 366 l 1
 280 359 308 346 350 346 c 0
 366 346 383 357 396 368 c 2
 425 396 l 1
 446 375 l 2
 446 375 441 369 433 360 c 2
 432 360 l 2
 362 289 l 2
 347 274 322 254 300 254 c 0
 279 254 262 257 246 261 c 1
 246 125 l 1
 216 95 l 1
 372 89 419 50 424 46 c 1
 454 76 l 1
 525 147 l 1
 546 126 l 1
 446 25 l 1
 375 -46 l 1
 375 -46 324 4 125 4 c 0
 92 4 69 -8 53 -19 c 2
 25 -46 l 1
 4 -25 l 2
 4 -25 8 -19 16 -11 c 2
 16 -10 l 2
 87 61 l 2
 99 73 121 89 154 94 c 1
 154 279 l 2
 153 279 151 279 150 279 c 0
 134 279 118 269 104 257 c 2
 75 229 l 1xec
EndSplineSet
EndChar
StartChar: currency
Encoding: 164 164 207
Width: 500
Flags: W
HStem: -46 21G<5 45 405 445> 526 20G<230 285.294> 626 20G<55 95 455 495>
VStem: 54 92<234 350> 354 92<250 366>
LayerCount: 2
Back
SplineSet
450 0 m 29
 350 125 l 1053
50 0 m 29
 150 125 l 1053
450 600 m 29
 350 475 l 1053
50 600 m 29
 150 475 l 1053
225 500 m 29
 100 375 l 29
 100 200 l 29
 275 100 l 29
 400 225 l 29
 400 400 l 29
 225 500 l 29
EndSplineSet
Fore
SplineSet
200 454 m 1
 146 400 l 1
 146 234 l 1
 300 146 l 2
 300 146 351 197 354 200 c 2
 354 366 l 1
 200 454 l 1
54 350 m 1
 250 546 l 1
 340 495 l 1
 404 575 l 1
 475 646 l 1
 496 625 l 1
 396 500 l 1
 372 476 l 1
 425 446 l 1
 446 425 l 1
 446 250 l 1
 250 54 l 1
 160 105 l 1
 96 25 l 1
 25 -46 l 1
 4 -25 l 1
 104 100 l 1
 128 124 l 1
 75 154 l 1
 54 175 l 1
 54 350 l 1
75 646 m 1
 96 625 l 1
 196 500 l 1
 125 429 l 1
 104 450 l 1
 4 575 l 1
 75 646 l 1
425 -46 m 1
 404 -25 l 1
 304 100 l 1
 375 171 l 1
 396 150 l 1
 496 25 l 1
 425 -46 l 1
EndSplineSet
EndChar
StartChar: yen
Encoding: 165 165 204
Width: 650
Flags: W
HStem: -196 92<113.17 330.81> -21 92<192 425.89> 504 21G<5 45> 554 92<92.5 153.644> 554 63<92 121.431>
VStem: 154 92<300 546.014> 429 92<-75 -41 55 233 275 550>
LayerCount: 2
Back
SplineSet
50 550 m 1
 50 550 84 600 124 600 c 3
 160 600 178 575 200 575 c 1
 200 275 l 1025
100 200 m 17
 100 200 138 250 175 250 c 3
 310 250 325 150 325 150 c 1
 475 300 l 1025
50 -200 m 17
 50 -200 66 -150 250 -150 c 3
 412 -150 375 -200 375 -200 c 9
 475 -100 l 1
 475 575 l 1025
450 600 m 25
 500 550 l 1049
150 -25 m 17
 150 -25 190 25 225 25 c 27
 342 25 408 0 525 0 c 27
 560 0 600 50 600 50 c 1033
EndSplineSet
Fore
SplineSet
125 -71 m 1xf6
 104 -50 l 1
 104 -50 110 -43 118 -35 c 2
 188 36 l 2
 203 51 228 71 250 71 c 0
 321 71 373 62 429 55 c 1
 429 233 l 1
 300 104 l 1
 279 125 l 1
 279 125 276 149 257 173 c 1
 235 190 200 204 150 204 c 0
 135 204 120 196 107 186 c 2
 75 154 l 1
 54 175 l 1
 54 175 60 184 69 193 c 2
 140 263 l 2
 144 267 149 272 154 276 c 1
 154 535 l 1
 140 542 123 554 99 554 c 0xf6
 86 554 73 549 62 541 c 2
 25 504 l 1
 4 525 l 1
 4 525 11 535 22 546 c 2
 92 617 l 2
 93 617 l 0xee
 107 631 127 646 149 646 c 0
 185 646 203 621 225 621 c 1
 246 600 l 1
 246 300 l 1
 239 293 l 1
 276 287 301 272 318 255 c 2
 339 233 l 2
 348 224 354 215 359 206 c 1
 429 275 l 1
 429 550 l 1
 404 575 l 1
 475 646 l 1
 500 621 l 1
 521 600 l 1
 546 575 l 1
 521 550 l 1
 521 325 l 1
 521 46 l 1
 530 46 540 46 550 46 c 0
 566 46 583 57 596 68 c 2
 625 96 l 1
 646 75 l 2
 646 75 641 69 633 60 c 2
 632 60 l 2
 562 -11 l 2
 552 -21 537 -34 521 -41 c 1
 521 -75 l 1
 350 -246 l 1
 329 -225 l 2
 329 -225 333 -218 332 -210 c 1
 314 -202 282 -196 225 -196 c 0
 116 -196 66 -213 43 -228 c 1
 25 -246 l 1
 4 -225 l 1
 4 -225 6 -221 11 -216 c 2
 81 -145 l 2
 95 -131 141 -104 275 -104 c 0
 353 -104 385 -116 397 -128 c 2
 411 -142 l 1
 429 -125 l 1
 429 -43 l 1
 352 -36 291 -21 200 -21 c 0
 184 -21 168 -31 154 -43 c 2
 125 -71 l 1xf6
EndSplineSet
EndChar
StartChar: brokenbar
Encoding: 166 166 205
Width: 250
Flags: W
HStem: -196 21G<80 120>
VStem: 79 92<-125 175 375 675>
LayerCount: 2
Back
SplineSet
125 -150 m 17
 125 200 l 1025
125 350 m 1
 125 700 l 1033
EndSplineSet
Fore
SplineSet
100 304 m 1
 79 325 l 1
 79 675 l 1
 150 746 l 1
 171 725 l 1
 171 375 l 1
 100 304 l 1
100 -196 m 1
 79 -175 l 1
 79 175 l 1
 150 246 l 1
 171 225 l 1
 171 -125 l 1
 100 -196 l 1
EndSplineSet
EndChar
StartChar: section
Encoding: 167 167 206
Width: 500
Flags: W
HStem: -196 92<119.635 219.487> 604 92<285.133 385.689>
VStem: 54 92<189 275 489 575> 354 92<-75 11 225 311>
LayerCount: 2
Back
SplineSet
200 400 m 25
 100 300 l 25
 100 150 l 25
 400 50 l 25
 400 -100 l 25
 300 -200 l 25
 300 -200 220 -150 163 -150 c 27
 115 -150 50 -200 50 -200 c 1049
450 700 m 25
 450 700 394 650 350 650 c 27
 288 650 200 700 200 700 c 25
 100 600 l 25
 100 450 l 25
 400 350 l 25
 400 200 l 25
 300 100 l 1049
EndSplineSet
Fore
SplineSet
496 725 m 1
 425 654 l 1
 425 654 369 604 325 604 c 0
 263 604 175 654 175 654 c 2
 175 654 149 628 146 625 c 2
 146 489 l 1
 425 396 l 1
 446 375 l 1
 446 225 l 1
 344 123 l 1
 425 96 l 1
 446 75 l 1
 446 -75 l 1
 275 -246 l 1
 275 -246 195 -196 138 -196 c 0
 90 -196 25 -246 25 -246 c 1
 4 -225 l 1
 75 -154 l 1
 75 -154 140 -104 188 -104 c 0
 245 -104 325 -154 325 -154 c 1
 354 -125 l 1
 354 11 l 1
 75 104 l 1
 54 125 l 1
 54 275 l 1
 156 377 l 1
 75 404 l 1
 54 425 l 1
 54 575 l 1
 225 746 l 1
 225 746 313 696 375 696 c 0
 419 696 475 746 475 746 c 1
 496 725 l 1
312 133 m 1
 354 175 l 1
 354 311 l 1
 188 367 l 1
 146 325 l 1
 146 189 l 1
 312 133 l 1
EndSplineSet
EndChar
StartChar: copyright
Encoding: 169 169 221
Width: 700
Flags: W
HStem: -37 74<255.04 472.33> 98 74<379 410.521> 401 74<426.5 470.5> 482 20G<305.667 347 402.5 420 488.909 526> 563 74<227.67 444.96>
VStem: 13 74<205.075 422.454> 177 74<226.826 360.963> 298 24<197 376> 342 74<209 391> 613 74<177.108 394.925>
LayerCount: 2
Back
SplineSet
310 438 m 1
 310 190 l 1025
379 410 m 5
 379 190 l 1029
310 465 m 5
 310 465 214 399 214 300 c 7
 214 208 267 135 366 135 c 7
 431 135 503 218 504 218 c 1029
310 406 m 5
 310 406 362 465 395 465 c 7
 430 465 416 438 448 438 c 7
 474 438 488 465 489 465 c 1029
50 350 m 4
 50 475 175 600 300 600 c 4
 550 600 650 500 650 250 c 4
 650 125 525 0 400 0 c 4
 150 0 50 100 50 350 c 4
50 350 m 0
 50 475 175 600 300 600 c 0
 550 600 650 500 650 250 c 0
 650 125 525 0 400 0 c 4
 150 0 50 100 50 350 c 0
EndSplineSet
Fore
SplineSet
13 331 m 0
 13 393 44 455 91 502 c 2
 148 559 l 2
 195 606 257 637 319 637 c 0
 444 637 532 612 588 556 c 2
 606 538 l 2
 662 482 687 394 687 269 c 0
 687 206 656 144 609 97 c 2
 552 41 l 2
 505 -6 443 -37 381 -37 c 0
 256 -37 168 -12 112 44 c 2
 94 62 l 2
 38 118 13 206 13 331 c 0
87 369 m 0
 87 250 110 167 160 110 c 1
 216 60 301 37 419 37 c 0
 469 37 519 57 561 89 c 1
 592 130 613 181 613 231 c 0
 613 350 590 433 540 490 c 1
 484 540 399 563 281 563 c 0
 231 563 181 543 139 511 c 1
 108 470 87 419 87 369 c 0
291 369 m 1
 273 387 l 1
 273 387 278 392 285 399 c 2
 298 412 l 1
 298 435 l 1
 291 428 l 1
 290 428 l 0
 269 400 251 362 251 319 c 0
 251 274 264 233 288 204 c 0
 291 202 295 199 298 197 c 2
 298 376 l 1
 291 369 l 1
379 428 m 2
 378 428 377 428 376 428 c 0
 360 428 339 414 322 400 c 1
 322 184 l 1
 328 181 335 179 342 177 c 1
 342 391 l 1
 379 428 l 2
379 172 m 2
 381 172 383 172 385 172 c 0
 430 172 479 213 505 237 c 2
 523 254 l 2
 523 255 l 0
 541 237 l 1
 538 234 l 2
 537 232 534 230 531 227 c 2
 474 171 l 2
 452 149 398 98 347 98 c 0
 302 98 266 113 241 138 c 0
 240 138 l 1
 240 139 l 1
 223 156 l 2
 193 186 177 231 177 281 c 0
 177 343 214 391 242 419 c 2
 298 474 l 1
 298 478 l 1
 301 478 l 1
 317 494 329 502 329 502 c 1
 347 484 l 1
 322 460 l 1
 322 437 l 1
 342 456 l 2
 359 473 391 502 414 502 c 0
 426 502 433 498 437 494 c 2
 455 477 l 2
 459 476 461 475 467 475 c 0
 474 475 482 477 487 480 c 2
 508 502 l 2
 526 484 l 2
 524 482 522 478 516 472 c 2
 515 471 l 2
 459 415 l 2
 452 408 442 401 429 401 c 0
 424 401 419 402 416 403 c 2
 416 209 l 1
 379 172 l 2
EndSplineSet
EndChar
StartChar: ordfeminine
Encoding: 170 170 210
Width: 400
Flags: W
HStem: 154 92<75 325>
VStem: 54 92<368.5 575> 254 92<350 358 400 627>
LayerCount: 2
Back
SplineSet
50 200 m 25
 350 200 l 1053
375 350 m 25
 325 300 l 1
 300 325 l 1
 300 700 l 1
 300 700 278 660 250 660 c 0
 222 660 200 700 200 700 c 9
 100 600 l 1
 100 375 l 17
 175 300 l 1
 300 425 l 1049
EndSplineSet
Fore
SplineSet
254 627 m 1
 246 620 236 614 225 614 c 0
 213 614 202 621 193 630 c 2
 172 651 l 1
 146 625 l 1
 146 400 l 2
 146 372 184 362 200 346 c 1
 254 400 l 1
 254 627 l 1
254 358 m 1
 150 254 l 1
 54 350 l 1
 54 575 l 1
 225 746 l 1
 246 725 l 1
 246 725 249 719 254 713 c 0
 260 709 267 706 275 706 c 0
 279 706 283 707 287 709 c 2
 325 746 l 1
 346 725 l 1
 346 350 l 1
 350 346 l 1
 400 396 l 1
 421 375 l 1
 300 254 l 1
 254 300 l 1
 254 358 l 1
4 175 m 1
 75 246 l 1
 375 246 l 1
 396 225 l 1
 325 154 l 1
 25 154 l 1
 4 175 l 1
EndSplineSet
EndChar
StartChar: guillemotleft
Encoding: 171 171 215
Width: 550
Flags: W
LayerCount: 2
Back
SplineSet
475 325 m 21
 475 325 453.459960938 295.372070312 425 275 c 4
 330 207 300 200 300 200 c 5
 300 200 364 174 450 100 c 4
 471.075195312 81.8662109375 500 50 500 50 c 1037
225 325 m 17
 225 325 203.459960938 295.372070312 175 275 c 0
 80 207 50 200 50 200 c 1
 50 200 114 174 200 100 c 0
 221.074883505 81.8657979147 250 50 250 50 c 1033
EndSplineSet
Fore
SplineSet
250 371 m 1
 271 350 l 1
 271 350 262 337 247 322 c 2
 176 251 l 1
 175 250 175 251 174 250 c 0
 167 243 159 235 150 229 c 0
 144 224 135 218 131 215 c 1
 156 199 189 177 225 146 c 0
 232 140 240 132 247 125 c 2
 268 104 l 1
 269 103 l 0
 284 88 296 75 296 75 c 1
 225 4 l 1
 204 25 l 2
 204 25 197 33 187 43 c 0
 183 47 179 51 175 54 c 0
 89 128 25 154 25 154 c 1
 4 175 l 1
 75 246 l 1
 75 246 105 253 200 321 c 1
 250 371 l 1
500 371 m 1
 521 350 l 1
 521 350 512 337 497 322 c 2
 426 251 l 1
 425 250 425 251 424 250 c 0
 417 243 409 235 400 229 c 0
 394 224 385 218 381 215 c 1
 406 199 439 177 475 146 c 0
 482 140 490 132 497 125 c 2
 518 104 l 1
 519 103 l 2
 534 88 546 75 546 75 c 1
 475 4 l 1
 454 25 l 2
 454 25 447 33 437 43 c 0
 433 47 429 51 425 54 c 0
 339 128 275 154 275 154 c 1
 254 175 l 1
 325 246 l 1
 325 246 355 253 450 321 c 1
 500 371 l 1
EndSplineSet
EndChar
StartChar: registered
Encoding: 174 174 222
Width: 700
Flags: W
HStem: -37 74<252.811 472.33> 125 74<216.477 263.376> 428 74<211 259.857> 563 74<227.67 444.96>
VStem: 13 74<205.075 422.454> 264 24<199 415> 308 74<193 288 301 411> 431 74<182 295> 613 74<177.108 394.925>
LayerCount: 2
Back
SplineSet
193 438 m 5
 193 438 212 465 234 465 c 7
 254 465 264 451 276 451 c 7
 291 451 303 465 304 465 c 1029
276 438 m 1
 276 176 l 1025
413 314 m 5
 496 396 l 5
 372 465 l 5
 345 438 l 5
 345 162 l 5
 317 135 l 5
 317 135 302 162 248 162 c 7
 210 162 193 135 193 135 c 1037
441 341 m 5
 468 314 l 5
 468 162 l 5
 496 135 l 13
 523 162 l 1053
50 350 m 4
 50 475 175 600 300 600 c 4
 550 600 650 500 650 250 c 4
 650 125 525 0 400 0 c 4
 150 0 50 100 50 350 c 4
EndSplineSet
Fore
SplineSet
382 301 m 1
 432 351 l 1
 453 372 l 1
 382 411 l 1
 382 301 l 1
87 369 m 0
 87 250 110 167 160 110 c 0
 164 107 167 104 171 101 c 2
 156 116 l 1
 156 116 158 119 162 123 c 2
 219 180 l 2
 227 188 241 198 264 199 c 1
 264 415 l 2
 262 414 259 414 257 414 c 0
 245 414 235 428 215 428 c 0
 207 428 199 425 192 420 c 2
 174 401 l 1
 156 419 l 1
 156 419 159 423 165 429 c 2
 222 486 l 2
 230 494 240 502 253 502 c 0
 273 502 283 488 295 488 c 0
 310 488 322 502 323 502 c 2
 341 484 l 1
 288 432 l 1
 288 198 l 1
 295 197 302 195 308 193 c 1
 308 419 l 1
 391 502 l 1
 515 433 l 1
 533 415 l 1
 478 360 l 1
 505 333 l 1
 505 182 l 1
 515 172 l 1
 515 172 538 195 542 199 c 1
 560 181 l 1
 477 98 l 1
 449 125 l 1
 431 143 l 1
 431 295 l 1
 421 304 l 1
 394 277 l 1
 382 288 l 1
 382 181 l 1
 326 125 l 1
 298 98 l 1
 286 110 l 2
 275 117 258 125 229 125 c 0
 210 125 196 118 188 112 c 2
 174 98 l 1
 230 56 310 37 419 37 c 0
 469 37 519 57 561 89 c 1
 592 130 613 181 613 231 c 0
 613 350 590 433 540 490 c 1
 484 540 399 563 281 563 c 0
 231 563 181 543 139 511 c 1
 108 470 87 419 87 369 c 0
13 331 m 0
 13 393 44 455 91 502 c 2
 148 559 l 2
 195 606 257 637 319 637 c 0
 444 637 532 612 588 556 c 2
 606 538 l 2
 662 482 687 394 687 269 c 0
 687 206 656 144 609 97 c 2
 552 41 l 2
 505 -6 443 -37 381 -37 c 0
 256 -37 168 -12 112 44 c 2
 94 62 l 2
 38 118 13 206 13 331 c 0
EndSplineSet
EndChar
StartChar: degree
Encoding: 176 176 229
Width: 500
Flags: W
HStem: 379 92<213.643 313.194> 679 92<186.806 286.357>
VStem: 54 92<538.643 638.194> 354 92<511.806 611.357>
LayerCount: 2
Back
SplineSet
100 600 m 0
 100 660 165 725 225 725 c 0
 325 725 400 650 400 550 c 4
 400 490 335 425 275 425 c 0
 175 425 100 500 100 600 c 0
EndSplineSet
Fore
SplineSet
54 575 m 0
 54 605 70 636 94 660 c 2
 165 731 l 2
 189 755 220 771 250 771 c 0
 300 771 344 752 375 721 c 2
 396 700 l 2
 427 669 446 625 446 575 c 0
 446 545 430 514 406 490 c 2
 335 419 l 2
 311 395 280 379 250 379 c 0
 200 379 156 398 125 429 c 2
 104 450 l 2
 73 481 54 525 54 575 c 0
146 625 m 0
 146 581 161 541 186 511 c 1
 216 486 256 471 300 471 c 0
 315 471 329 475 343 482 c 1
 349 496 354 510 354 525 c 0
 354 569 339 609 314 639 c 1
 284 664 244 679 200 679 c 0
 185 679 171 675 157 668 c 1
 151 654 146 640 146 625 c 0
EndSplineSet
EndChar
StartChar: acute
Encoding: 180 180 99
Width: 400
Flags: W
HStem: 479 267
VStem: 104 217
LayerCount: 2
Back
SplineSet
275 700 m 21
 275 600 150 525 150 525 c 1053
EndSplineSet
Fore
SplineSet
300 746 m 1
 321 725 l 1
 321 675 289 631 258 600 c 2
 188 529 l 2
 157 498 125 479 125 479 c 1
 104 500 l 1
 175 571 l 2
 175 571 183 577 197 587 c 1
 215 612 229 642 229 675 c 1
 300 746 l 1
EndSplineSet
EndChar
StartChar: micro
Encoding: 181 181 209
Width: 400
Flags: W
HStem: -196 21G<55 95> -46 21G<5 37 167 195 280 320> 426 20G<80 120 280 320> 426 20G<80 120 280 320>
VStem: 54 92<-125 -27 71 350> 254 92<75 350>
LayerCount: 2
Back
SplineSet
100 375 m 1
 100 -150 l 1025
125 350 m 9
 75 400 l 1041
375 50 m 9
 325 0 l 1
 300 25 l 17
 300 375 l 1025
325 350 m 9
 275 400 l 1041
50 0 m 1
 50 0 59.9692380484 25 125 25 c 3
 186 25 200 0 200 0 c 9
 300 100 l 1025
EndSplineSet
Fore
SplineSet
25 -46 m 1xec
 4 -25 l 1
 4 -25 5 -22 8 -19 c 2
 54 27 l 1
 54 350 l 1
 29 375 l 1
 100 446 l 1
 125 421 l 1
 171 375 l 1
 146 350 l 1
 146 71 l 2
 147 71 149 71 150 71 c 0
 195 71 214 57 221 50 c 2
 225 46 l 1
 254 75 l 1
 254 350 l 1
 229 375 l 1
 300 446 l 1
 325 421 l 1
 371 375 l 1
 346 350 l 1
 346 125 l 1
 346 50 l 1
 350 46 l 1
 400 96 l 1
 421 75 l 1
 300 -46 l 1
 254 0 l 1
 254 33 l 1
 175 -46 l 1
 167 -37 l 2
 163 -34 155 -30 146 -27 c 1
 146 -125 l 1
 75 -196 l 1
 54 -175 l 1
 54 -27 l 1
 47 -29 41 -31 37 -34 c 2
 25 -46 l 1xec
EndSplineSet
EndChar
StartChar: periodcentered
Encoding: 183 183 212
Width: 300
Flags: W
HStem: 254 142
VStem: 79 142
LayerCount: 2
Back
SplineSet
125 350 m 29
 175 300 l 1053
EndSplineSet
Fore
SplineSet
79 325 m 1
 150 396 l 1
 221 325 l 1
 150 254 l 1
 79 325 l 1
EndSplineSet
EndChar
StartChar: cedilla
Encoding: 184 184 102
Width: 400
Flags: W
HStem: -221 92<78 193>
LayerCount: 2
Back
SplineSet
200 0 m 25
 175 -25 l 5
 300 -75 l 1
 200 -200 l 1
 200 -200 174 -175 125 -175 c 3
 65 -175 50 -200 50 -200 c 1025
EndSplineSet
Fore
SplineSet
225 46 m 1
 246 25 l 1
 230 9 l 1
 325 -29 l 1
 346 -50 l 1
 246 -175 l 1
 175 -246 l 1
 175 -246 149 -221 100 -221 c 0
 62 -221 41 -232 32 -239 c 2
 25 -246 l 1
 4 -225 l 2
 4 -225 5 -223 7 -221 c 2
 78 -151 l 2
 85 -144 105 -129 150 -129 c 0
 182 -129 205 -140 216 -147 c 1
 246 -109 l 1
 150 -71 l 1
 129 -50 l 1
 225 46 l 1
EndSplineSet
EndChar
StartChar: questiondown
Encoding: 191 191 201
Width: 400
Flags: W
HStem: 426 20G<180 220> 426 20G<180 220>
VStem: 54 92<-113 -25> 154 92<75 175>
LayerCount: 2
Back
SplineSet
300 -50 m 29
 300 -125 l 29
 225 -200 l 29
 100 -150 l 29
 100 0 l 29
 200 50 l 29
 200 200 l 1053
225 350 m 29
 175 400 l 1053
EndSplineSet
Fore
SplineSet
271 375 m 1xb0
 200 304 l 1
 129 375 l 1
 200 446 l 1
 271 375 l 1xb0
325 -4 m 1
 346 -25 l 1
 346 -100 l 1
 200 -246 l 1
 75 -196 l 1
 54 -175 l 1
 54 -25 l 1
 125 46 l 1
 154 61 l 1
 154 175 l 1
 225 246 l 1
 246 225 l 1
 246 75 l 1
 175 4 l 1
 146 -11 l 1
 146 -113 l 1
 250 -154 l 1
 254 -150 l 1
 254 -75 l 1
 325 -4 l 1
EndSplineSet
EndChar
StartChar: AE
Encoding: 198 198 188
Width: 1150
Flags: W
HStem: -46 92<716.767 859.293> 4 92<102.5 180.301> 304 57<237 267.753> 446 21G<655 685> 467 62G<180 218 655 685> 504 92<916 977.56> 526 20G<830 870> 554 92<243 309.5 822.727 891>
VStem: 304 92<394.22 509> 685 30<80 456 529 564> 779 92<125 304 366 475>
AnchorPoint: "abvmark" 600 700 basechar 0
LayerCount: 2
Back
SplineSet
525 550 m 9
 475 600 l 25
 425 550 l 1041
200 300 m 1
 200 300 230 350 300 350 c 3
 427 350 500 250 501 250 c 1025
225 575 m 1
 225 575 235 600 275 600 c 11
 324 600 350 549 350 500 c 3
 350 263 176 75 176 75 c 1025
50 0 m 1
 50 0 81 50 150 50 c 3
 248 50 275 0 275 0 c 1025
500 575 m 1
 525 300 l 1025
825 300 m 25
 825 300 872 350 900 350 c 27
 935 350 915 300 950 300 c 3
 991 300 1025 350 1026 350 c 1049
700 550 m 1
 700 100 l 1025
825 500 m 1
 825 100 l 1025
700 600 m 1
 700 600 525 480 525 300 c 3
 525 134 620 0 800 0 c 3
 919 0 1051 150 1052 150 c 1025
700 492 m 1
 700 492 795 600 855 600 c 3
 919 600 892 550 950 550 c 3
 998 550 1025 600 1026 600 c 1025
EndSplineSet
Fore
SplineSet
675 446 m 1x31e0
 654 467 l 1x28e0
 654 467 663 477 677 491 c 2
 685 499 l 1
 685 564 l 1
 675 554 l 1
 675 554 668 548 656 539 c 0
 613 486 571 413 571 325 c 0
 571 240 596 163 644 109 c 0
 657 98 670 88 685 80 c 1
 685 456 l 1
 675 446 l 1x31e0
850 546 m 1x22e0
 871 525 l 1
 871 366 l 1
 887 380 909 396 925 396 c 0
 932 396 937 394 941 390 c 2
 962 369 l 2
 968 363 970 354 972 346 c 0
 973 346 974 346 975 346 c 0
 991 346 1005 354 1016 362 c 2
 1051 396 l 2
 1072 375 l 1
 1069 372 1064 365 1055 356 c 2
 1054 355 l 2
 984 284 l 2
 970 270 948 254 925 254 c 0
 918 254 914 255 910 259 c 0
 909 260 l 2
 888 281 l 2
 882 287 881 295 878 304 c 0
 878 304 876 304 875 304 c 0
 874 304 872 304 871 304 c 2
 871 125 l 1
 800 54 l 1
 779 75 l 1
 779 275 l 1
 779 475 l 1
 850 546 l 1x22e0
25 -46 m 1xa0e0
 4 -25 l 1
 4 -25 8 -18 16 -10 c 2
 87 61 l 2
 101 75 126 94 166 96 c 1
 198 140 245 213 275 304 c 1
 243 304 221 293 204 282 c 2
 175 254 l 1
 154 275 l 1
 154 275 158 282 166 290 c 2
 237 361 l 2
 238 361 l 0
 250 373 268 387 297 393 c 1
 301 419 304 447 304 475 c 0
 304 500 298 525 285 544 c 1
 275 550 263 554 250 554 c 0
 236 554 226 551 218 547 c 2
 200 529 l 1
 179 550 l 1
 179 550 181 555 186 560 c 2
 257 631 l 2
 264 638 277 646 300 646 c 0
 319 646 333 639 345 627 c 2
 367 606 l 2
 367 605 l 0
 383 589 392 566 395 541 c 1
 500 646 l 1
 525 621 l 1
 546 600 l 1
 571 575 l 1
 550 554 l 1
 557 481 l 1
 571 499 585 514 598 527 c 2
 668 597 l 2
 699 628 725 646 725 646 c 1
 746 625 l 1
 715 594 l 1
 715 529 l 1
 747 562 l 2
 779 594 838 646 880 646 c 0x69e0
 902 646 912 641 920 633 c 2
 942 611 l 2
 945 607 947 604 950 600 c 0
 956 597 964 596 975 596 c 0x24e0
 989 596 1001 600 1011 606 c 2
 1051 646 l 2x21e0
 1072 625 l 2
 1070 623 1064 612 1053 601 c 2
 982 530 l 2
 969 517 950 504 925 504 c 0x24e0
 907 504 897 509 890 516 c 0
 869 537 l 2
 866 540 862 544 860 548 c 0
 853 551 843 554 830 554 c 0
 797 554 755 522 722 493 c 2
 715 486 l 1
 715 66 l 1
 747 53 784 46 825 46 c 0
 908 46 997 119 1043 163 c 2
 1076 196 l 1
 1077 196 l 2
 1098 175 l 1
 1096 173 l 2
 1093 170 1089 166 1081 158 c 2
 1010 86 l 2
 970 46 868 -46 775 -46 c 0
 693 -46 630 -19 584 27 c 2
 562 49 l 2
 520 91 494 147 484 212 c 1
 476 204 l 2
 455 225 l 2
 454 226 452 230 447 235 c 0
 425 255 390 280 344 294 c 1
 293 177 222 100 222 100 c 2
 215 93 l 1
 256 86 279 69 290 58 c 2
 311 37 l 2
 318 30 321 25 321 25 c 1
 250 -46 l 1xa1e0
 229 -25 l 1
 229 -25 228 -25 228 -24 c 0
 210 -11 177 4 125 4 c 0x60e0
 93 4 69 -7 53 -19 c 2
 25 -46 l 1xa0e0
378 390 m 1
 417 381 449 364 473 346 c 1
 454 550 l 1
 450 554 l 1x21e0
 400 504 l 1x24e0
 396 509 l 1
 395 468 388 427 378 390 c 1
EndSplineSet
EndChar
StartChar: Eth
Encoding: 208 208 180
Width: 700
Flags: W
HStem: -46 21G<5 45.7407 335 495> 4 92<103.406 185 215 354.591> 504 21G<5 45> 554 92<92.5 160.551> 554 63<92 121.608>
VStem: 185 30<96 273 371 530> 279 92<175 264.795 363 525> 554 92<126 441>
AnchorPoint: "abvmark" 400 700 basechar 0
LayerCount: 2
Back
SplineSet
50 550 m 1
 50 550 84 600 124 600 c 3
 160 600 178 575 200 575 c 3
 228 575 250 600 251 600 c 1025
200 550 m 1
 200 75 l 1025
325 150 m 1
 325 550 l 1
 375 600 l 1
 600 475 l 1
 600 101 l 1
 500 0 l 17
 500 0 349 50 150 50 c 3
 81 50 50 0 50 0 c 1033
100 275 m 21
 100 275 140 325 175 325 c 31
 254 325 296 300 375 300 c 31
 410 300 450 350 450 350 c 1037
EndSplineSet
Fore
SplineSet
75 229 m 1xf7
 54 250 l 1
 54 250 60 257 68 265 c 2
 138 336 l 2
 150 348 167 362 185 368 c 1
 185 530 l 2
 182 529 178 529 175 529 c 0
 153 529 135 554 99 554 c 0xf7
 86 554 73 549 62 541 c 2
 25 504 l 1
 4 525 l 1
 4 525 11 535 22 546 c 2
 92 617 l 2
 93 617 l 0xef
 107 631 127 646 149 646 c 0
 185 646 203 621 225 621 c 0
 253 621 275 646 276 646 c 2xf7
 297 625 l 1
 226 554 l 2xef
 226 554 222 550 215 545 c 1
 215 371 l 1
 239 370 259 367 279 363 c 1
 279 525 l 1
 400 646 l 1
 625 521 l 1
 646 500 l 1
 646 126 l 1
 546 25 l 1
 475 -46 l 1
 475 -46 324 4 125 4 c 0
 92 4 69 -8 53 -19 c 2
 25 -46 l 1
 4 -25 l 2
 4 -25 8 -19 16 -11 c 2
 16 -10 l 2
 87 61 l 2
 102 76 131 96 175 96 c 0
 178 96 182 96 185 96 c 2
 185 277 l 1
 174 278 162 279 150 279 c 0
 134 279 118 269 104 257 c 2
 75 229 l 1xf7
300 104 m 1
 279 125 l 1
 279 261 l 1
 257 265 237 269 215 273 c 1
 215 95 l 1
 387 89 515 49 524 46 c 1
 554 76 l 1
 554 441 l 1
 371 543 l 1
 371 347 l 1
 380 346 390 346 400 346 c 0
 416 346 433 357 446 368 c 2
 475 396 l 1
 496 375 l 2
 496 375 491 369 483 360 c 2
 482 360 l 2
 412 289 l 2
 402 279 387 266 371 259 c 1
 371 175 l 1
 300 104 l 1
EndSplineSet
EndChar
StartChar: multiply
Encoding: 215 215 223
Width: 600
Flags: W
HStem: 526 20G<105 145 505 545>
LayerCount: 2
Back
SplineSet
500 500 m 25
 100 100 l 1049
100 500 m 25
 500 100 l 1049
EndSplineSet
Fore
SplineSet
54 475 m 1
 125 546 l 1
 325 346 l 1
 525 546 l 1
 546 525 l 1
 346 325 l 1
 546 125 l 1
 475 54 l 1
 275 254 l 1
 75 54 l 1
 54 75 l 1
 254 275 l 1
 54 475 l 1
EndSplineSet
EndChar
StartChar: Oslash
Encoding: 216 216 182
Width: 800
Flags: W
HStem: -46 92<316.767 458.94> 446 21G<255 285> 446 21G<255 285> 626 20G<301.735 345 453.5 498.5 704.773 745>
VStem: 79 92<198.058 383.038> 285 30<80 164 236 456 540 564> 380 92<125 259 301 351 393 525> 607 92<215.141 430.975>
AnchorPoint: "abvmark" 450 700 basechar 0
LayerCount: 2
Back
SplineSet
700 600 m 25
 100 0 l 1049
300 550 m 1
 300 100 l 1025
427 550 m 1
 425 100 l 1025
300 600 m 1
 300 600 125 480 125 300 c 3
 125 134 220 0 400 0 c 3
 519 0 653 142 653 300 c 3
 653 512 561 600 450 600 c 3
 363 600 300 492 300 492 c 1029
EndSplineSet
Fore
SplineSet
725 646 m 1x9f
 746 625 l 1
 654 532 l 1
 682 484 699 416 699 325 c 0
 699 238 658 156 602 100 c 2
 532 29 l 2
 486 -17 429 -46 375 -46 c 0
 293 -46 230 -19 184 27 c 2
 166 45 l 1
 75 -46 l 1
 54 -25 l 1
 146 67 l 1
 102 121 79 194 79 275 c 0
 79 387 147 476 198 527 c 2
 268 597 l 2
 299 628 325 646 325 646 c 1
 346 625 l 1
 315 594 l 1
 315 540 l 1
 368 593 l 2
 395 620 432 646 475 646 c 0
 522 646 566 630 601 595 c 2
 622 574 l 2
 627 569 631 564 636 558 c 1
 725 646 l 1x9f
408 553 m 1
 388 550 371 541 356 531 c 1
 350 522 346 517 346 517 c 2
 315 486 l 1
 315 236 l 1
 380 301 l 1
 381 525 l 1
 408 553 l 1
473 548 m 1
 472 393 l 1
 562 483 l 1
 555 494 548 504 540 513 c 0
 520 530 497 542 473 548 c 1
285 564 m 1
 275 554 l 1
 275 554 268 548 256 539 c 0
 213 486 171 413 171 325 c 0
 171 256 188 192 220 141 c 1
 285 206 l 1
 285 456 l 1
 275 446 l 1xdf
 254 467 l 1xbf
 254 467 265 487 285 509 c 1
 285 564 l 1
285 80 m 1
 285 164 l 1
 238 116 l 2
 240 114 242 111 244 109 c 0
 257 98 270 88 285 80 c 1
315 66 m 1
 347 53 384 46 425 46 c 0
 465 46 506 62 543 89 c 1
 581 141 607 206 607 275 c 0
 607 350 596 410 576 455 c 1
 472 351 l 1
 471 125 l 1
 400 54 l 1
 379 75 l 1
 380 259 l 1
 315 194 l 1
 315 66 l 1
EndSplineSet
EndChar
StartChar: ae
Encoding: 230 230 189
Width: 600
Flags: W
HStem: -46 21G<130 170 355.177 395> 426 20G<180 300 405 445> 426 20G<180 300 405 445>
VStem: 54 92<100 150> 254 92<167 179 272 325>
AnchorPoint: "abvmark" 300 500 basechar 0
LayerCount: 2
Back
SplineSet
125 250 m 17
 100 325 l 1
 175 400 l 1
 300 375 l 1
 300 125 l 9
 175 0 l 1
 100 75 l 1
 100 175 l 1
 175 250 l 1
 175 250 193.964297096 225 250 225 c 3
 269.004218286 225 300 225 300 225 c 1033
300 100 m 1
 500 300 l 1
 400 400 l 25
 300 300 l 25
 300 100 l 25
 400 0 l 25
 500 100 l 1041
EndSplineSet
Fore
SplineSet
346 125 m 1xd8
 425 46 l 1
 525 146 l 1
 546 125 l 1
 375 -46 l 1
 263 67 l 1
 150 -46 l 1
 54 50 l 1
 54 150 l 1
 200 296 l 1
 204 292 l 2
 211 286 226 276 254 272 c 1
 254 275 l 1
 254 333 l 1
 150 354 l 1
 146 350 l 1
 171 275 l 1
 100 204 l 1
 79 225 l 1
 54 300 l 1
 200 446 l 1
 325 421 l 1
 346 400 l 1
 346 367 l 1
 425 446 l 1
 546 325 l 1
 346 125 l 1xd8
254 100 m 1
 254 179 l 1
 225 179 l 2
 179 179 158 196 152 202 c 2
 150 204 l 1
 146 200 l 1
 146 100 l 1
 200 46 l 1
 254 100 l 1
346 325 m 1
 346 167 l 1
 454 275 l 1
 375 354 l 1
 346 325 l 1
EndSplineSet
EndChar
StartChar: eth
Encoding: 240 240 181
Width: 400
Flags: W
HStem: -46 21G<155 195> 426 20G<205 245> 426 20G<205 245> 504 92<175 225> 651 20G<280 320>
VStem: 54 92<85.195 275 569 627> 254 92<125 275 417 481.247>
AnchorPoint: "blwmark" 200 0 basechar 0
AnchorPoint: "abvmark" 250 700 basechar 0
LayerCount: 2
Back
SplineSet
275 625 m 5
 100 450 l 1029
300 300 m 1
 200 400 l 25
 100 300 l 1
 100 100 l 25
 200 0 l 25
 300 100 l 1
 300 450 l 10
 300 505 244 550 200 550 c 0
 156 550 100 556 100 600 c 27
 100 628 140 650 141 650 c 1049
EndSplineSet
Fore
SplineSet
254 275 m 1x9e
 175 354 l 1
 146 325 l 1
 146 125 l 2
 146 83 202 69 225 46 c 1
 254 75 l 1
 254 275 l 1x9e
254 417 m 1
 254 425 l 2
 254 446 246 466 234 482 c 1
 216 496 194 504 175 504 c 1
 75 404 l 1
 54 425 l 1
 135 506 l 1
 115 509 97 515 86 526 c 2
 65 547 l 2
 58 554 54 563 54 575 c 0
 54 587 61 598 70 607 c 2
 141 678 l 2
 152 689 165 696 166 696 c 2
 187 675 l 1
 148 636 l 2
 147 633 146 629 146 625 c 0
 146 619 147 613 149 608 c 0
 169 598 199 596 225 596 c 2
 300 671 l 1
 321 650 l 1
 259 588 l 1
 272 582 284 574 294 564 c 2
 316 542 l 2
 334 524 346 501 346 475 c 2
 346 125 l 1
 175 -46 l 1
 54 75 l 1
 54 275 l 1
 225 446 l 1xde
 254 417 l 1
EndSplineSet
EndChar
StartChar: oslash
Encoding: 248 248 183
Width: 400
Flags: W
HStem: -46 21G<5 45 155.263 195> 426 20G<205 244.737 355 395> 426 20G<205 244.737 355 395>
VStem: 54 92<164 275> 254 92<125 236>
AnchorPoint: "abvmark" 200 500 basechar 0
LayerCount: 2
Back
SplineSet
350 400 m 25
 50 0 l 1053
200 400 m 25
 100 300 l 25
 100 100 l 25
 200 0 l 25
 300 100 l 25
 300 300 l 25
 200 400 l 25
EndSplineSet
Fore
SplineSet
153 101 m 1x98
 169 76 207 64 225 46 c 1
 254 75 l 1
 254 236 l 1
 153 101 l 1x98
54 275 m 1
 225 446 l 1
 300 370 l 1
 304 375 l 1
 375 446 l 1xd8
 396 425 l 1
 332 339 l 1
 346 325 l 1
 346 125 l 1
 175 -46 l 1
 100 30 l 1
 96 25 l 1
 25 -46 l 1
 4 -25 l 1
 68 61 l 1
 54 75 l 1
 54 275 l 1
175 354 m 1
 146 325 l 1
 146 164 l 1
 247 299 l 1
 231 324 193 336 175 354 c 1
EndSplineSet
EndChar
StartChar: thorn
Encoding: 254 254 179
Width: 400
Flags: W
HStem: -196 21G<55 95> -46 21G<5 38 163 195> 426 20G<205 245> 426 20G<205 245> 651 20G<80 120>
VStem: 54 92<-125 -19 96 325 367 575> 254 92<125 314.805>
AnchorPoint: "abvmark" 200 750 basechar 0
LayerCount: 2
Back
SplineSet
50 0 m 1
 50 0 96 50 125 50 c 0
 154 50 200 0 200 0 c 9
 300 100 l 1
 300 300 l 25
 200 400 l 1
 100 300 l 1049
75 625 m 25
 125 575 l 1049
100 600 m 1
 100 -150 l 1025
EndSplineSet
Fore
SplineSet
146 325 m 1xce
 146 96 l 2
 147 96 149 96 150 96 c 0
 173 96 206 65 219 52 c 2
 225 46 l 1
 254 75 l 1
 254 275 l 2
 254 317 198 331 175 354 c 1
 146 325 l 1xce
29 600 m 1
 100 671 l 1
 125 646 l 1
 146 625 l 1
 171 600 l 1
 146 575 l 1
 146 367 l 1
 225 446 l 1xee
 346 325 l 1
 346 125 l 1
 175 -46 l 1
 163 -34 l 2
 158 -30 152 -24 146 -19 c 1
 146 -125 l 1
 75 -196 l 1
 54 -175 l 1
 54 -19 l 1
 48 -24 43 -30 38 -34 c 2
 25 -46 l 1
 4 -25 l 1
 4 -25 6 -23 10 -19 c 2
 54 25 l 1
 54 275 l 1
 54 575 l 1
 29 600 l 1
EndSplineSet
EndChar
StartChar: dcroat
Encoding: 273 273 319
Width: 400
Flags: W
HStem: -46 21G<155.177 195> 426 20G<205 245 380 420> 426 20G<205 245 380 420> 504 92<149.945 233.153>
VStem: 54 92<100 150 192 275> 254 92<125 258 417 481.247>
AnchorPoint: "abvmark" 250 700 basechar 0
LayerCount: 2
Back
SplineSet
375 400 m 1
 50 75 l 1029
300 300 m 1
 200 400 l 25
 100 300 l 1
 100 100 l 25
 200 0 l 25
 300 100 l 1
 300 450 l 10
 300 505 244 550 200 550 c 0
 156 550 100 556 100 600 c 27
 100 628 140 650 141 650 c 1049
EndSplineSet
Fore
SplineSet
254 417 m 1xdc
 254 425 l 2
 254 446 246 466 234 482 c 1
 216 496 194 504 175 504 c 0
 143 504 105 507 86 526 c 2
 65 547 l 2
 58 554 54 563 54 575 c 0
 54 587 61 598 70 607 c 2
 141 678 l 2
 152 689 165 696 166 696 c 2
 187 675 l 1
 148 636 l 2
 147 633 146 629 146 625 c 0
 146 619 147 613 149 608 c 0
 169 598 199 596 225 596 c 0
 248 596 274 584 294 564 c 2
 316 542 l 2
 334 524 346 501 346 475 c 2
 346 392 l 1
 400 446 l 1
 421 425 l 1
 346 350 l 1
 346 125 l 1
 175 -46 l 1
 63 67 l 1
 25 29 l 1
 4 50 l 1
 54 100 l 1
 54 275 l 1
 225 446 l 1
 254 417 l 1xdc
242 288 m 1
 175 354 l 1
 146 325 l 1
 146 192 l 1
 242 288 l 1
146 150 m 1
 146 125 l 2
 146 83 202 69 225 46 c 1
 254 75 l 1
 254 258 l 1
 146 150 l 1
EndSplineSet
EndChar
StartChar: hbar
Encoding: 295 295 964
Width: 400
Flags: W
HStem: -46 21G<80 120 280 320> 426 20G<230 270> 426 20G<230 270> 429 92<50 54 146 175> 651 20G<80 120>
VStem: 54 92<50 300 342 429 521 575> 254 92<50 331.5>
AnchorPoint: "abvmark" 200 700 basechar 0
AnchorPoint: "blwmark" 200 0 basechar 0
LayerCount: 2
Back
SplineSet
275 50 m 29
 325 0 l 1053
75 50 m 29
 125 0 l 1053
75 625 m 29
 125 575 l 1053
100 600 m 13
 100 25 l 1053
300 25 m 29
 300 325 l 29
 225 400 l 5
 100 275 l 1053
200 475 m 29
 25 475 l 1053
EndSplineSet
Fore
SplineSet
246 500 m 1x9e
 175 429 l 1
 146 429 l 1x9e
 146 342 l 1
 250 446 l 1xce
 346 350 l 1
 346 50 l 1
 371 25 l 1
 300 -46 l 1
 275 -21 l 1
 254 0 l 1
 229 25 l 1
 254 50 l 1
 254 300 l 2
 254 328 216 338 200 354 c 1
 146 300 l 1
 146 50 l 1
 171 25 l 1
 100 -46 l 1
 75 -21 l 1
 54 0 l 1
 29 25 l 1
 54 50 l 1
 54 250 l 1
 54 429 l 1
 0 429 l 1
 -21 450 l 1
 50 521 l 1
 54 521 l 1
 54 575 l 1
 29 600 l 1
 100 671 l 1
 125 646 l 1
 146 625 l 1
 171 600 l 1
 146 575 l 1
 146 521 l 1
 225 521 l 1
 246 500 l 1x9e
EndSplineSet
EndChar
StartChar: dotlessi
Encoding: 305 305 97
Width: 200
Flags: W
HStem: -46 21G<80 120> 426 20G<80 120> 426 20G<80 120>
VStem: 54 92<50 350>
LayerCount: 2
Back
SplineSet
75 50 m 29
 125 0 l 29
 175 50 l 1053
125 350 m 29
 75 400 l 29
 25 350 l 1053
100 375 m 13
 100 25 l 1029
EndSplineSet
Fore
SplineSet
146 400 m 1xd0
 171 375 l 1
 146 350 l 1
 146 50 l 1
 150 46 l 1
 200 96 l 1
 221 75 l 1
 100 -46 l 1
 75 -21 l 1
 29 25 l 1
 54 50 l 1
 54 350 l 1
 50 354 l 1
 0 304 l 1
 -21 325 l 1
 100 446 l 1
 125 421 l 1
 146 400 l 1xd0
EndSplineSet
EndChar
StartChar: eng
Encoding: 331 331 600
Width: 400
Flags: W
HStem: -246 92<204.444 243.347> -196 92<92.5 165.5> -46 21G<80 120> 426 20G<80 120 230 270> 426 20G<80 120 230 270>
VStem: 54 92<50 300 342 350> 254 92<-125 300>
AnchorPoint: "abvmark" 200 500 basechar 0
LayerCount: 2
Back
SplineSet
100 275 m 25
 225 400 l 1
 300 325 l 1
 300 -150 l 1
 300 -150 253 -200 225 -200 c 0
 193 -200 156 -150 125 -150 c 16
 87 -150 50 -200 50 -200 c 1033
75 50 m 25
 125 0 l 1049
125 350 m 25
 75 400 l 1049
100 375 m 9
 100 25 l 1025
EndSplineSet
Fore
SplineSet
146 400 m 1xb6
 171 375 l 1
 146 350 l 1
 146 342 l 1
 250 446 l 1
 346 350 l 1
 346 -125 l 1
 346 -125 345 -126 342 -129 c 2
 271 -200 l 2
 259 -212 223 -246 200 -246 c 0xb6
 168 -246 131 -196 100 -196 c 0x66
 85 -196 69 -204 58 -213 c 2
 25 -246 l 1xa6
 4 -225 l 1
 4 -225 10 -217 20 -207 c 2
 90 -136 l 2
 104 -122 127 -104 150 -104 c 0x66
 181 -104 218 -154 250 -154 c 0
 251 -154 252 -154 254 -154 c 2
 254 300 l 1
 200 354 l 1
 146 300 l 1
 146 50 l 1
 171 25 l 1
 100 -46 l 1
 75 -21 l 1
 29 25 l 1
 54 50 l 1
 54 250 l 1
 54 350 l 1
 29 375 l 1
 100 446 l 1
 125 421 l 1
 146 400 l 1xb6
EndSplineSet
EndChar
StartChar: OE
Encoding: 338 338 116
Width: 1250
Flags: W
HStem: -46 92<291 433 816 959> 446 21G<231 260 755 785> 446 21G<231 260 755 785> 504 92<1016 1077> 526 20G<930 970> 554 92<922 991>
VStem: 54 92<197 383> 260 30<80 455 540 564> 354 92<125 525> 579 95<188 435> 785 30<80 456 529 564> 879 92<125 304 366 475>
LayerCount: 2
Back
SplineSet
925 300 m 25
 925 300 972 350 1000 350 c 27
 1035 350 1015 300 1050 300 c 3
 1091 300 1125 350 1126 350 c 1049
800 550 m 1
 800 100 l 1025
925 500 m 1
 925 100 l 1025
800 600 m 1
 800 600 625 480 625 300 c 3
 625 134 720 0 900 0 c 3
 1019 0 1151 150 1152 150 c 1025
800 492 m 1
 800 492 895 600 955 600 c 3
 1019 600 992 550 1050 550 c 3
 1098 550 1125 600 1126 600 c 1025
275 550 m 1
 275 100 l 1025
402 550 m 1
 400 100 l 1025
275 600 m 1
 275 600 100 480 100 300 c 3
 100 134 195 0 375 0 c 3
 494 0 628 142 628 300 c 3
 628 512 536 600 425 600 c 3
 338 600 275 492 276 492 c 1025
EndSplineSet
Fore
SplineSet
775 446 m 1xc7f0
 754 467 l 1xa3f0
 754 467 763 477 777 491 c 2
 785 499 l 1
 785 564 l 1
 775 554 l 1
 775 554 768 548 756 539 c 0
 718 493 682 432 673 359 c 0
 674 348 674 337 674 325 c 0
 674 314 673 304 672 293 c 0
 678 221 702 156 744 109 c 0
 757 98 770 88 785 80 c 1
 785 456 l 1
 775 446 l 1xc7f0
950 546 m 1x8bf0
 971 525 l 1
 971 366 l 1
 987 380 1009 396 1025 396 c 0
 1032 396 1037 394 1041 390 c 2
 1062 369 l 2
 1068 363 1070 354 1072 346 c 0
 1073 346 1074 346 1075 346 c 0
 1091 346 1105 353 1117 362 c 2
 1151 396 l 2
 1172 375 l 1
 1169 371 1164 364 1155 355 c 2
 1084 285 l 2
 1070 271 1049 254 1025 254 c 0
 1018 254 1014 255 1010 259 c 0
 1009 260 l 2
 988 281 l 2
 982 287 981 295 978 304 c 0
 978 304 976 304 975 304 c 0
 974 304 972 304 971 304 c 2
 971 125 l 1
 900 54 l 1
 879 75 l 1
 879 275 l 1
 879 475 l 1
 950 546 l 1x8bf0
251 446 m 1xc7f0
 230 467 l 2xa3f0
 230 467 241 487 260 509 c 1
 260 564 l 1
 250 554 l 1
 250 554 243 548 231 539 c 0
 188 486 146 413 146 325 c 0
 146 240 171 163 219 109 c 0
 232 98 245 88 260 80 c 1
 260 455 l 1
 251 446 l 1xc7f0
251 446 m 1xc3f0
 251 446 l 1xc3f0
383 553 m 1
 364 550 347 542 332 532 c 1
 326 523 322 517 322 517 c 2
 290 485 l 1
 290 66 l 1
 322 53 359 46 400 46 c 0
 440 46 481 62 518 89 c 1
 550 133 574 186 580 243 c 0
 579 253 579 264 579 275 c 0
 579 287 580 299 581 310 c 0
 576 404 551 470 515 513 c 1
 495 530 472 542 448 548 c 1
 446 125 l 1
 375 54 l 1
 354 75 l 1
 356 525 l 1
 383 553 l 1
290 594 m 1
 290 540 l 1
 344 594 l 2
 370 620 407 646 450 646 c 0
 497 646 541 630 576 595 c 2
 597 574 l 2
 621 550 640 518 653 476 c 1
 668 495 684 513 698 527 c 2
 768 597 l 2
 799 628 825 646 825 646 c 1
 846 625 l 1
 815 594 l 1
 815 529 l 1
 847 562 l 2
 879 594 938 646 980 646 c 0x87f0
 1002 646 1012 641 1020 633 c 2
 1042 611 l 2
 1045 607 1047 604 1050 600 c 0
 1056 597 1064 596 1075 596 c 0x93f0
 1089 596 1101 601 1111 606 c 2
 1151 646 l 2x87f0
 1172 625 l 2
 1170 622 1164 613 1153 602 c 2
 1153 601 l 2
 1082 530 l 2
 1069 517 1050 504 1025 504 c 0x93f0
 1007 504 997 509 990 516 c 0
 969 537 l 2
 966 540 962 544 960 548 c 0
 953 551 943 554 930 554 c 0
 897 554 855 522 822 493 c 2
 815 486 l 1
 815 66 l 1
 847 53 884 46 925 46 c 0
 1009 46 1099 121 1145 164 c 2
 1176 195 l 1
 1177 196 l 2
 1198 175 l 1
 1195 172 l 2
 1192 169 1189 165 1182 158 c 2
 1111 87 l 2
 1072 48 969 -46 875 -46 c 0
 793 -46 730 -19 684 27 c 2
 662 49 l 2
 638 73 620 101 606 133 c 1
 597 121 587 110 577 100 c 2
 507 29 l 2
 461 -17 404 -46 350 -46 c 0
 268 -46 205 -19 159 27 c 2
 137 49 l 2
 82 104 54 184 54 275 c 0
 54 387 122 476 173 527 c 2
 243 597 l 2
 274 628 300 646 300 646 c 1x87f0
 321 625 l 1
 290 594 l 1
EndSplineSet
EndChar
StartChar: oe
Encoding: 339 339 115
Width: 550
Flags: W
HStem: -46 21G<155 195 355 395> 426 20G<205 245 405 445> 426 20G<205 245 405 445>
VStem: 54 92<125 275> 254 92<167 275>
LayerCount: 2
Back
SplineSet
500 100 m 9
 400 0 l 25
 300 100 l 25
 300 300 l 25
 400 400 l 25
 500 300 l 1
 300 100 l 25
 200 0 l 1
 100 100 l 25
 100 300 l 25
 200 400 l 25
 300 300 l 1041
EndSplineSet
Fore
SplineSet
346 167 m 1x98
 454 275 l 1
 375 354 l 1
 346 325 l 1
 346 167 l 1x98
275 54 m 1
 175 -46 l 1
 54 75 l 1
 54 275 l 1
 225 446 l 1
 325 346 l 1
 425 446 l 1xd8
 546 325 l 1
 346 125 l 1
 425 46 l 1
 525 146 l 1
 546 125 l 1
 375 -46 l 1
 275 54 l 1
254 275 m 1
 175 354 l 1
 146 325 l 1
 146 125 l 1
 225 46 l 1
 254 75 l 1
 254 275 l 1
EndSplineSet
EndChar
StartChar: longs
Encoding: 383 383 95
Width: 300
Flags: W
HStem: -246 92<29.4436 68.3467> -196 92<-82.5 -9.5> 554 92<263.5 335.5>
VStem: 79 92<-125 525>
AnchorPoint: "abvmark" 175 750 basechar 0
LayerCount: 2
Back
SplineSet
-125 -200 m 21
 -125 -200 -88 -150 -50 -150 c 12
 -19 -150 18 -200 50 -200 c 28
 78 -200 125 -150 125 -150 c 5
 125 550 l 5
 225 650 l 21
 225 650 256 600 300 600 c 28
 328 600 375 650 376 650 c 1037
EndSplineSet
Fore
SplineSet
-150 -246 m 1xb0
 -171 -225 l 1
 -171 -225 -165 -217 -155 -207 c 2
 -84 -136 l 2
 -84 -135 l 0
 -69 -120 -47 -104 -25 -104 c 0x70
 6 -104 43 -154 75 -154 c 0
 76 -154 78 -154 79 -154 c 2
 79 525 l 1
 250 696 l 1
 271 675 l 1
 271 675 274 670 279 664 c 0
 291 654 307 646 325 646 c 0
 346 646 376 673 391 687 c 2
 400 696 l 1
 421 675 l 2
 421 675 420 674 417 671 c 2
 346 600 l 2
 334 588 298 554 275 554 c 0
 252 554 232 568 219 581 c 0
 218 582 l 2
 198 602 l 1
 171 575 l 1
 171 -125 l 2
 171 -125 170 -126 167 -129 c 2
 96 -200 l 2
 84 -212 48 -246 25 -246 c 0xb0
 -7 -246 -44 -196 -75 -196 c 0x70
 -90 -196 -105 -204 -117 -213 c 2
 -150 -246 l 1xb0
EndSplineSet
EndChar
StartChar: florin
Encoding: 402 402 260
Width: 400
Flags: W
HStem: -246 92<28.9441 72.2599> -196 92<-82.5 -3> 354 92<125 155 253 325> 554 92<364 434>
LayerCount: 2
Back
SplineSet
-125 -200 m 17
 -125 -200 -88 -150 -50 -150 c 8
 -6 -150 6 -200 50 -200 c 24
 85 -200 125 -150 125 -150 c 1
 225 550 l 1
 325 650 l 17
 325 650 365 600 400 600 c 24
 435 600 475 650 476 650 c 1033
100 400 m 25
 350 400 l 1049
EndSplineSet
Fore
SplineSet
54 375 m 1xb0
 125 446 l 1
 168 446 l 1
 179 525 l 1
 350 696 l 1
 371 675 l 1
 371 675 372 673 374 671 c 0
 388 659 408 646 425 646 c 0
 443 646 463 659 477 672 c 2
 500 696 l 2
 501 696 l 2
 522 675 l 1
 520 673 l 2
 518 671 514 666 509 661 c 2
 439 591 l 2
 424 576 398 554 375 554 c 0
 353 554 329 574 314 589 c 2
 300 603 l 1
 271 575 l 1
 253 446 l 1
 375 446 l 1
 396 425 l 1
 325 354 l 1
 239 354 l 1
 171 -125 l 2
 171 -125 166 -131 158 -140 c 2
 157 -140 l 2
 87 -211 l 2
 72 -226 47 -246 25 -246 c 0xb0
 -19 -246 -31 -196 -75 -196 c 0x70
 -90 -196 -105 -204 -117 -213 c 2
 -150 -246 l 1xb0
 -171 -225 l 1
 -171 -225 -165 -217 -155 -207 c 2
 -84 -136 l 2
 -84 -135 l 0
 -69 -120 -47 -104 -25 -104 c 0x70
 19 -104 31 -154 75 -154 c 0
 77 -154 80 -153 82 -153 c 2
 155 354 l 1
 75 354 l 1
 54 375 l 1xb0
EndSplineSet
EndChar
StartChar: hv
Encoding: 405 405 514
Width: 600
Flags: W
HStem: -46 21G<80 120 355 395> 426 20G<230 270> 426 20G<230 270 506.19 550> 651 20G<80 120>
VStem: 54 92<50 300 342 575> 254 92<125 331.5> 404 92<435.809 503> 454 92<125 350>
AnchorPoint: "blwmark" 300 0 basechar 0
AnchorPoint: "abvmark" 300 700 basechar 0
LayerCount: 2
Back
SplineSet
505 550 m 25
 504 550 450 514 450 472 c 16
 450 423 500 375 500 375 c 25
 500 100 l 1
 400 0 l 25
 300 100 l 1
 300 325 l 25
 225 400 l 1
 100 275 l 1049
75 50 m 25
 125 0 l 1049
75 625 m 25
 125 575 l 1049
100 600 m 9
 100 25 l 1049
EndSplineSet
Fore
SplineSet
29 600 m 1xdd
 100 671 l 1
 125 646 l 1
 146 625 l 1
 171 600 l 1
 146 575 l 1
 146 342 l 1
 250 446 l 1
 346 350 l 1
 346 125 l 1
 425 46 l 1
 454 75 l 1
 454 350 l 1xdd
 453 351 l 2
 447 357 404 402 404 447 c 0
 404 469 418 489 433 504 c 0
 434 505 l 2
 505 575 l 2
 518 588 530 596 530 596 c 2
 551 575 l 1
 507 530 l 2
 500 519 496 509 496 497 c 0xde
 496 454 535 411 544 402 c 2
 546 400 l 1
 546 125 l 1
 375 -46 l 1
 254 75 l 1
 254 300 l 2
 254 328 216 338 200 354 c 1
 146 300 l 1
 146 50 l 1
 171 25 l 1
 100 -46 l 1
 75 -21 l 1
 29 25 l 1
 54 50 l 1
 54 250 l 1
 54 575 l 1
 29 600 l 1xdd
EndSplineSet
EndChar
StartChar: HV
Encoding: 502 502 513
Width: 900
Flags: W
HStem: -46 21G<5 45.7407 230 270 570 620> 504 21G<5 45> 554 92<92.5 160.199> 554 63<92 121.317>
VStem: 154 92<100 525> 279 92<75 225 267 525> 504 92<82 300> 654 92<442 501.203> 729 92<176 380.941>
AnchorPoint: "blwmark" 475 0 basechar 0
AnchorPoint: "abvmark" 500 700 basechar 0
LayerCount: 2
Back
SplineSet
50 550 m 1
 50 550 84 600 124 600 c 3
 160 600 178 575 200 575 c 3
 228 575 250 600 251 600 c 1025
200 550 m 1
 200 75 l 1025
375 250 m 1
 500 375 l 1
 550 325 l 1
 550 50 l 1
 625 0 l 1
 775 151 l 1
 775 415 l 1
 775 415 700 419 700 475 c 3
 700 530 800 600 800 600 c 1025
375 600 m 1
 325 550 l 1
 325 50 l 1
 275 0 l 1
 275 0 248 50 150 50 c 3
 81 50 50 0 50 0 c 1033
EndSplineSet
Fore
SplineSet
400 646 m 1xee80
 421 625 l 1
 371 575 l 1
 371 267 l 1
 525 421 l 1
 596 350 l 1
 596 82 l 1
 649 46 l 1
 729 126 l 1
 729 373 l 1xee80
 717 376 701 382 690 393 c 2
 669 414 l 2
 660 423 654 434 654 450 c 0
 654 476 677 506 701 530 c 2
 771 601 l 2
 772 602 l 2
 798 628 825 646 825 646 c 2xef
 846 625 l 1
 775 554 l 2
 775 554 771 551 763 545 c 0
 753 531 746 515 746 500 c 0xdf
 746 490 748 482 752 475 c 1
 773 462 800 461 800 461 c 1
 821 440 l 1
 821 176 l 1
 671 25 l 1
 600 -46 l 1
 525 4 l 1
 504 25 l 1
 504 300 l 1
 475 329 l 1
 371 225 l 1
 371 75 l 1
 250 -46 l 1
 229 -25 l 1
 229 -25 228 -25 228 -24 c 0
 209 -10 177 4 125 4 c 0
 92 4 69 -8 53 -19 c 2
 25 -46 l 1
 4 -25 l 2
 4 -25 8 -19 16 -11 c 2
 16 -10 l 2
 87 61 l 2
 99 73 121 89 154 94 c 1
 154 525 l 1
 161 532 l 1
 144 539 127 554 99 554 c 0xee80
 86 554 73 549 62 541 c 2
 25 504 l 1
 4 525 l 1
 4 525 11 535 22 546 c 2
 92 617 l 2
 93 617 l 0xde80
 107 631 127 646 149 646 c 0
 185 646 203 621 225 621 c 0
 253 621 275 646 276 646 c 2
 297 625 l 1
 246 574 l 1
 246 100 l 1
 235 88 l 1
 255 82 269 74 279 67 c 1
 279 525 l 1
 400 646 l 1xee80
EndSplineSet
EndChar
StartChar: dotlessj
Encoding: 567 567 98
Width: 200
Flags: W
HStem: -196 21G<5 45> 426 20G<80 120> 426 20G<80 120>
VStem: 54 92<-75 350>
AnchorPoint: "abvmark" 100 500 basechar 0
LayerCount: 2
Back
SplineSet
125 350 m 29
 75 400 l 29
 25 350 l 1053
100 375 m 5
 100 -100 l 13
 50 -150 l 1053
EndSplineSet
Fore
SplineSet
146 400 m 1xd0
 171 375 l 1
 146 350 l 1
 146 -75 l 1
 25 -196 l 1
 4 -175 l 1
 54 -125 l 1
 54 350 l 1
 50 354 l 1
 0 304 l 1
 -21 325 l 1
 100 446 l 1
 125 421 l 1
 146 400 l 1xd0
EndSplineSet
EndChar
StartChar: caron
Encoding: 711 711 245
Width: 400
Flags: W
HStem: 479 267
VStem: 54 292
LayerCount: 2
Back
SplineSet
100 700 m 25
 100 700 200 625 200 525 c 1
 200 675 300 700 300 700 c 1025
EndSplineSet
Fore
SplineSet
246 553 m 0
 246 551 246 552 246 550 c 2
 175 479 l 1
 154 500 l 2
 154 502 154 501 154 503 c 0
 154 523 150 540 143 558 c 0
 130 592 109 620 90 641 c 0
 81 649 75 654 75 654 c 1
 54 675 l 1
 125 746 l 1
 125 746 136 738 151 723 c 2
 172 702 l 2
 184 690 199 672 212 652 c 1
 275 715 l 2
 300 740 325 746 325 746 c 1
 346 725 l 1
 275 654 l 1
 275 654 272 653 266 651 c 0
 265 649 265 647 264 645 c 0
 253 621 246 593 246 553 c 0
EndSplineSet
EndChar
StartChar: verticallinemod
Encoding: 712 712 887
Width: 400
Flags: W
HStem: 479 267
VStem: 154 92<550 675>
LayerCount: 2
Back
SplineSet
200 700 m 9
 200 525 l 1025
EndSplineSet
Fore
SplineSet
225 746 m 1
 246 725 l 1
 246 550 l 1
 175 479 l 1
 154 500 l 1
 154 675 l 1
 225 746 l 1
EndSplineSet
EndChar
StartChar: ring
Encoding: 730 730 184
Width: 400
Flags: W
HStem: 479 92<173.422 253.604> 679 92<146.396 227>
VStem: 54 92<598.422 678.604> 254 92<571.396 651.578>
LayerCount: 2
Back
SplineSet
100 650 m 0
 100 710 115 725 175 725 c 0
 250 725 300 675 300 600 c 0
 300 540 285 525 225 525 c 0
 150 525 100 575 100 650 c 0
EndSplineSet
Fore
SplineSet
54 625 m 0
 54 655 58 674 69 685 c 2
 140 756 l 2
 151 767 170 771 200 771 c 0
 238 771 268 758 290 736 c 2
 312 715 l 2
 334 693 346 662 346 625 c 0
 346 595 342 576 331 565 c 2
 260 494 l 2
 249 483 230 479 200 479 c 0
 163 479 132 491 110 513 c 2
 89 535 l 1
 88 535 l 0
 66 557 54 588 54 625 c 0
146 675 m 0
 146 644 154 616 170 595 c 1
 191 580 219 571 250 571 c 0
 252 571 252 571 254 571 c 1
 254 572 254 574 254 575 c 0
 254 606 246 634 230 655 c 1
 209 670 181 679 150 679 c 0
 148 679 148 679 146 679 c 1
 146 678 146 676 146 675 c 0
EndSplineSet
EndChar
StartChar: ogonek
Encoding: 731 731 283
Width: 400
Flags: W
HStem: -246 292
VStem: 79 242
LayerCount: 2
Back
SplineSet
200 0 m 25
 125 -75 l 1
 125 -150 l 9
 225 -200 l 25
 275 -150 l 1053
EndSplineSet
Fore
SplineSet
225 46 m 1
 246 25 l 1
 171 -50 l 1
 171 -115 l 1
 250 -154 l 2
 250 -154 295 -109 300 -104 c 1
 321 -125 l 1
 200 -246 l 1
 100 -196 l 1
 79 -175 l 1
 79 -100 l 1
 225 46 l 1
EndSplineSet
EndChar
StartChar: tilde
Encoding: 732 732 168
Width: 400
Flags: W
HStem: 479 21G<5 45.7143> 504 92<185.549 308> 529 92<92 214.451> 626 20G<354.286 395>
LayerCount: 2
Back
SplineSet
50 525 m 17
 50 525 90 575 125 575 c 27
 184 575 216 550 275 550 c 27
 310 550 350 600 350 600 c 1033
EndSplineSet
Fore
SplineSet
25 479 m 1xb0
 4 500 l 1
 4 500 10 507 18 515 c 2
 88 586 l 2
 103 601 128 621 150 621 c 0xb0
 209 621 241 596 300 596 c 0
 316 596 333 607 346 618 c 2
 375 646 l 1
 396 625 l 1
 396 625 391 619 383 610 c 1
 382 610 l 1
 312 539 l 2
 297 524 272 504 250 504 c 0xd0
 191 504 159 529 100 529 c 0
 84 529 68 519 54 507 c 2
 25 479 l 1xb0
EndSplineSet
EndChar
StartChar: hungarumlaut
Encoding: 733 733 267
Width: 400
Flags: W
HStem: 479 267
LayerCount: 2
Back
SplineSet
350 700 m 17
 350 600 225 525 225 525 c 1049
200 700 m 17
 200 600 75 525 75 525 c 1049
EndSplineSet
Fore
SplineSet
225 746 m 1
 246 725 l 1
 246 675 214 631 183 600 c 2
 113 529 l 2
 82 498 50 479 50 479 c 1
 29 500 l 1
 100 571 l 2
 100 571 108 577 122 587 c 1
 140 612 154 642 154 675 c 1
 225 746 l 1
375 746 m 1
 396 725 l 1
 396 675 364 631 333 600 c 2
 263 529 l 2
 232 498 200 479 200 479 c 1
 179 500 l 1
 250 571 l 2
 250 571 258 577 272 587 c 1
 290 612 304 642 304 675 c 1
 375 746 l 1
EndSplineSet
EndChar
StartChar: hookcmb
Encoding: 777 777 381
Width: 0
Flags: W
HStem: 454 292 529 21G<-320 -280>
VStem: -346 292
AnchorPoint: "abvmark" -200 500 mark 0
LayerCount: 2
Back
SplineSet
-200 500 m 1
 -100 600 l 1
 -100 675 l 1
 -225 700 l 25
 -300 625 l 5
 -275 575 l 1053
EndSplineSet
Fore
SplineSet
-225 454 m 1xa0
 -246 475 l 1
 -146 575 l 1
 -146 633 l 1
 -250 654 l 2
 -250 654 -253 651 -254 650 c 2
 -229 600 l 1
 -300 529 l 1
 -321 550 l 1x60
 -346 600 l 1
 -200 746 l 1
 -75 721 l 1
 -54 700 l 1
 -54 625 l 1
 -225 454 l 1xa0
EndSplineSet
EndChar
StartChar: dotbelowcomb
Encoding: 803 803 357
Width: 0
VWidth: 400
Flags: W
HStem: -195.962 141.924
VStem: -270.962 141.924
AnchorPoint: "blwmark" -200 0 mark 0
LayerCount: 2
Back
SplineSet
-225 -100 m 29
 -175 -150 l 1053
EndSplineSet
Fore
SplineSet
-270.961914062 -124.749023438 m 1
 -200.250976562 -54.0380859375 l 1
 -129.038085938 -125.250976562 l 1
 -199.749023438 -195.961914062 l 1
 -270.961914062 -124.749023438 l 1
EndSplineSet
EndChar
StartChar: ringbelowcmb
Encoding: 805 805 576
Width: 0
Flags: W
HStem: -321 92<-226.578 -146.396> -121 92<-253.604 -173>
VStem: -346 92<-201.578 -121.396> -146 92<-228.604 -148.422>
AnchorPoint: "blwmark" -200 0 mark 0
LayerCount: 2
Back
SplineSet
-300 -150 m 0
 -300 -90 -285 -75 -225 -75 c 0
 -150 -75 -100 -125 -100 -200 c 0
 -100 -260 -115 -275 -175 -275 c 0
 -250 -275 -300 -225 -300 -150 c 0
EndSplineSet
Fore
SplineSet
-346 -175 m 0
 -346 -145 -342 -126 -331 -115 c 2
 -260 -44 l 2
 -249 -33 -230 -29 -200 -29 c 0
 -162 -29 -132 -42 -110 -64 c 2
 -88 -85 l 2
 -66 -107 -54 -138 -54 -175 c 0
 -54 -205 -58 -224 -69 -235 c 2
 -140 -306 l 2
 -151 -317 -170 -321 -200 -321 c 0
 -237 -321 -268 -309 -290 -287 c 2
 -311 -265 l 1
 -312 -265 l 0
 -334 -243 -346 -212 -346 -175 c 0
-254 -125 m 0
 -254 -156 -246 -184 -230 -205 c 1
 -209 -220 -181 -229 -150 -229 c 0
 -148 -229 -148 -229 -146 -229 c 1
 -146 -228 -146 -226 -146 -225 c 0
 -146 -194 -154 -166 -170 -145 c 1
 -191 -130 -219 -121 -250 -121 c 0
 -252 -121 -252 -121 -254 -121 c 1
 -254 -122 -254 -124 -254 -125 c 0
EndSplineSet
EndChar
StartChar: endash
Encoding: 8211 8211 257
Width: 400
Flags: W
HStem: 154 92<75 325>
LayerCount: 2
Back
SplineSet
50 200 m 25
 350 200 l 1049
EndSplineSet
Fore
SplineSet
4 175 m 1
 75 246 l 1
 375 246 l 1
 396 225 l 1
 325 154 l 1
 25 154 l 1
 4 175 l 1
EndSplineSet
EndChar
StartChar: quoteleft
Encoding: 8216 8216 254
Width: 300
Flags: W
HStem: 379 267
VStem: 79 167
LayerCount: 2
Back
SplineSet
175 425 m 29
 125 475 l 5
 125 525 l 29
 200 600 l 1053
EndSplineSet
Fore
SplineSet
221 450 m 1
 150 379 l 1
 79 450 l 1
 79 500 l 1
 225 646 l 1
 246 625 l 1
 171 550 l 1
 171 500 l 1
 221 450 l 1
EndSplineSet
EndChar
StartChar: quotesinglbase
Encoding: 8218 8218 256
Width: 300
VWidth: 450
Flags: W
HStem: -171 267
VStem: 54 167
LayerCount: 2
Back
SplineSet
125 50 m 29
 175 0 l 5
 175 -50 l 29
 100 -125 l 1053
EndSplineSet
Fore
SplineSet
79 25 m 1
 150 96 l 1
 221 25 l 1
 221 -25 l 1
 75 -171 l 1
 54 -150 l 1
 129 -75 l 1
 129 -25 l 1
 79 25 l 1
EndSplineSet
EndChar
StartChar: quotedblright
Encoding: 8221 8221 252
Width: 500
Flags: W
HStem: 379 267
LayerCount: 2
Back
SplineSet
325 600 m 29
 375 550 l 5
 375 500 l 29
 300 425 l 1053
125 600 m 29
 175 550 l 5
 175 500 l 29
 100 425 l 1053
EndSplineSet
Fore
SplineSet
79 575 m 1
 150 646 l 1
 221 575 l 1
 221 525 l 1
 75 379 l 1
 54 400 l 1
 129 475 l 1
 129 525 l 1
 79 575 l 1
279 575 m 1
 350 646 l 1
 421 575 l 1
 421 525 l 1
 275 379 l 1
 254 400 l 1
 329 475 l 1
 329 525 l 1
 279 575 l 1
EndSplineSet
EndChar
StartChar: quotedblbase
Encoding: 8222 8222 253
Width: 500
VWidth: 450
Flags: W
HStem: -171 267
LayerCount: 2
Back
SplineSet
325 50 m 29
 375 0 l 5
 375 -50 l 29
 300 -125 l 1053
125 50 m 29
 175 0 l 5
 175 -50 l 29
 100 -125 l 1053
EndSplineSet
Fore
SplineSet
79 25 m 1
 150 96 l 1
 221 25 l 1
 221 -25 l 1
 75 -171 l 1
 54 -150 l 1
 129 -75 l 1
 129 -25 l 1
 79 25 l 1
279 25 m 1
 350 96 l 1
 421 25 l 1
 421 -25 l 1
 275 -171 l 1
 254 -150 l 1
 329 -75 l 1
 329 -25 l 1
 279 25 l 1
EndSplineSet
EndChar
StartChar: dagger
Encoding: 8224 8224 262
Width: 400
Flags: W
HStem: -196 21G<155 195> 426 20G<55 95 256 345> 426 20G<55 95 256 345> 626 20G<230 270>
VStem: 154 92<-125 81.7696>
LayerCount: 2
Back
SplineSet
50 400 m 29
 100 350 l 29
 300 400 l 29
 350 350 l 1053
175 550 m 1
 175 550 188 459 190 400 c 24
 198 186 200 -150 200 -150 c 1
 200 -150 203 186 210 400 c 24
 213 478 225 600 225 600 c 9
 175 550 l 1
EndSplineSet
Fore
SplineSet
129 525 m 1xd8
 250 646 l 1
 271 625 l 1
 271 625 259 507 256 429 c 1
 325 446 l 1
 396 375 l 1
 325 304 l 1
 275 354 l 1
 254 349 l 1
 249 140 246 -125 246 -125 c 2
 175 -196 l 1
 154 -175 l 1
 154 -175 152 110 146 322 c 1
 75 304 l 1
 4 375 l 1
 75 446 l 1
 125 396 l 1
 143 400 l 1
 139 457 129 525 129 525 c 1xd8
EndSplineSet
EndChar
StartChar: bullet
Encoding: 8226 8226 259
Width: 300
Flags: W
HStem: 204 192
VStem: 54 192
LayerCount: 2
Back
SplineSet
125 350 m 25
 200 275 l 29
 175 250 l 29
 100 325 l 25
 125 350 l 25
EndSplineSet
Fore
SplineSet
150 396 m 1
 246 300 l 1
 150 204 l 1
 54 300 l 1
 150 396 l 1
EndSplineSet
EndChar
StartChar: minute
Encoding: 8242 8242 926
Width: 300
Flags: W
HStem: 479 267
VStem: 54 192
LayerCount: 2
Back
SplineSet
200 700 m 17
 200 600 100 525 100 525 c 1041
EndSplineSet
Fore
SplineSet
225 746 m 1
 246 725 l 1
 246 658 202 603 172 573 c 2
 101 502 l 2
 86 487 75 479 75 479 c 2
 54 500 l 1
 104 550 l 1
 129 581 154 625 154 675 c 1
 225 746 l 1
EndSplineSet
EndChar
StartChar: guilsinglleft
Encoding: 8249 8249 242
Width: 300
Flags: W
VStem: 4 292
LayerCount: 2
Back
SplineSet
225 325 m 21
 225 325 203.459960938 295.372070312 175 275 c 4
 80 207 50 200 50 200 c 5
 50 200 114 174 200 100 c 4
 221.074883505 81.8657979147 250 50 250 50 c 1037
EndSplineSet
Fore
SplineSet
250 371 m 1
 271 350 l 1
 271 350 262 337 247 322 c 2
 176 251 l 2
 175 250 175 251 174 250 c 0
 167 243 159 235 150 229 c 0
 144 224 135 218 131 215 c 1
 156 199 189 177 225 146 c 0
 232 140 240 132 247 125 c 2
 268 104 l 1
 269 103 l 2
 284 88 296 75 296 75 c 1
 225 4 l 1
 204 25 l 1
 204 25 197 33 187 43 c 0
 183 47 179 51 175 54 c 0
 89 128 25 154 25 154 c 1
 4 175 l 1
 75 246 l 1
 75 246 105 253 200 321 c 1
 250 371 l 1
EndSplineSet
EndChar
